{
.formatVersion = 3;
date = "2012-07-06 12:03:00 +0000";
familyName = Quando;
fontMaster = (
{
customParameters = (
{
name = typoAscender;
value = 2030;
},
{
name = typoDescender;
value = -530;
},
{
name = typoLineGap;
value = 0;
},
{
name = winAscent;
value = 2030;
},
{
name = winDescent;
value = 530;
},
{
name = hheaAscender;
value = 2030;
},
{
name = hheaDescender;
value = -530;
},
{
name = hheaLineGap;
value = 0;
}
);
id = "3ab791a5-0594-4336-bd7a-6e9e95a35031";
metricValues = (
{
},
{
pos = -50;
},
{
pos = 50;
},
{
pos = 1638;
},
{
pos = -410;
},
{
pos = 1331;
},
{
pos = 1228;
},
{
},
{
pos = 153;
},
{
pos = 1331;
},
{
pos = 1228;
},
{
},
{
pos = 716;
},
{
pos = 102;
},
{
pos = 512;
}
);
name = Regular;
visible = 1;
}
);
glyphs = (
{
glyphname = .notdef;
layers = (
{
layerId = "3ab791a5-0594-4336-bd7a-6e9e95a35031";
name = Fore;
shapes = (
{
closed = 1;
nodes = (
(1957,815,l),
(855,-288,l),
(-247,815,l),
(855,1917,l)
);
},
{
closed = 1;
nodes = (
(918,477,l),
(918,491,l),
(918,603,o),
(967,649,q),
(986,666,o),
(1031.5,692.5,q),
(1077,719,o),
(1125,750,q),
(1173,781,o),
(1214,824,q),
(1310,926,o),
(1310,1045.5,q),
(1310,1165,o),
(1277.5,1234,q),
(1245,1303,o),
(1188,1344,q),
(1084,1419,o),
(887,1419,q),
(724,1419,o),
(586,1335,q),
(494,1280,o),
(456,1196,q),
(436,1153,o),
(436,1114.5,q),
(436,1076,o),
(444,1049.5,q),
(452,1023,o),
(468,1002,q),
(502,957,o),
(545,957,q),
(601,957,o),
(637,976,q),
(657,986,l),
(651,1010,o),
(651,1022,q),
(651,1037,l),
(651,1066,o),
(661.5,1115,q),
(672,1164,o),
(694,1196,q),
(746,1267,o),
(870,1267,q),
(965,1267,o),
(1030,1204,q),
(1091,1144,o),
(1091,1054,q),
(1091,929,o),
(967,851,q),
(932,829,o),
(897,810,q),
(830,770,l),
(717,703,o),
(717,595,q),
(717,527,o),
(771,440,q),
(789,412,o),
(820,412,q),
(851,412,o),
(865,418.5,q),
(879,425,o),
(891,433,q),
(917,450,o),
(919,461,q)
);
},
{
closed = 1;
nodes = (
(707,218,o),
(707,186.5,q),
(707,155,o),
(718.5,127.5,q),
(730,100,o),
(750,80,q),
(791,39,o),
(838.5,39,q),
(886,39,o),
(913.5,50,q),
(941,61,o),
(961,80,q),
(1004,122,o),
(1004,187,q),
(1004,250,o),
(961,293,q),
(918,336,o),
(870.5,336,q),
(823,336,o),
(796,324.5,q),
(769,313,o),
(749.5,293,q),
(730,273,o),
(718.5,245.5,q)
);
}
);
width = 1699;
}
);
},
{
category = Letter;
glyphname = exclam;
layers = (
{
layerId = "3ab791a5-0594-4336-bd7a-6e9e95a35031";
name = Fore;
shapes = (
{
closed = 1;
nodes = (
(403,505,o),
(330.5,505,q),
(258,505,o),
(258,529,q),
(258,553,o),
(254,609,q),
(242,800,o),
(235,898,q),
(198,1435,l),
(187,1600,o),
(187,1642,q),
(187,1672,o),
(358,1708,q),
(422,1721,o),
(458,1721,q),
(494,1721,o),
(494,1711.5,q),
(494,1702,o),
(490,1656,q),
(414,640,l),
(408,569,o),
(405,526,q)
);
},
{
closed = 1;
nodes = (
(165,219,o),
(212.5,266.5,q),
(260,314,o),
(330,314,q),
(444,314,o),
(487,214,q),
(500,183,o),
(500,147,q),
(500,77,o),
(452,28,q),
(404,-19,o),
(330,-19,q),
(260,-19,o),
(212.5,28.5,q),
(165,76,o),
(165,147,q)
);
}
);
width = 664;
}
);
unicode = 33;
},
{
category = Letter;
glyphname = numbersign;
layers = (
{
layerId = "3ab791a5-0594-4336-bd7a-6e9e95a35031";
name = Fore;
shapes = (
{
closed = 1;
nodes = (
(217,991,o),
(217,1023.5,q),
(217,1056,o),
(220.5,1077,q),
(224,1098,o),
(232,1115,q),
(248,1153,o),
(273,1153,q),
(548,1153,l),
(624,1484,l),
(650,1497,o),
(683.5,1497,q),
(717,1497,o),
(737.5,1493.5,q),
(758,1490,o),
(773,1482,q),
(807,1466,o),
(801,1438,q),
(735,1153,l),
(1089,1153,l),
(1165,1484,l),
(1191,1497,o),
(1224.5,1497,q),
(1258,1497,o),
(1278.5,1493.5,q),
(1299,1490,o),
(1314,1482,q),
(1348,1466,o),
(1342,1438,q),
(1277,1153,l),
(1528,1153,l),
(1541,1127,o),
(1541,1095.5,q),
(1541,1064,o),
(1537.5,1042.5,q),
(1534,1021,o),
(1526,1004,q),
(1509,965,o),
(1481,965,q),
(1234,965,l),
(1131,516,l),
(1421,516,l),
(1434,490,o),
(1434,458,q),
(1434,426,o),
(1430.5,405,q),
(1427,384,o),
(1420,366,q),
(1403,328,o),
(1374,328,q),
(1088,328,l),
(1013,0,l),
(964,-18,o),
(921.5,-11,q),
(879,-4,o),
(864,4,q),
(830,20,o),
(835,45,q),
(900,328,l),
(546,328,l),
(471,0,l),
(444,-11,o),
(411,-11,q),
(378,-11,o),
(357.5,-7.5,q),
(337,-4,o),
(322,4,q),
(289,20,o),
(294,45,q),
(359,328,l),
(121,328,l),
(110,354,o),
(110,386.5,q),
(110,419,o),
(113.5,440,q),
(117,461,o),
(124,478,q),
(141,516,o),
(166,516,q),
(402,516,l),
(505,965,l),
(228,965,l)
);
},
{
closed = 1;
nodes = (
(1046,965,l),
(692,965,l),
(589,516,l),
(943,516,l)
);
}
);
width = 1651;
}
);
unicode = 35;
},
{
category = Letter;
glyphname = dollar;
layers = (
{
layerId = "3ab791a5-0594-4336-bd7a-6e9e95a35031";
name = Fore;
shapes = (
{
closed = 1;
nodes = (
(971,1235,o),
(924,1310,q),
(877,1385,o),
(770,1408,q),
(753,876,l),
(866,822,l),
(1058,725,o),
(1132,616,q),
(1194,523,o),
(1194,417.5,q),
(1194,312,o),
(1157,240,q),
(1120,168,o),
(1056,115,q),
(927,7,o),
(724,-14,q),
(720,-159,l),
(698,-167,o),
(678.5,-167,q),
(659,-167,o),
(641,-161.5,q),
(623,-156,o),
(610,-146,q),
(580,-124,o),
(580,-95,q),
(582,-18,l),
(406,-11,o),
(277,49,q),
(126,119,o),
(126,249,q),
(126,366,o),
(182,463,q),
(201,486,o),
(234,486,q),
(298,486,o),
(308,448,q),
(319,298,o),
(389,220,q),
(459,142,o),
(587,123,q),
(604,665,l),
(576,677,l),
(382,759,o),
(287,852,q),
(163,974,o),
(163,1153,q),
(163,1321,o),
(296,1428,q),
(424,1532,o),
(633,1548,q),
(638,1710,l),
(656,1719,o),
(676.5,1719,q),
(697,1719,o),
(714.5,1713.5,q),
(732,1708,o),
(746,1698,q),
(778,1677,o),
(778,1644,q),
(775,1550,l),
(1034,1537,o),
(1112,1418,q),
(1140,1376,o),
(1140,1306,q),
(1140,1236,o),
(1126.5,1182,q),
(1113,1128,o),
(1100,1112,q),
(1078,1085,o),
(1024.5,1085,q),
(971,1085,o),
(971,1111,q)
);
},
{
closed = 1;
nodes = (
(452,1401,o),
(400,1279,q),
(385,1242,o),
(385,1197,q),
(385,1152,o),
(403,1115,q),
(421,1078,o),
(452,1047,q),
(505,994,o),
(613,941,q),
(628,1416,l)
);
},
{
closed = 1;
nodes = (
(889,137,o),
(940,254,q),
(958,295,o),
(958,342,q),
(958,389,o),
(942,424,q),
(926,459,o),
(898,490,q),
(844,547,o),
(744,599,q),
(729,120,l)
);
}
);
width = 1322;
}
);
unicode = 36;
},
{
category = Letter;
glyphname = percent;
layers = (
{
layerId = "3ab791a5-0594-4336-bd7a-6e9e95a35031";
name = Fore;
shapes = (
{
closed = 1;
nodes = (
(357,685,o),
(316.5,700.5,q),
(276,716,o),
(238,744,q),
(200,772,o),
(171,817,q),
(107,916,o),
(107,1075,q),
(107,1368,o),
(320,1456,q),
(392,1486,o),
(450,1486,q),
(508,1486,o),
(548.5,1480.5,q),
(589,1475,o),
(629.5,1459.5,q),
(670,1444,o),
(708,1416,q),
(746,1388,o),
(776,1342,q),
(840,1243,o),
(840,1075,q),
(840,797,o),
(626,706,q),
(550,673,o),
(493.5,673,q),
(437,673,o),
(397,679,q)
);
},
{
closed = 1;
nodes = (
(641,1352,o),
(473.5,1352,q),
(306,1352,o),
(306,1075,q),
(306,869,o),
(406,820,q),
(437,805,o),
(473.5,805,q),
(510,805,o),
(540.5,820,q),
(571,835,o),
(594,868,q),
(641,936,o),
(641,1075,q)
);
},
{
closed = 1;
nodes = (
(1129,282,o),
(1129,368.5,q),
(1129,455,o),
(1147,519,q),
(1165,583,o),
(1195,628.5,q),
(1225,674,o),
(1263.5,703.5,q),
(1302,733,o),
(1342,750,q),
(1414,780,o),
(1472.5,780,q),
(1531,780,o),
(1571.5,774.5,q),
(1612,769,o),
(1652.5,753.5,q),
(1693,738,o),
(1730.5,710,q),
(1768,682,o),
(1798,636,q),
(1862,535,o),
(1862,369,q),
(1862,90,o),
(1649,0,q),
(1573,-33,o),
(1493,-33,q),
(1216,-33,o),
(1146,219,q)
);
},
{
closed = 1;
nodes = (
(1664,646,o),
(1496,646,q),
(1328,646,o),
(1328,369,q),
(1328,163,o),
(1429,114,q),
(1460,99,o),
(1496.5,99,q),
(1533,99,o),
(1563.5,114,q),
(1594,129,o),
(1616,162,q),
(1664,230,o),
(1664,369,q)
);
},
{
closed = 1;
nodes = (
(1393,1453,o),
(1429,1426,q),
(1496,1376,o),
(1474,1342,q),
(610,3,l),
(556,5,o),
(523,31,q),
(461,77,o),
(480,109,q),
(1345,1448,l)
);
}
);
width = 1969;
}
);
unicode = 37;
},
{
category = Letter;
glyphname = ampersand;
layers = (
{
layerId = "3ab791a5-0594-4336-bd7a-6e9e95a35031";
name = Fore;
shapes = (
{
closed = 1;
nodes = (
(922,-19,o),
(624,-19,q),
(428,-19,o),
(282,84,q),
(117,201,o),
(117,404,q),
(117,620,o),
(300,767,q),
(353,809,o),
(408,839,q),
(284,1009,o),
(284,1143,q),
(284,1321,o),
(416,1435,q),
(540,1541,o),
(707,1541,q),
(855,1541,o),
(952,1482,q),
(1061,1416,o),
(1061,1297,q),
(1061,1167,o),
(942,1115,q),
(918,1107,o),
(898.5,1107,q),
(879,1107,o),
(859,1124,q),
(866,1154,o),
(866,1196,q),
(866,1219,l),
(857,1293,o),
(805,1336.5,q),
(753,1380,o),
(662,1380,q),
(541,1380,o),
(496,1294,q),
(479,1262,o),
(479,1211,q),
(479,1160,o),
(508,1098.5,q),
(537,1037,o),
(587.5,971,q),
(638,905,o),
(705.5,836,q),
(773,767,o),
(850,698,q),
(1055,525,o),
(1171,436,q),
(1293,627,o),
(1321,904,q),
(1354,910,o),
(1389,910,q),
(1543,910,o),
(1543,764,q),
(1543,633,o),
(1421,441,q),
(1381,378,o),
(1328,317,q),
(1412,256,l),
(1521,178,o),
(1596,178,q),
(1636,178,o),
(1663,196.5,q),
(1690,215,o),
(1696.5,217,q),
(1703,219,o),
(1711.5,216,q),
(1720,213,o),
(1728,208,q),
(1747,194,o),
(1747,172.5,q),
(1747,151,o),
(1728,115.5,q),
(1709,80,o),
(1678,50,q),
(1605,-21,o),
(1522,-21,q),
(1442,-21,o),
(1338,52,q),
(1171,170,l)
);
},
{
closed = 1;
nodes = (
(352,624,o),
(352,472,q),
(352,318,o),
(448,230,q),
(535,149,o),
(656,149,q),
(875,149,o),
(1028,273,q),
(747,487,o),
(650,578.5,q),
(553,670,o),
(498,730,q)
);
}
);
width = 1712;
}
);
unicode = 38;
},
{
category = Letter;
glyphname = quotesingle;
layers = (
{
layerId = "3ab791a5-0594-4336-bd7a-6e9e95a35031";
name = Fore;
shapes = (
{
closed = 1;
nodes = (
(365,1728,o),
(415,1728,q),
(465,1728,o),
(465,1712,q),
(460,1649,o),
(454,1587,q),
(422,1259,o),
(417,1197,q),
(406,1076,l),
(406,1055,o),
(307,1055,q),
(239,1055,o),
(237,1079,q),
(234,1112,o),
(229,1162,q),
(206,1386,l),
(199,1446,o),
(194,1502,q),
(185,1607,l),
(181,1655,o),
(180,1686,q),
(180,1713,o),
(328,1725,q)
);
}
);
width = 644;
}
);
unicode = 39;
},
{
category = Letter;
glyphname = parenleft;
layers = (
{
layerId = "3ab791a5-0594-4336-bd7a-6e9e95a35031";
name = Fore;
shapes = (
{
closed = 1;
nodes = (
(107,555,o),
(107,719,q),
(107,883,o),
(130.5,1009,q),
(154,1135,o),
(196.5,1251.5,q),
(239,1368,o),
(300,1473.5,q),
(361,1579,o),
(436,1670,q),
(586,1852,o),
(779,1964,q),
(829,1934,o),
(844,1861,q),
(468,1602,o),
(378,1080,q),
(351,920,o),
(351,752,q),
(351,225,o),
(634,-122,q),
(731,-240,o),
(863,-331,q),
(855,-380,o),
(804,-430,q),
(791,-444,o),
(779,-451,q),
(482,-281,o),
(300,35,q),
(210,191,o),
(158.5,373,q)
);
}
);
width = 960;
}
);
unicode = 40;
},
{
category = Letter;
glyphname = asterisk;
layers = (
{
layerId = "3ab791a5-0594-4336-bd7a-6e9e95a35031";
name = Fore;
shapes = (
{
closed = 1;
nodes = (
(472,1012,o),
(422.5,1012,q),
(373,1012,o),
(339,1039,q),
(276,1088,o),
(276,1151,q),
(276,1197,o),
(308,1224,q),
(342,1251,o),
(380,1280,q),
(380,1280,o),
(446,1331,q),
(510,1380,o),
(556,1426,q),
(487,1442,o),
(411,1446.5,q),
(335,1451,o),
(290,1454,q),
(236,1458,o),
(212.5,1466.5,q),
(189,1475,o),
(170,1502.5,q),
(151,1530,o),
(151,1563.5,q),
(151,1597,o),
(163,1630.5,q),
(175,1664,o),
(206.5,1689.5,q),
(238,1715,o),
(260,1715,q),
(294,1715,o),
(307,1710,q),
(339,1692,l),
(467,1603,l),
(533,1559,o),
(591,1530,q),
(578,1626,o),
(558,1704,q),
(527,1825,l),
(522,1840,o),
(522,1862.5,q),
(522,1885,o),
(532.5,1904.5,q),
(543,1924,o),
(561,1938,q),
(599,1969,o),
(640.5,1969,q),
(682,1969,o),
(706.5,1959.5,q),
(731,1950,o),
(748,1934,q),
(781,1903,o),
(781,1862,q),
(781,1838,o),
(768,1792,q),
(732,1672,l),
(709,1600,o),
(698,1528,q),
(769,1566,o),
(811,1594,q),
(952,1692,l),
(992,1715,o),
(1022,1715,q),
(1052,1715,o),
(1083.5,1689.5,q),
(1115,1664,o),
(1127,1630.5,q),
(1139,1597,o),
(1139,1563.5,q),
(1139,1530,o),
(1120,1502.5,q),
(1101,1475,o),
(1082,1468,q),
(1050,1457,o),
(1002,1454,q),
(879,1446,l),
(803,1442,o),
(734,1426,q),
(780,1380,o),
(826,1345,q),
(967,1236,l),
(991,1216,o),
(1002.5,1201,q),
(1014,1186,o),
(1014,1154,q),
(1014,1088,o),
(960,1046,q),
(917,1012,o),
(881,1012,q),
(803,1012,o),
(771,1083,q),
(712,1226,l),
(683,1295,o),
(646,1358,q),
(610,1295,o),
(580,1226,q),
(519,1083,l),
(511,1066,o),
(498,1049,q)
);
}
);
width = 1290;
}
);
unicode = 42;
},
{
category = Letter;
glyphname = plus;
layers = (
{
layerId = "3ab791a5-0594-4336-bd7a-6e9e95a35031";
name = Fore;
shapes = (
{
closed = 1;
nodes = (
(151,664,l),
(140,694,o),
(140,723.5,q),
(140,753,o),
(143.5,774,q),
(147,795,o),
(154,812,q),
(172,849,o),
(196,849,q),
(486,849,l),
(486,1203,l),
(512,1216,o),
(543.5,1216,q),
(575,1216,o),
(596.5,1212.5,q),
(618,1209,o),
(635,1202,q),
(674,1184,o),
(674,1156,q),
(674,849,l),
(1004,849,l),
(1017,823,o),
(1017,791,q),
(1017,759,o),
(1013.5,738.5,q),
(1010,718,o),
(1002,702,q),
(985,664,o),
(957,664,q),
(674,664,l),
(674,311,l),
(644,300,o),
(614,300,q),
(584,300,o),
(562.5,303.5,q),
(541,307,o),
(524,314,q),
(486,331,o),
(486,356,q),
(486,664,l)
);
}
);
width = 1157;
}
);
unicode = 43;
},
{
category = Letter;
glyphname = comma;
layers = (
{
layerId = "3ab791a5-0594-4336-bd7a-6e9e95a35031";
name = Fore;
shapes = (
{
closed = 1;
nodes = (
(501,319,o),
(501,108,q),
(501,-137,o),
(338,-312,q),
(294,-360,o),
(261,-376,q),
(224,-376,o),
(194,-339,q),
(185,-328,o),
(185,-316,q),
(191,-307,o),
(207.5,-285,q),
(224,-263,o),
(242,-230,q),
(286,-144,o),
(286,-52,q),
(286,72,o),
(165,81,q),
(151,114,o),
(151,149.5,q),
(151,185,o),
(162.5,214.5,q),
(174,244,o),
(196,267,q),
(244,319,o),
(316,319,q)
);
}
);
width = 664;
}
);
unicode = 44;
},
{
category = Letter;
glyphname = hyphen;
layers = (
{
layerId = "3ab791a5-0594-4336-bd7a-6e9e95a35031";
name = Fore;
shapes = (
{
closed = 1;
nodes = (
(862,823,o),
(862,791.5,q),
(862,760,o),
(858.5,739,q),
(855,718,o),
(848,702,q),
(830,664,o),
(802,664,q),
(151,664,l),
(140,694,o),
(140,723.5,q),
(140,753,o),
(143.5,774,q),
(147,795,o),
(154,812,q),
(172,849,o),
(196,849,q),
(849,849,l)
);
}
);
width = 1002;
}
);
unicode = 45;
},
{
category = Letter;
glyphname = period;
layers = (
{
layerId = "3ab791a5-0594-4336-bd7a-6e9e95a35031";
name = Fore;
shapes = (
{
closed = 1;
nodes = (
(165,219,o),
(212.5,266.5,q),
(260,314,o),
(330,314,q),
(444,314,o),
(487,214,q),
(500,183,o),
(500,147,q),
(500,77,o),
(452,28,q),
(404,-19,o),
(330,-19,q),
(260,-19,o),
(212.5,28.5,q),
(165,76,o),
(165,147,q)
);
}
);
width = 664;
}
);
unicode = 46;
},
{
category = Letter;
glyphname = slash;
layers = (
{
layerId = "3ab791a5-0594-4336-bd7a-6e9e95a35031";
name = Fore;
shapes = (
{
closed = 1;
nodes = (
(762,1827,o),
(795,1827,q),
(828,1827,o),
(850,1823.5,q),
(872,1820,o),
(888,1812,q),
(926,1796,o),
(920,1767,q),
(188,-165,l),
(159,-176,o),
(125.5,-176,q),
(92,-176,o),
(70.5,-172.5,q),
(49,-169,o),
(32,-162,q),
(-4,-145,o),
(1,-120,q),
(732,1814,l)
);
}
);
width = 921;
}
);
unicode = 47;
},
{
category = Letter;
glyphname = zero;
layers = (
{
layerId = "3ab791a5-0594-4336-bd7a-6e9e95a35031";
name = Fore;
shapes = (
{
closed = 1;
nodes = (
(530,-19,o),
(358,130,q),
(222,249,o),
(166,476,q),
(136,594,o),
(136,751.5,q),
(136,909,o),
(166.5,1029,q),
(197,1149,o),
(247.5,1237,q),
(298,1325,o),
(363.5,1383.5,q),
(429,1442,o),
(498,1477,q),
(628,1542,o),
(764,1542,q),
(1001,1542,o),
(1168,1396,q),
(1305,1276,o),
(1362,1040,q),
(1391,917,o),
(1391,760.5,q),
(1391,604,o),
(1360.5,489,q),
(1330,374,o),
(1279.5,288.5,q),
(1229,203,o),
(1163.5,144,q),
(1098,85,o),
(1028,49,q),
(894,-19,o),
(758,-19,q)
);
},
{
closed = 1;
nodes = (
(681,145,o),
(764.5,145,q),
(848,145,o),
(917.5,178,q),
(987,211,o),
(1036,284,q),
(1141,437,o),
(1141,752,q),
(1141,1248,o),
(916,1346,q),
(846,1377,o),
(762.5,1377,q),
(679,1377,o),
(609,1346.5,q),
(539,1316,o),
(490,1243,q),
(386,1090,o),
(386,752,q),
(386,285,o),
(612,178,q)
);
}
);
width = 1527;
}
);
unicode = 48;
},
{
category = Letter;
glyphname = one;
layers = (
{
layerId = "3ab791a5-0594-4336-bd7a-6e9e95a35031";
name = Fore;
shapes = (
{
closed = 1;
nodes = (
(862,0,o),
(787,0,q),
(282,0,l),
(197,0,o),
(176,50,q),
(168,68,o),
(168,88,q),
(168,130,o),
(183,147,q),
(218,137,o),
(277,137,q),
(336,137,o),
(361.5,149,q),
(387,161,o),
(402,183,q),
(428,221,o),
(428,305,q),
(429,1161,l),
(409,1273,o),
(306,1273,q),
(277,1273,o),
(246,1268,q),
(246,1268,o),
(187,1257,q),
(168,1253,o),
(156,1289,q),
(132,1355,o),
(148,1367,q),
(408,1444,o),
(566,1538,q),
(570,1542,o),
(581,1542,q),
(592,1542,o),
(606.5,1534,q),
(621,1526,o),
(633,1514,q),
(661,1486,o),
(661,1466,q),
(661,255,l),
(661,198,o),
(674,180,q),
(695,153,o),
(731,146.5,q),
(767,140,o),
(796.5,133.5,q),
(826,127,o),
(850,116,q),
(901,93,o),
(901,47,q),
(901,13,o),
(886,-8,q)
);
}
);
width = 1022;
}
);
unicode = 49;
},
{
category = Letter;
glyphname = two;
layers = (
{
layerId = "3ab791a5-0594-4336-bd7a-6e9e95a35031";
name = Fore;
shapes = (
{
closed = 1;
nodes = (
(564,183,o),
(661,183,q),
(758,183,o),
(843,187,q),
(928,191,o),
(988,213,q),
(1113,259,o),
(1122,415,q),
(1142,420,o),
(1157,420,q),
(1196,420,o),
(1209.5,398.5,q),
(1223,377,o),
(1230,350,q),
(1237,323,o),
(1240,292,q),
(1247,236,o),
(1247,192.5,q),
(1247,149,o),
(1237.5,115.5,q),
(1228,82,o),
(1208,56,q),
(1164,0,o),
(1076,0,q),
(201,0,l),
(172,14,o),
(158.5,47,q),
(145,80,o),
(145,104,q),
(145,148,o),
(162,163,q),
(490,371,o),
(707,634,q),
(932,905,o),
(932,1120,q),
(932,1231,o),
(867,1302,q),
(798,1377,o),
(680,1377,q),
(559,1377,o),
(480,1308,q),
(394,1233,o),
(394,1096,q),
(394,1078,o),
(396,1060,q),
(348,1034,o),
(314,1034,q),
(280,1034,o),
(256.5,1044,q),
(233,1054,o),
(215,1075,q),
(175,1122,o),
(175,1200,q),
(175,1278,o),
(208.5,1338,q),
(242,1398,o),
(308,1444,q),
(449,1542,o),
(695,1542,q),
(925,1542,o),
(1055,1429.5,q),
(1185,1317,o),
(1185,1125,q),
(1185,812,o),
(740,410,q),
(610,292,o),
(466,185,q)
);
}
);
width = 1406;
}
);
unicode = 50;
},
{
category = Letter;
glyphname = three;
layers = (
{
layerId = "3ab791a5-0594-4336-bd7a-6e9e95a35031";
name = Fore;
shapes = (
{
closed = 1;
nodes = (
(1217,924,o),
(923,795,q),
(1080,766,o),
(1178,669,q),
(1283,565,o),
(1283,419,q),
(1283,233,o),
(1124,110,q),
(959,-19,o),
(698,-19,q),
(463,-19,o),
(315,62,q),
(165,143,o),
(165,273,q),
(165,367,o),
(232,418,q),
(272,450,o),
(302,450,q),
(332,450,o),
(372,440,q),
(372,212,o),
(589,158,q),
(641,145,o),
(714.5,145,q),
(788,145,o),
(848.5,166.5,q),
(909,188,o),
(950,227,q),
(1035,306,o),
(1035,437,q),
(1035,543,o),
(948,620,q),
(845,710,o),
(660,710,q),
(630,710,o),
(572,705,q),
(539,705,o),
(523,781,q),
(519,800,o),
(519,823,q),
(519,846,o),
(534,846,q),
(746,850,o),
(866,943,q),
(975,1027,o),
(975,1148,q),
(975,1248,o),
(902,1312,q),
(830,1377,o),
(728,1377,q),
(626,1377,o),
(570,1358.5,q),
(514,1340,o),
(482,1306,q),
(426,1243,o),
(430,1115,q),
(396,1091,o),
(364,1091,q),
(332,1091,o),
(307,1101,q),
(282,1111,o),
(263,1132,q),
(221,1178,o),
(221,1243.5,q),
(221,1309,o),
(255,1359,q),
(289,1409,o),
(354,1450,q),
(504,1542,o),
(729,1542,q),
(937,1542,o),
(1072,1450,q),
(1217,1351,o),
(1217,1186,q)
);
}
);
width = 1452;
}
);
unicode = 51;
},
{
category = Letter;
glyphname = four;
layers = (
{
layerId = "3ab791a5-0594-4336-bd7a-6e9e95a35031";
name = Fore;
shapes = (
{
closed = 1;
nodes = (
(960,-32,o),
(921,-32,q),
(882,-32,o),
(861,-18,q),
(861,349,l),
(175,349,l),
(131,349,o),
(92,417,q),
(54,483,o),
(73,511,q),
(216,722,o),
(280,828,q),
(402,1034,l),
(600,1385,o),
(652,1585,q),
(778,1585,o),
(844,1542,q),
(895,1509,o),
(872,1426,q),
(839,1301,o),
(677,1046,q),
(545,847,o),
(484,766,q),
(375,625,l),
(327,565,o),
(287,520,q),
(861,520,l),
(861,855,l),
(861,897,o),
(928,935,q),
(991,970,o),
(1041.5,970,q),
(1092,970,o),
(1092,940,q),
(1092,520,l),
(1355,520,l),
(1374,520,o),
(1374,493.5,q),
(1374,467,o),
(1368,443.5,q),
(1362,420,o),
(1352,399,q),
(1326,349,o),
(1299,349,q),
(1092,349,l),
(1092,21,l),
(1092,-11,o),
(988,-28,q)
);
}
);
width = 1484;
}
);
unicode = 52;
},
{
category = Letter;
glyphname = five;
layers = (
{
layerId = "3ab791a5-0594-4336-bd7a-6e9e95a35031";
name = Fore;
shapes = (
{
closed = 1;
nodes = (
(612,973,o),
(756.5,973,q),
(901,973,o),
(998,941.5,q),
(1095,910,o),
(1162,852,q),
(1302,731,o),
(1302,520,q),
(1302,288,o),
(1122,134,q),
(942,-19,o),
(667,-19,q),
(451,-19,o),
(312,65,q),
(173,149,o),
(173,280,q),
(173,386,o),
(240,436,q),
(284,469,o),
(323,462.5,q),
(362,456,o),
(370,448,q),
(374,251,o),
(537,175,q),
(601,145,o),
(682.5,145,q),
(764,145,o),
(827.5,165,q),
(891,185,o),
(941,226,q),
(1054,317,o),
(1054,467,q),
(1054,626,o),
(948,724,q),
(848,815,o),
(700,815,q),
(530,815,o),
(386,740,q),
(341,716,l),
(312,723,o),
(292,742,q),
(255,778,o),
(260,812,q),
(320,1439,l),
(320,1473,o),
(348,1496,q),
(398,1540,o),
(459,1535,q),
(597,1524,o),
(682,1524,q),
(767,1524,o),
(821,1526,q),
(875,1528,o),
(933,1532,q),
(1054,1540,l),
(1117,1545,o),
(1191,1551,q),
(1218,1524,o),
(1218,1461,q),
(1218,1373,o),
(1173,1342,q),
(1130,1314,o),
(1037,1314,q),
(944,1314,o),
(879.5,1320,q),
(815,1326,o),
(749.5,1334.5,q),
(684,1343,o),
(622,1353,q),
(511,1371,l),
(467,924,l)
);
}
);
width = 1478;
}
);
unicode = 53;
},
{
category = Letter;
glyphname = six;
layers = (
{
layerId = "3ab791a5-0594-4336-bd7a-6e9e95a35031";
name = Fore;
shapes = (
{
closed = 1;
nodes = (
(1029,1397,o),
(801,1397,q),
(658,1397,o),
(548,1256,q),
(420,1091,o),
(398,792,q),
(527,909,o),
(706,952,q),
(774,969,o),
(862,969,q),
(950,969,o),
(1034,938.5,q),
(1118,908,o),
(1180,850,q),
(1312,728,o),
(1312,521,q),
(1312,292,o),
(1144,136,q),
(978,-19,o),
(740,-19,q),
(512,-19,o),
(348,138,q),
(151,326,o),
(159,693,q),
(165,1003,o),
(290,1216,q),
(393,1393,o),
(568,1486,q),
(712,1562,o),
(858,1562,q),
(1026,1562,o),
(1128,1500,q),
(1234,1435,o),
(1234,1319,q),
(1234,1255,o),
(1206,1223,q),
(1157,1166,o),
(1102.5,1166,q),
(1048,1166,o),
(1029,1177,q)
);
},
{
closed = 1;
nodes = (
(406,373,o),
(530,246,q),
(627,146,o),
(772,146,q),
(988,146,o),
(1061,328,q),
(1086,390,o),
(1086,467.5,q),
(1086,545,o),
(1062,603,q),
(1038,661,o),
(996,702,q),
(906,790,o),
(766,790,q),
(592,790,o),
(460,688,q),
(395,637,l)
);
}
);
width = 1483;
}
);
unicode = 54;
},
{
category = Letter;
glyphname = seven;
layers = (
{
layerId = "3ab791a5-0594-4336-bd7a-6e9e95a35031";
name = Fore;
shapes = (
{
closed = 1;
nodes = (
(324,1524,o),
(671,1524,q),
(1018,1524,o),
(1115,1539,q),
(1173,1502,o),
(1184,1446,q),
(1187,1427,o),
(1180,1408,q),
(970,1144,o),
(815,740,q),
(657,328,o),
(639,0,q),
(613,-6,o),
(581,-6,q),
(518,-6,o),
(480.5,0.5,q),
(443,7,o),
(421,21.5,q),
(399,36,o),
(400,53,q),
(411,461,o),
(724,1012,q),
(842,1219,o),
(949,1346,q),
(678,1289,o),
(399,1289,q),
(185,1289,o),
(152,1334,q),
(124,1375,o),
(124,1443.5,q),
(124,1512,o),
(145,1541,q)
);
}
);
width = 1281;
}
);
unicode = 55;
},
{
category = Letter;
glyphname = eight;
layers = (
{
layerId = "3ab791a5-0594-4336-bd7a-6e9e95a35031";
name = Fore;
shapes = (
{
closed = 1;
nodes = (
(1244,945,o),
(992,798,q),
(1167,702,o),
(1215,645,q),
(1263,588,o),
(1280.5,533,q),
(1298,478,o),
(1298,404.5,q),
(1298,331,o),
(1266.5,256.5,q),
(1235,182,o),
(1168,120,q),
(1018,-19,o),
(747,-19,q),
(512,-19,o),
(358,84,q),
(184,199,o),
(184,412,q),
(184,585,o),
(370,736,q),
(421,778,o),
(474,808,q),
(255,946,o),
(255,1152,q),
(255,1345,o),
(416,1451,q),
(555,1542,o),
(755,1542,q),
(970,1542,o),
(1108,1436,q),
(1244,1332,o),
(1244,1174,q)
);
},
{
closed = 1;
nodes = (
(1025,1379,o),
(742,1379,q),
(540,1379,o),
(486,1265,q),
(470,1230,o),
(470,1179,q),
(470,1128,o),
(506,1083,q),
(542,1038,o),
(599,1000.5,q),
(656,963,o),
(726,930,q),
(866,864,l),
(1025,976,o),
(1025,1144,q)
);
},
{
closed = 1;
nodes = (
(413,352,o),
(446.5,291.5,q),
(480,231,o),
(532,197,q),
(622,138,o),
(769,138,q),
(915,138,o),
(998,203,q),
(1076,263,o),
(1076,360,q),
(1076,445,o),
(990,514,q),
(946,550,o),
(876,589,q),
(709,680,l),
(590,741,l),
(413,610,o),
(413,420,q)
);
}
);
width = 1483;
}
);
unicode = 56;
},
{
category = Letter;
glyphname = nine;
layers = (
{
layerId = "3ab791a5-0594-4336-bd7a-6e9e95a35031";
name = Fore;
shapes = (
{
closed = 1;
nodes = (
(931,554,o),
(688,554,q),
(462,554,o),
(327,675,q),
(188,799,o),
(188,1012,q),
(188,1240,o),
(346,1390,q),
(507,1542,o),
(770,1542,q),
(1005,1542,o),
(1156,1376,q),
(1328,1186,o),
(1322,807,q),
(1316,489,o),
(1202,285,q),
(1110,119,o),
(953,41,q),
(833,-19,o),
(717,-19,q),
(601,-19,o),
(521,-3.5,q),
(441,12,o),
(386,43,q),
(271,107,o),
(271,223,q),
(271,286,o),
(308.5,326.5,q),
(346,367,o),
(401,367,q),
(456,367,o),
(475,356,q),
(475,200,o),
(590,154,q),
(630,138,o),
(668.5,138,q),
(707,138,o),
(752,142.5,q),
(797,147,o),
(857,173,q),
(917,199,o),
(964,260,q),
(1069,394,o),
(1080,692,q)
);
},
{
closed = 1;
nodes = (
(794,725,o),
(847.5,734.5,q),
(901,744,o),
(943,760,q),
(1010,787,o),
(1081,843,q),
(1067,1273,o),
(876,1352,q),
(817,1376,o),
(746.5,1376,q),
(676,1376,o),
(614.5,1357,q),
(553,1338,o),
(507,1299,q),
(409,1216,o),
(409,1058,q),
(409,913,o),
(500,818,q),
(589,725,o),
(726,725,q)
);
}
);
width = 1483;
}
);
unicode = 57;
},
{
category = Letter;
glyphname = less;
layers = (
{
layerId = "3ab791a5-0594-4336-bd7a-6e9e95a35031";
name = Fore;
shapes = (
{
closed = 1;
nodes = (
(1185,1335,o),
(1185,1190,q),
(1185,1154,o),
(1137,1126,q),
(440,749,l),
(1129,355,l),
(1186,324,o),
(1186,272,q),
(1186,220,o),
(1168.5,185.5,q),
(1151,151,o),
(1127,151,q),
(1103,151,o),
(1084,162,q),
(279,608,l),
(210,649,o),
(210,740,q),
(210,785,o),
(229.5,826.5,q),
(249,868,o),
(279,886,q),
(1084,1320,l),
(1111,1335,o),
(1128,1335,q)
);
}
);
width = 1398;
}
);
unicode = 60;
},
{
category = Letter;
glyphname = equal;
layers = (
{
layerId = "3ab791a5-0594-4336-bd7a-6e9e95a35031";
name = Fore;
shapes = (
{
closed = 1;
nodes = (
(978,1026,o),
(978,992,q),
(978,958,o),
(974.5,937.5,q),
(971,917,o),
(964,900,q),
(946,863,o),
(919,863,q),
(151,863,l),
(140,893,o),
(140,922.5,q),
(140,952,o),
(143.5,973,q),
(147,994,o),
(154,1010,q),
(172,1048,o),
(196,1048,q),
(965,1048,l)
);
},
{
closed = 1;
nodes = (
(978,630,o),
(978,596,q),
(978,562,o),
(974.5,541.5,q),
(971,521,o),
(964,504,q),
(947,468,o),
(919,468,q),
(151,468,l),
(140,498,o),
(140,527.5,q),
(140,557,o),
(143.5,578,q),
(147,599,o),
(154,616,q),
(171,652,o),
(196,652,q),
(965,652,l)
);
}
);
width = 1118;
}
);
unicode = 61;
},
{
category = Letter;
glyphname = question;
layers = (
{
layerId = "3ab791a5-0594-4336-bd7a-6e9e95a35031";
name = Fore;
shapes = (
{
closed = 1;
nodes = (
(689,506,l),
(683,489,o),
(651,477,q),
(619,465,o),
(610,464.5,q),
(601,464,o),
(593.5,464,q),
(586,464,o),
(577,466,q),
(557,471,o),
(545,488,q),
(519,531,o),
(498.5,576,q),
(478,621,o),
(478,675.5,q),
(478,730,o),
(499,769,q),
(520,808,o),
(554,839,q),
(588,870,o),
(632,896,q),
(721,947,l),
(838,1013,o),
(880,1060,q),
(964,1154,o),
(964,1274,q),
(964,1400,o),
(877,1487,q),
(788,1576,o),
(652,1576,q),
(399,1576,o),
(358,1378,q),
(341,1299,o),
(341,1274,q),
(341,1241,l),
(341,1211,o),
(344,1199,q),
(292,1173,o),
(253,1173,q),
(214,1173,o),
(189.5,1187,q),
(165,1201,o),
(148,1224,q),
(113,1271,o),
(113,1334.5,q),
(113,1398,o),
(137,1449.5,q),
(161,1501,o),
(202.5,1543.5,q),
(244,1586,o),
(299.5,1619,q),
(355,1652,o),
(417,1674,q),
(545,1721,o),
(664.5,1721,q),
(784,1721,o),
(879.5,1700,q),
(975,1679,o),
(1046,1628,q),
(1197,1520,o),
(1197,1281,q),
(1197,1072,o),
(1012,932,q),
(961,894,o),
(912,864,q),
(822,810,l),
(751,768,o),
(730.5,733.5,q),
(710,699,o),
(702,672,q),
(688,623,o),
(688,542,q)
);
},
{
closed = 1;
nodes = (
(466,218,o),
(513,266,q),
(559,314,o),
(630,314,q),
(744,314,o),
(787,214,q),
(800,183,o),
(800,147,q),
(800,77,o),
(752,28,q),
(704,-19,o),
(630,-19,q),
(559,-19,o),
(513,28,q),
(466,77,o),
(466,147,q)
);
}
);
width = 1268;
}
);
unicode = 63;
},
{
category = Letter;
glyphname = at;
layers = (
{
layerId = "3ab791a5-0594-4336-bd7a-6e9e95a35031";
name = Fore;
shapes = (
{
closed = 1;
nodes = (
(1708,-222,l),
(1721,-222,o),
(1732,-240.5,q),
(1743,-259,o),
(1743,-283.5,q),
(1743,-308,o),
(1732,-326.5,q),
(1721,-345,o),
(1686,-373.5,q),
(1651,-402,o),
(1581,-430,q),
(1411,-498,o),
(1160.5,-498,q),
(910,-498,o),
(731,-437.5,q),
(552,-377,o),
(425,-260,q),
(160,-14,o),
(160,430,q),
(160,1009,o),
(584,1362,q),
(855,1587,o),
(1212,1649,q),
(1321,1668,o),
(1457,1668,q),
(1593,1668,o),
(1722.5,1634.5,q),
(1852,1601,o),
(1948,1542.5,q),
(2044,1484,o),
(2109.5,1405.5,q),
(2175,1327,o),
(2215,1236,q),
(2290,1067,o),
(2290,871.5,q),
(2290,676,o),
(2246.5,541.5,q),
(2203,407,o),
(2133.5,310.5,q),
(2064,214,o),
(1977.5,152.5,q),
(1891,91,o),
(1805,55,q),
(1652,-9,o),
(1518,-9,q),
(1397,-9,o),
(1363,114,q),
(1353,150,o),
(1353,192,q),
(1187,-10,o),
(1018,-10,q),
(890,-10,o),
(800,100,q),
(696,230,o),
(696,464,q),
(696,662,o),
(790,838,q),
(881,1010,o),
(1031,1112,q),
(1187,1219,o),
(1362,1219,q),
(1472,1219,o),
(1564,1168,q),
(1623,1218,o),
(1677.5,1217,q),
(1732,1216,o),
(1752.5,1192,q),
(1773,1168,o),
(1778,1133,q),
(1706,1103,o),
(1680,950,q),
(1671,901,o),
(1663.5,842.5,q),
(1656,784,o),
(1644,708,q),
(1620,554,l),
(1580,308,o),
(1580,231,q),
(1580,154,o),
(1611,154,q),
(1765,154,o),
(1886,266,q),
(2048,416,o),
(2096,688,q),
(2111,768,o),
(2111,844,q),
(2111,1174,o),
(1913,1353,q),
(1722,1526,o),
(1385,1526,q),
(1101,1526,o),
(862,1386,q),
(626,1248,o),
(489,1010,q),
(346,760,o),
(346,459,q),
(346,74,o),
(557,-136,q),
(775,-352,o),
(1182,-352,q),
(1471,-352,o),
(1634,-261,q),
(1704,-223,l)
);
},
{
closed = 1;
nodes = (
(1425,1057,o),
(1320,1057,q),
(1120,1057,o),
(1010,864,q),
(915,700,o),
(915,488,q),
(915,182,o),
(1120,182,q),
(1219,182,o),
(1326,306,q),
(1355,339,o),
(1377,372,q),
(1477,988,l)
);
}
);
width = 2433;
}
);
unicode = 64;
},
{
category = Letter;
glyphname = A;
layers = (
{
layerId = "3ab791a5-0594-4336-bd7a-6e9e95a35031";
name = Fore;
shapes = (
{
closed = 1;
nodes = (
(1102,111,o),
(1123,111,q),
(1144,111,o),
(1164.5,115.5,q),
(1185,120,o),
(1201,130,q),
(1237,152,o),
(1237,199,q),
(1237,238,o),
(1213,286,q),
(1119,519,l),
(486,519,l),
(374,235,l),
(358,196,o),
(358,178.5,q),
(358,161,o),
(363.5,152.5,q),
(369,144,o),
(380.5,138,q),
(392,132,o),
(409,128,q),
(450,117,l),
(516,106,o),
(535,97,q),
(574,78,o),
(574,41,q),
(574,14,o),
(559,-5,q),
(540,0,o),
(524,0,q),
(117,0,l),
(-16,0,o),
(-16,73,q),
(-16,107,o),
(-1,128,q),
(36,118,o),
(61.5,118,q),
(87,118,o),
(104.5,126,q),
(122,134,o),
(138,153,q),
(165,186,o),
(201,285,q),
(695,1481,l),
(716,1529,o),
(814,1547,q),
(841,1552,o),
(871,1552,q),
(932,1552,o),
(946,1519,q),
(1046,1269,l),
(1335,587,o),
(1380,473,q),
(1470,237,l),
(1497,160,o),
(1515,142,q),
(1533,124,o),
(1554,117,q),
(1575,110,o),
(1597.5,105.5,q),
(1620,101,o),
(1637,94,q),
(1675,77,o),
(1675,42,q),
(1675,15,o),
(1660,-4,q),
(1641,1,o),
(1626,1,q),
(1149,1,l),
(1098,1,o),
(1069.5,13.5,q),
(1041,26,o),
(1041,52,q),
(1041,97,o),
(1060,118,q)
);
},
{
closed = 1;
nodes = (
(799,1309,l),
(542,661,l),
(1061,661,l)
);
}
);
width = 1658;
}
);
unicode = 65;
},
{
category = Letter;
glyphname = B;
layers = (
{
layerId = "3ab791a5-0594-4336-bd7a-6e9e95a35031";
name = Fore;
shapes = (
{
closed = 1;
nodes = (
(454,1,l),
(201,1,l),
(149,1,o),
(114,18.5,q),
(79,36,o),
(79,62,q),
(79,110,o),
(94,129,q),
(128,119,o),
(166,119,q),
(204,119,o),
(228.5,124,q),
(253,129,o),
(272,145,q),
(316,181,o),
(316,270,q),
(316,1289,l),
(316,1382,o),
(203,1405,q),
(131,1420,o),
(110.5,1437.5,q),
(90,1455,o),
(90,1476,q),
(90,1522,o),
(106,1538,q),
(124,1533,o),
(140,1533,q),
(140,1533,o),
(437,1533,q),
(483,1533,o),
(561.5,1538,q),
(640,1543,o),
(780.5,1543,q),
(921,1543,o),
(1032.5,1517,q),
(1144,1491,o),
(1216,1444,q),
(1354,1353,o),
(1354,1188,q),
(1354,1000,o),
(1196,884,q),
(1137,841,o),
(1045,810,q),
(1340,786,o),
(1424,584,q),
(1450,519,o),
(1450,429.5,q),
(1450,340,o),
(1409,256.5,q),
(1368,173,o),
(1285,114,q),
(1113,-10,o),
(786,-10,q)
);
},
{
closed = 1;
nodes = (
(700,849,l),
(745,849,o),
(807.5,849,q),
(870,849,o),
(930,871.5,q),
(990,894,o),
(1030,932,q),
(1112,1010,o),
(1112,1132,q),
(1112,1271,o),
(1044,1336,q),
(964,1415,o),
(767,1415,q),
(633,1415,o),
(600.5,1390,q),
(568,1365,o),
(558.5,1331.5,q),
(549,1298,o),
(549,1244,q),
(549,850,l)
);
},
{
closed = 1;
nodes = (
(627,717,o),
(549,715,q),
(549,241,l),
(549,140,o),
(681,128,q),
(722,125,o),
(795,125,q),
(868,125,o),
(948,140,q),
(1028,155,o),
(1086,191,q),
(1207,267,o),
(1207,432,q),
(1207,717,o),
(790,717,q)
);
}
);
width = 1540;
}
);
unicode = 66;
},
{
category = Letter;
glyphname = C;
layers = (
{
layerId = "3ab791a5-0594-4336-bd7a-6e9e95a35031";
name = Fore;
shapes = (
{
closed = 1;
nodes = (
(1142,1128,o),
(1142,1182,q),
(1142,1236,o),
(1121,1280.5,q),
(1100,1325,o),
(1064,1350,q),
(1001,1393,o),
(874.5,1393,q),
(748,1393,o),
(651.5,1347.5,q),
(555,1302,o),
(490,1220,q),
(359,1055,o),
(359,771,q),
(359,502,o),
(492,342,q),
(630,175,o),
(865,175,q),
(1096,175,o),
(1225,276,q),
(1264,306,o),
(1296,341,q),
(1326,332,o),
(1345,288,q),
(1351,273,o),
(1351,248.5,q),
(1351,224,o),
(1315.5,176.5,q),
(1280,129,o),
(1212,85,q),
(1050,-21,o),
(824,-21,q),
(500,-21,o),
(308,176,q),
(118,369,o),
(118,693,q),
(118,891,o),
(181,1050,q),
(244,1209,o),
(353,1320.5,q),
(462,1432,o),
(607.5,1492,q),
(753,1552,o),
(890.5,1552,q),
(1028,1552,o),
(1111,1529,q),
(1194,1506,o),
(1249,1466,q),
(1359,1384,o),
(1359,1248,q),
(1359,1144,o),
(1282,1101,q),
(1256,1086,o),
(1226,1086,q),
(1164,1086,o),
(1138,1100,q)
);
}
);
width = 1457;
}
);
unicode = 67;
},
{
category = Letter;
glyphname = D;
layers = (
{
layerId = "3ab791a5-0594-4336-bd7a-6e9e95a35031";
name = Fore;
shapes = (
{
closed = 1;
nodes = (
(454,1,l),
(196,1,l),
(144,1,o),
(109,18.5,q),
(74,36,o),
(74,62,q),
(74,110,o),
(89,129,q),
(125,119,o),
(162,119,q),
(199,119,o),
(224.5,124,q),
(250,129,o),
(270,145,q),
(316,181,o),
(316,270,q),
(316,1289,l),
(316,1382,o),
(200,1405,q),
(128,1420,o),
(106.5,1437.5,q),
(85,1455,o),
(85,1476,q),
(85,1522,o),
(101,1538,q),
(119,1533,o),
(134,1533,q),
(134,1533,o),
(437,1533,q),
(460,1533,o),
(498,1535,q),
(498,1535,o),
(583,1540,q),
(708,1546,o),
(839.5,1546,q),
(971,1546,o),
(1095,1514.5,q),
(1219,1483,o),
(1309.5,1429,q),
(1400,1375,o),
(1460.5,1303.5,q),
(1521,1232,o),
(1558,1152,q),
(1624,1005,o),
(1624,822,q),
(1624,490,o),
(1452,270,q),
(1317,97,o),
(1055,26,q),
(919,-10,o),
(739,-10,q)
);
},
{
closed = 1;
nodes = (
(552,166,o),
(599,144,q),
(639,126,o),
(790.5,126,q),
(942,126,o),
(1060,176,q),
(1178,226,o),
(1248,311,q),
(1374,464,o),
(1374,742,q),
(1374,1219,o),
(1037,1365,q),
(915,1418,o),
(736,1418,q),
(617,1418,o),
(591,1394.5,q),
(565,1371,o),
(558.5,1336.5,q),
(552,1302,o),
(552,1244,q),
(552,241,l)
);
}
);
width = 1725;
}
);
unicode = 68;
},
{
category = Letter;
glyphname = E;
layers = (
{
layerId = "3ab791a5-0594-4336-bd7a-6e9e95a35031";
name = Fore;
shapes = (
{
closed = 1;
nodes = (
(1236,468,o),
(1266,468,q),
(1312,468,o),
(1319,455,q),
(1358,377,o),
(1358,197,q),
(1358,72,o),
(1330,16,q),
(1321,0,o),
(1311,0,q),
(207,0,l),
(88,0,o),
(88,71,q),
(88,109,o),
(104,129,q),
(138,119,o),
(170,119,q),
(202,119,o),
(225,124,q),
(248,129,o),
(268,145,q),
(316,182,o),
(316,270,q),
(316,1283,l),
(316,1370,o),
(246,1394,q),
(226,1401,o),
(204.5,1406.5,q),
(183,1412,o),
(163.5,1417.5,q),
(144,1423,o),
(129,1430,q),
(95,1448,o),
(95,1479,q),
(95,1520,o),
(111,1538,q),
(129,1533,o),
(147,1533,q),
(1170,1533,l),
(1262,1533,o),
(1285,1516,q),
(1327,1486,o),
(1327,1384,q),
(1327,1286,o),
(1310.5,1224,q),
(1294,1162,o),
(1287,1150,q),
(1277,1132,o),
(1248,1132,q),
(1206,1132,o),
(1190.5,1142.5,q),
(1175,1153,o),
(1174,1158,q),
(1161,1301,o),
(1129,1340.5,q),
(1097,1380,o),
(1053.5,1394.5,q),
(1010,1409,o),
(940,1409,q),
(717,1409,l),
(611,1409,o),
(587.5,1388,q),
(564,1367,o),
(558,1339.5,q),
(552,1312,o),
(552,1269,q),
(552,843,l),
(611,842,l),
(832,842,o),
(1021,881,q),
(1035,874,o),
(1046,841.5,q),
(1057,809,o),
(1057,777,q),
(1057,723,o),
(1039,683,q),
(973,677,o),
(887,677,q),
(801,677,o),
(552,705,q),
(552,254,l),
(552,179,o),
(592,153,q),
(626,131,o),
(714,131,q),
(865,135,l),
(1084,143,o),
(1150,196,q),
(1187,226,o),
(1199,275,q),
(1211,324,o),
(1211,373.5,q),
(1211,423,o),
(1209,445,q)
);
}
);
width = 1443;
}
);
unicode = 69;
},
{
category = Letter;
glyphname = F;
layers = (
{
layerId = "3ab791a5-0594-4336-bd7a-6e9e95a35031";
name = Fore;
shapes = (
{
closed = 1;
nodes = (
(831,0,o),
(756,0,q),
(203,0,l),
(151,0,o),
(119.5,16.5,q),
(88,33,o),
(88,77,q),
(88,108,o),
(104,128,q),
(140,118,o),
(175.5,118,q),
(211,118,o),
(234,125.5,q),
(257,133,o),
(275,152,q),
(316,195,o),
(316,285,q),
(316,1283,l),
(316,1370,o),
(246,1394,q),
(226,1401,o),
(204.5,1406.5,q),
(183,1412,o),
(163.5,1417.5,q),
(144,1423,o),
(129,1430,q),
(95,1448,o),
(95,1479,q),
(95,1520,o),
(111,1538,q),
(128,1533,o),
(146,1533,q),
(1158,1533,l),
(1248,1533,o),
(1269,1516,q),
(1306,1488,o),
(1306,1384,q),
(1306,1284,o),
(1290,1224.5,q),
(1274,1165,o),
(1266,1152,q),
(1253,1130,o),
(1228,1130,q),
(1187,1130,o),
(1169.5,1144,q),
(1152,1158,o),
(1152,1164,q),
(1142,1306,o),
(1100,1355,q),
(1055,1409,o),
(919,1409,q),
(727,1409,l),
(620,1409,o),
(593.5,1390.5,q),
(567,1372,o),
(560,1347.5,q),
(553,1323,o),
(552,1285,q),
(552,824,l),
(599,824,l),
(840,824,o),
(1021,862,q),
(1057,847,o),
(1057,754,q),
(1057,706,o),
(1039,664,q),
(974,658,o),
(899,658,q),
(824,658,o),
(737,667,q),
(552,687,l),
(552,236,l),
(552,150,o),
(687,134,q),
(799,120,o),
(826.5,106.5,q),
(854,93,o),
(862,80.5,q),
(870,68,o),
(870,50,q),
(870,13,o),
(855,-8,q)
);
}
);
width = 1314;
}
);
unicode = 70;
},
{
category = Letter;
glyphname = G;
layers = (
{
layerId = "3ab791a5-0594-4336-bd7a-6e9e95a35031";
name = Fore;
shapes = (
{
closed = 1;
nodes = (
(1580,694,o),
(1580,669,q),
(1580,644,o),
(1572.5,634,q),
(1565,624,o),
(1553,619,q),
(1541,614,o),
(1525,611,q),
(1509,608,o),
(1486,595,q),
(1442,570,o),
(1442,463,q),
(1442,230,l),
(1429,203,o),
(1387,160,q),
(1345,117,o),
(1273,77,q),
(1097,-21,o),
(886.5,-21,q),
(676,-21,o),
(538,34,q),
(400,89,o),
(307,187,q),
(120,384,o),
(120,712,q),
(120,914,o),
(184.5,1071,q),
(249,1228,o),
(359,1334,q),
(584,1552,o),
(923,1552,q),
(1194,1552,o),
(1328,1454,q),
(1434,1376,o),
(1434,1257,q),
(1434,1183,o),
(1391,1138,q),
(1350,1095,o),
(1284,1095,q),
(1226,1095,o),
(1202,1110,q),
(1207,1142,o),
(1207,1189,q),
(1207,1236,o),
(1186.5,1280.5,q),
(1166,1325,o),
(1126,1351,q),
(1057,1397,o),
(918,1397,q),
(779,1397,o),
(680.5,1361,q),
(582,1325,o),
(514,1250,q),
(373,1096,o),
(373,796,q),
(373,137,o),
(935,137,q),
(1068,137,o),
(1164,178,q),
(1195,191,o),
(1212,207,q),
(1211,493,l),
(1211,565,o),
(1117,592,q),
(1094,598,o),
(1070,603,q),
(1046,608,o),
(1022.5,613.5,q),
(999,619,o),
(983,628,q),
(951,644,o),
(951,681.5,q),
(951,719,o),
(966,736,q),
(989,728,o),
(1065,728,q),
(1568,728,l)
);
}
);
width = 1644;
}
);
unicode = 71;
},
{
category = Letter;
glyphname = H;
layers = (
{
layerId = "3ab791a5-0594-4336-bd7a-6e9e95a35031";
name = Fore;
shapes = (
{
closed = 1;
nodes = (
(709,0,o),
(633,0,q),
(216,0,l),
(164,0,o),
(133,16.5,q),
(102,33,o),
(102,77,q),
(102,109,o),
(117,128,q),
(157,118,o),
(191,118,q),
(225,118,o),
(245,125.5,q),
(265,133,o),
(280,152,q),
(310,192,o),
(310,285,q),
(310,1308,l),
(307,1378,o),
(264,1397,q),
(251,1403,o),
(228,1408,q),
(180,1418,l),
(131,1430,o),
(120,1447.5,q),
(109,1465,o),
(109,1483,q),
(109,1520,o),
(124,1541,q),
(147,1533,o),
(223,1533,q),
(630,1533,l),
(682,1533,o),
(713.5,1516.5,q),
(745,1500,o),
(745,1456,q),
(745,1423,o),
(729,1405,q),
(691,1415,o),
(646,1415,q),
(549,1415,o),
(546,1257,q),
(546,815,l),
(1346,815,l),
(1346,1308,l),
(1343,1378,o),
(1300,1397,q),
(1287,1403,o),
(1264,1408,q),
(1216,1418,l),
(1167,1430,o),
(1156,1447.5,q),
(1145,1465,o),
(1145,1483,q),
(1145,1523,o),
(1160,1541,q),
(1183,1533,o),
(1259,1533,q),
(1666,1533,l),
(1718,1533,o),
(1749.5,1516.5,q),
(1781,1500,o),
(1781,1456,q),
(1781,1423,o),
(1765,1405,q),
(1727,1415,o),
(1682,1415,q),
(1585,1415,o),
(1582,1257,q),
(1582,236,l),
(1582,180,o),
(1599,162,q),
(1624,135,o),
(1661,127.5,q),
(1698,120,o),
(1722,114.5,q),
(1746,109,o),
(1762,101,q),
(1794,85,o),
(1794,47,q),
(1794,12,o),
(1778,-8,q),
(1755,0,o),
(1679,0,q),
(1262,0,l),
(1210,0,o),
(1179,16.5,q),
(1148,33,o),
(1148,77,q),
(1148,109,o),
(1163,128,q),
(1201,118,o),
(1234,118,q),
(1267,118,o),
(1285,125,q),
(1303,132,o),
(1316,150,q),
(1344,187,o),
(1346,275,q),
(1346,677,l),
(546,677,l),
(546,236,l),
(546,157,o),
(590,136,q),
(604,130,o),
(628,125,q),
(652,120,o),
(675.5,114.5,q),
(699,109,o),
(715,101,q),
(748,84,o),
(748,47,q),
(748,12,o),
(732,-8,q)
);
}
);
width = 1892;
}
);
unicode = 72;
},
{
category = Letter;
glyphname = I;
layers = (
{
layerId = "3ab791a5-0594-4336-bd7a-6e9e95a35031";
name = Fore;
shapes = (
{
closed = 1;
nodes = (
(710,0,o),
(634,0,q),
(217,0,l),
(165,0,o),
(134,16.5,q),
(103,33,o),
(103,77,q),
(103,109,o),
(118,128,q),
(158,118,o),
(191.5,118,q),
(225,118,o),
(244.5,125,q),
(264,132,o),
(278,150,q),
(309,188,o),
(311,275,q),
(311,1297,l),
(311,1376,o),
(267,1396,q),
(253,1403,o),
(229,1408,q),
(205,1413,o),
(181.5,1418.5,q),
(158,1424,o),
(142,1432,q),
(110,1448,o),
(110,1486,q),
(110,1523,o),
(125,1541,q),
(148,1533,o),
(224,1533,q),
(631,1533,l),
(683,1533,o),
(714.5,1516.5,q),
(746,1500,o),
(746,1456,q),
(746,1423,o),
(730,1405,q),
(692,1415,o),
(647,1415,q),
(550,1415,o),
(547,1257,q),
(547,236,l),
(547,157,o),
(591,136,q),
(605,130,o),
(629,125,q),
(653,120,o),
(676.5,114.5,q),
(700,109,o),
(716,101,q),
(749,84,o),
(749,47,q),
(749,12,o),
(733,-8,q)
);
}
);
width = 858;
}
);
unicode = 73;
},
{
category = Letter;
glyphname = J;
layers = (
{
layerId = "3ab791a5-0594-4336-bd7a-6e9e95a35031";
name = Fore;
shapes = (
{
closed = 1;
nodes = (
(901,1415,o),
(901,1243,q),
(901,440,l),
(901,112,o),
(644,14,q),
(556,-19,o),
(445,-19,q),
(334,-19,o),
(256,5,q),
(178,29,o),
(124,69,q),
(15,151,o),
(15,268,q),
(15,356,o),
(56,407.5,q),
(97,459,o),
(169,459,q),
(229,459,o),
(249,431,q),
(237,383,o),
(237,338,q),
(237,133,o),
(449,133,q),
(553,133,o),
(609,193.5,q),
(665,254,o),
(665,365,q),
(665,1298,l),
(663,1351,o),
(645,1368,q),
(617,1393,o),
(579,1400.5,q),
(541,1408,o),
(515.5,1414,q),
(490,1420,o),
(472,1429,q),
(438,1447,o),
(438,1486,q),
(438,1523,o),
(454,1541,q),
(477,1533,o),
(553,1533,q),
(986,1533,l),
(1100,1533,o),
(1100,1456,q),
(1100,1423,o),
(1084,1405,q),
(1048,1415,o),
(1001,1415,q)
);
}
);
width = 1139;
}
);
unicode = 74;
},
{
category = Letter;
glyphname = K;
layers = (
{
layerId = "3ab791a5-0594-4336-bd7a-6e9e95a35031";
name = Fore;
shapes = (
{
closed = 1;
nodes = (
(725,0,o),
(649,0,q),
(232,0,l),
(180,0,o),
(148.5,16.5,q),
(117,33,o),
(117,77,q),
(117,108,o),
(133,128,q),
(171,118,o),
(204,118,q),
(237,118,o),
(255,125,q),
(273,132,o),
(286,150,q),
(314,187,o),
(316,275,q),
(316,1308,l),
(313,1378,o),
(270,1397,q),
(257,1403,o),
(234,1408,q),
(186,1418,l),
(136,1430,o),
(125,1447.5,q),
(114,1465,o),
(114,1483,q),
(114,1521,o),
(130,1541,q),
(153,1533,o),
(229,1533,q),
(646,1533,l),
(698,1533,o),
(729,1516.5,q),
(760,1500,o),
(760,1456,q),
(760,1422,o),
(745,1405,q),
(707,1415,o),
(672.5,1415,q),
(638,1415,o),
(618.5,1407.5,q),
(599,1400,o),
(584,1382,q),
(554,1344,o),
(552,1257,q),
(552,224,l),
(554,175,o),
(571,158,q),
(596,135,o),
(632,127.5,q),
(668,120,o),
(691.5,114.5,q),
(715,109,o),
(731,101,q),
(763,85,o),
(763,47,q),
(763,10,o),
(748,-8,q)
);
},
{
closed = 1;
nodes = (
(1552,1416,o),
(1523,1416,q),
(1494,1416,o),
(1477,1405.5,q),
(1460,1395,o),
(1440,1376.5,q),
(1420,1358,o),
(1396,1332,q),
(868,785,l),
(1051,734,o),
(1185,539,q),
(1223,484,o),
(1256,430,q),
(1317,326,l),
(1416,155,o),
(1500,160,q),
(1541,160,o),
(1564.5,170,q),
(1588,180,o),
(1598,180,q),
(1608,180,o),
(1619.5,164.5,q),
(1631,149,o),
(1631,129,q),
(1631,109,o),
(1614,81.5,q),
(1597,54,o),
(1566,32,q),
(1496,-19,o),
(1411.5,-19,q),
(1327,-19,o),
(1276.5,3,q),
(1226,25,o),
(1184.5,72,q),
(1143,119,o),
(1108,178.5,q),
(1073,238,o),
(1041,299,q),
(978,420,l),
(867,631,o),
(736,673,q),
(716,679,o),
(700,676.5,q),
(684,674,o),
(663,671,q),
(651,675,o),
(645,699.5,q),
(639,724,o),
(639,739.5,q),
(639,755,o),
(651,766,q),
(1158,1328,l),
(1183,1355,o),
(1183,1372,q),
(1183,1408,o),
(1070,1423,q),
(1021,1429,o),
(1010.5,1444.5,q),
(1000,1460,o),
(1000,1480,q),
(1000,1518,o),
(1016,1538,q),
(1034,1533,o),
(1050,1533,q),
(1439,1533,l),
(1547,1533,o),
(1578,1504,q),
(1592,1491,o),
(1592,1472,q),
(1592,1426,o),
(1576,1408,q)
);
}
);
width = 1617;
}
);
unicode = 75;
},
{
category = Letter;
glyphname = L;
layers = (
{
layerId = "3ab791a5-0594-4336-bd7a-6e9e95a35031";
name = Fore;
shapes = (
{
closed = 1;
nodes = (
(1358,86,o),
(1298,0,q),
(207,0,l),
(128,0,o),
(98,40,q),
(88,54,o),
(88,71,q),
(88,109,o),
(104,129,q),
(138,119,o),
(193,119,q),
(316,119,o),
(316,270,q),
(316,1297,l),
(316,1366,o),
(258,1390,q),
(241,1398,o),
(216,1405,q),
(166,1418,l),
(118,1430,o),
(106.5,1447.5,q),
(95,1465,o),
(95,1483,q),
(95,1521,o),
(111,1541,q),
(134,1533,o),
(210,1533,q),
(646,1533,l),
(698,1533,o),
(729,1516.5,q),
(760,1500,o),
(760,1456,q),
(760,1422,o),
(745,1405,q),
(707,1415,o),
(672.5,1415,q),
(638,1415,o),
(618.5,1407.5,q),
(599,1400,o),
(584,1382,q),
(554,1344,o),
(552,1257,q),
(552,246,l),
(554,176,o),
(593,152,q),
(626,131,o),
(714,131,q),
(789,132,l),
(875,133,l),
(1093,133,o),
(1160,230,q),
(1193,278,o),
(1204.5,350.5,q),
(1216,423,o),
(1225,519,q),
(1241,529,o),
(1268,529,q),
(1319,529,o),
(1337,517,q),
(1358,435,o),
(1358,311,q)
);
}
);
width = 1434;
}
);
unicode = 76;
},
{
category = Letter;
glyphname = M;
layers = (
{
layerId = "3ab791a5-0594-4336-bd7a-6e9e95a35031";
name = Fore;
shapes = (
{
closed = 1;
nodes = (
(61,0,o),
(61,74,q),
(61,107,o),
(77,127,q),
(106,119,o),
(136,119,q),
(166,119,o),
(187,121,q),
(208,123,o),
(226,138,q),
(263,172,o),
(272,289,q),
(375,1351,l),
(377,1376,o),
(358,1390,q),
(339,1404,o),
(311,1410,q),
(283,1416,o),
(262.5,1420,q),
(242,1424,o),
(227,1432,q),
(196,1447,o),
(196,1483.5,q),
(196,1520,o),
(210,1538,q),
(229,1533,o),
(244,1533,q),
(540,1533,l),
(689,1533,o),
(723,1460,q),
(1095,587,l),
(1479,1465,l),
(1498,1509,o),
(1536,1521,q),
(1574,1533,o),
(1633,1533,q),
(1827,1533,l),
(1962,1533,o),
(1962,1462,q),
(1962,1424,o),
(1947,1407,q),
(1907,1418,o),
(1881.5,1418,q),
(1856,1418,o),
(1836,1414,q),
(1816,1410,o),
(1804,1399,q),
(1779,1378,o),
(1785,1315,q),
(1893,221,l),
(1900,151,o),
(1968,133,q),
(1987,128,o),
(2008,121,q),
(2047,108,l),
(2084,96,o),
(2092,76.5,q),
(2100,57,o),
(2100,39,q),
(2100,14,o),
(2085,-5,q),
(2062,0,o),
(2038,0,q),
(1582,0,l),
(1460,0,o),
(1460,73,q),
(1460,85,o),
(1467,103.5,q),
(1474,122,o),
(1478,127,q),
(1508,119,o),
(1533.5,119,q),
(1559,119,o),
(1586.5,123,q),
(1614,127,o),
(1633,142,q),
(1674,176,o),
(1668,271,q),
(1603,1129,l),
(1594,1296,l),
(1134,277,l),
(1121,269,o),
(1094,269,q),
(1067,269,o),
(1038.5,288.5,q),
(1010,308,o),
(987,337,q),
(950,384,o),
(916,457,q),
(544,1329,l),
(463,240,l),
(459,183,o),
(479,163,q),
(504,138,o),
(545,127,q),
(586,116,o),
(609,110.5,q),
(632,105,o),
(649,96,q),
(686,78,o),
(686,36,q),
(686,15,o),
(670,-5,q),
(652,0,o),
(636,0,q),
(195,0,l)
);
}
);
width = 2133;
}
);
unicode = 77;
},
{
category = Letter;
glyphname = N;
layers = (
{
layerId = "3ab791a5-0594-4336-bd7a-6e9e95a35031";
name = Fore;
shapes = (
{
closed = 1;
nodes = (
(81,0,o),
(81,77,q),
(81,112,o),
(97,126,q),
(126,118,o),
(157.5,118,q),
(189,118,o),
(212.5,126,q),
(236,134,o),
(254,149,q),
(290,180,o),
(290,236,q),
(290,1325,l),
(288,1365,o),
(273,1385,q),
(258,1405,o),
(228,1413.5,q),
(198,1422,o),
(178.5,1426,q),
(159,1430,o),
(143,1436,q),
(108,1451,o),
(108,1473,q),
(108,1519,o),
(123,1538,q),
(144,1533,o),
(187,1533,q),
(382,1533,l),
(470,1533,o),
(540,1444,q),
(1381,378,l),
(1381,1311,l),
(1380,1351,o),
(1364.5,1378,q),
(1349,1405,o),
(1312.5,1414,q),
(1276,1423,o),
(1248,1427.5,q),
(1220,1432,o),
(1198,1440,q),
(1151,1456,o),
(1151,1492,q),
(1151,1522,o),
(1167,1538,q),
(1188,1533,o),
(1231,1533,q),
(1634,1533,l),
(1768,1533,o),
(1768,1476,q),
(1768,1428,o),
(1753,1411,q),
(1728,1418,o),
(1695.5,1418,q),
(1663,1418,o),
(1639,1416.5,q),
(1615,1415,o),
(1596,1404,q),
(1554,1381,o),
(1552,1310,q),
(1552,28,l),
(1552,-1,o),
(1536,-7.5,q),
(1520,-14,o),
(1478,-14,q),
(1407,-14,o),
(1326,91,q),
(461,1179,l),
(461,222,l),
(466,136,o),
(542,116,q),
(571,110,o),
(599.5,106,q),
(628,102,o),
(650,96,q),
(701,83,o),
(701,50,q),
(701,14,o),
(686,-5,q),
(665,0,o),
(622,0,q),
(215,0,l)
);
}
);
width = 1795;
}
);
unicode = 78;
},
{
category = Letter;
glyphname = O;
layers = (
{
layerId = "3ab791a5-0594-4336-bd7a-6e9e95a35031";
name = Fore;
shapes = (
{
closed = 1;
nodes = (
(109,542,o),
(109,692.5,q),
(109,843,o),
(139,958,q),
(169,1073,o),
(222,1166.5,q),
(275,1260,o),
(348,1332,q),
(421,1404,o),
(507,1453,q),
(681,1552,o),
(884,1552,q),
(1192,1552,o),
(1386,1356,q),
(1589,1152,o),
(1589,819,q),
(1589,568,o),
(1476,368,q),
(1373,186,o),
(1192,82,q),
(1018,-19,o),
(841.5,-19,q),
(665,-19,o),
(535.5,32.5,q),
(406,84,o),
(311,178.5,q),
(216,273,o),
(162.5,407.5,q)
);
},
{
closed = 1;
nodes = (
(364,905,o),
(364,769.5,q),
(364,634,o),
(390,521.5,q),
(416,409,o),
(473,324,q),
(597,139,o),
(841,139,q),
(1087,139,o),
(1214,300,q),
(1336,457,o),
(1336,747,q),
(1336,1192,o),
(1072,1344,q),
(978,1397,o),
(849,1397,q),
(720,1397,o),
(629,1352,q),
(538,1307,o),
(479,1224,q),
(420,1141,o),
(392,1023,q)
);
}
);
width = 1697;
}
);
unicode = 79;
},
{
category = Letter;
glyphname = P;
layers = (
{
layerId = "3ab791a5-0594-4336-bd7a-6e9e95a35031";
name = Fore;
shapes = (
{
closed = 1;
nodes = (
(812,0,o),
(736,0,q),
(222,0,l),
(170,0,o),
(139,16.5,q),
(108,33,o),
(108,77,q),
(108,109,o),
(123,128,q),
(161,118,o),
(196,118,q),
(231,118,o),
(251,125.5,q),
(271,133,o),
(286,152,q),
(316,192,o),
(316,285,q),
(316,1289,l),
(316,1382,o),
(206,1405,q),
(137,1419,o),
(116,1437,q),
(95,1455,o),
(95,1476,q),
(95,1522,o),
(111,1538,q),
(129,1533,o),
(144,1533,q),
(392,1533,l),
(748,1543,l),
(1216,1543,o),
(1340,1288,q),
(1385,1196,o),
(1385,1104,q),
(1385,1012,o),
(1372,947,q),
(1359,882,o),
(1327.5,820.5,q),
(1296,759,o),
(1244,704.5,q),
(1192,650,o),
(1114,609,q),
(945,521,o),
(682,521,q),
(644,521,l),
(616,521,o),
(616,557,q),
(616,636,o),
(659,646,q),
(1035,638,o),
(1114,870,q),
(1138,943,o),
(1138,1026,q),
(1138,1109,o),
(1120,1178.5,q),
(1102,1248,o),
(1055,1302,q),
(951,1420,o),
(711,1420,q),
(614,1420,o),
(582,1378,q),
(552,1341,o),
(552,1228,q),
(552,229,l),
(557,151,o),
(676,134,q),
(783,119,o),
(809,106,q),
(835,93,o),
(843,80.5,q),
(851,68,o),
(851,50,q),
(851,12,o),
(835,-8,q)
);
}
);
width = 1434;
}
);
unicode = 80;
},
{
category = Letter;
glyphname = Q;
layers = (
{
layerId = "3ab791a5-0594-4336-bd7a-6e9e95a35031";
name = Fore;
shapes = (
{
closed = 1;
nodes = (
(356,-306,o),
(356,-220,q),
(356,-131,o),
(519,-85,q),
(955,35,o),
(1142,210,q),
(1346,402,o),
(1346,739,q),
(1346,921,o),
(1312.5,1025,q),
(1279,1129,o),
(1241.5,1191.5,q),
(1204,1254,o),
(1149,1300,q),
(1032,1396,o),
(853,1396,q),
(504,1396,o),
(402,1041,q),
(368,920,o),
(368,754,q),
(368,364,o),
(570,242,q),
(619,212,o),
(686,202,q),
(707,196,o),
(717,173,q),
(735,132,o),
(723,119,q),
(698,92,o),
(620.5,94.5,q),
(543,97,o),
(475,120,q),
(407,143,o),
(350,184,q),
(293,225,o),
(249,280,q),
(205,335,o),
(174,402,q),
(111,538,o),
(111,693,q),
(111,848,o),
(143.5,968.5,q),
(176,1089,o),
(232.5,1183.5,q),
(289,1278,o),
(365.5,1347.5,q),
(442,1417,o),
(530,1462,q),
(703,1552,o),
(875,1552,q),
(1047,1552,o),
(1174.5,1501.5,q),
(1302,1451,o),
(1396,1356,q),
(1600,1151,o),
(1600,814,q),
(1600,324,o),
(1236,68,q),
(1085,-37,o),
(877,-100,q),
(972,-138,l),
(1153,-208,o),
(1250,-208,q),
(1479,-208,o),
(1568,-96,q),
(1602,-94,o),
(1619,-118.5,q),
(1636,-143,o),
(1636,-183,q),
(1636,-223,o),
(1609,-268.5,q),
(1582,-314,o),
(1533,-348,q),
(1427,-423,o),
(1269,-423,q),
(1169,-423,o),
(1073,-386.5,q),
(977,-350,o),
(922,-324,q),
(814,-277,l),
(695,-226,o),
(642.5,-226,q),
(590,-226,o),
(560,-233,q),
(530,-240,o),
(509,-251,q),
(482,-265,o),
(444,-306,q)
);
}
);
width = 1711;
}
);
unicode = 81;
},
{
category = Letter;
glyphname = R;
layers = (
{
layerId = "3ab791a5-0594-4336-bd7a-6e9e95a35031";
name = Fore;
shapes = (
{
closed = 1;
nodes = (
(705,0,o),
(630,0,q),
(222,0,l),
(170,0,o),
(139,16.5,q),
(108,33,o),
(108,77,q),
(108,109,o),
(123,128,q),
(161,118,o),
(196,118,q),
(231,118,o),
(251,125.5,q),
(271,133,o),
(286,152,q),
(316,192,o),
(316,285,q),
(316,1308,l),
(313,1378,o),
(270,1397,q),
(257,1403,o),
(234.5,1408,q),
(212,1413,o),
(190.5,1418.5,q),
(169,1424,o),
(154,1432,q),
(124,1448,o),
(124,1474,q),
(124,1521,o),
(140,1541,q),
(163,1533,o),
(239,1533,q),
(369,1533,l),
(720,1543,l),
(763,1544,l),
(1071,1544,o),
(1224,1434.5,q),
(1377,1325,o),
(1377,1126,q),
(1377,977,o),
(1280,852,q),
(1172,713,o),
(982,664,q),
(1034,628,o),
(1100,532,q),
(1206,377,l),
(1355,160,o),
(1453,160,q),
(1490,160,o),
(1509,167,q),
(1534,177,l),
(1542,180,o),
(1552,180,q),
(1562,180,o),
(1573,164.5,q),
(1584,149,o),
(1584,129,q),
(1584,109,o),
(1567,81.5,q),
(1550,54,o),
(1519,32,q),
(1449,-19,o),
(1366,-19,q),
(1283,-19,o),
(1229.5,9,q),
(1176,37,o),
(1131.5,82.5,q),
(1087,128,o),
(1050.5,186,q),
(1014,244,o),
(982,305,q),
(923,424,l),
(860,554,o),
(822.5,591.5,q),
(785,629,o),
(754,629,q),
(653,629,l),
(628,629,o),
(628,665,q),
(628,715,o),
(666,743,q),
(679,752,o),
(744,753.5,q),
(809,755,o),
(890.5,781,q),
(972,807,o),
(1025,852,q),
(1128,941,o),
(1128,1102,q),
(1128,1237,o),
(1038,1323,q),
(936,1420,o),
(754,1422,q),
(634,1422,o),
(594,1386,q),
(554,1352,o),
(552,1257,q),
(552,236,l),
(552,157,o),
(596,136,q),
(610,130,o),
(633,125,q),
(656,120,o),
(677.5,114.5,q),
(699,109,o),
(714,101,q),
(744,85,o),
(744,58,q),
(744,12,o),
(728,-8,q)
);
}
);
width = 1585;
}
);
unicode = 82;
},
{
category = Letter;
glyphname = S;
layers = (
{
layerId = "3ab791a5-0594-4336-bd7a-6e9e95a35031";
name = Fore;
shapes = (
{
closed = 1;
nodes = (
(971,1340,o),
(808,1398,q),
(752,1418,o),
(677,1418,q),
(602,1418,o),
(548,1401,q),
(494,1384,o),
(458,1355,q),
(385,1296,o),
(385,1199,q),
(385,1052,o),
(601,948,q),
(726,889,l),
(817,847,o),
(901.5,803.5,q),
(986,760,o),
(1051,704,q),
(1194,582,o),
(1194,402,q),
(1194,209,o),
(1026,91,q),
(869,-19,o),
(632,-19,q),
(444,-19,o),
(300,40,q),
(194,82,o),
(149,159,q),
(126,198,o),
(126,254,q),
(126,366,o),
(182,463,q),
(201,486,o),
(234,486,q),
(298,486,o),
(308,448,q),
(321,275,o),
(414.5,196,q),
(508,117,o),
(676,117,q),
(869,117,o),
(935,243,q),
(958,287,o),
(958,346.5,q),
(958,406,o),
(926,453,q),
(894,500,o),
(841,540,q),
(760,600,o),
(626.5,656,q),
(493,712,o),
(418.5,754,q),
(344,796,o),
(287,852,q),
(163,974,o),
(163,1153,q),
(163,1336,o),
(320,1446,q),
(471,1552,o),
(710,1552,q),
(1013,1552,o),
(1106,1427,q),
(1140,1382,o),
(1140,1309,q),
(1140,1236,o),
(1126.5,1182,q),
(1113,1128,o),
(1100,1112,q),
(1078,1085,o),
(1024.5,1085,q),
(971,1085,o),
(971,1111,q)
);
}
);
width = 1322;
}
);
unicode = 83;
},
{
category = Letter;
glyphname = T;
layers = (
{
layerId = "3ab791a5-0594-4336-bd7a-6e9e95a35031";
name = Fore;
shapes = (
{
closed = 1;
nodes = (
(1140,0,o),
(1064,0,q),
(492,0,l),
(440,0,o),
(408.5,16.5,q),
(377,33,o),
(377,77,q),
(377,108,o),
(393,128,q),
(431,118,o),
(465,118,q),
(499,118,o),
(529,125,q),
(559,132,o),
(586,150,q),
(650,191,o),
(654,275,q),
(654,1387,l),
(524,1387,l),
(379,1387,o),
(334.5,1373.5,q),
(290,1360,o),
(267.5,1339,q),
(245,1318,o),
(231,1282,q),
(206,1220,o),
(192,1068,q),
(170,1063,o),
(152,1063,q),
(112,1063,o),
(101,1084,q),
(90,1105,o),
(86,1127.5,q),
(82,1150,o),
(80,1177,q),
(76,1231,o),
(76,1292,q),
(76,1459,o),
(102,1504,q),
(128,1552,o),
(206,1552,q),
(221,1552,o),
(250,1549,q),
(279,1546,o),
(334,1542,q),
(483,1533,o),
(691,1533,q),
(860,1533,l),
(1150,1533,o),
(1248,1542.5,q),
(1346,1552,o),
(1370,1552,q),
(1394,1552,o),
(1414,1545,q),
(1434,1538,o),
(1446,1525,q),
(1465,1503,o),
(1465,1470,q),
(1465,1420,o),
(1462,1390,q),
(1459,1360,o),
(1455.5,1319,q),
(1452,1278,o),
(1446,1234,q),
(1432,1130,o),
(1411,1091,q),
(1391,1063,o),
(1362.5,1063,q),
(1334,1063,o),
(1312,1068,q),
(1313,1131,l),
(1313,1220,o),
(1303,1271.5,q),
(1293,1323,o),
(1261,1348.5,q),
(1229,1374,o),
(1169,1380.5,q),
(1109,1387,o),
(1009,1387,q),
(889,1387,l),
(889,236,l),
(889,164,o),
(1004,136,q),
(1032,130,o),
(1057.5,125,q),
(1083,120,o),
(1107,114.5,q),
(1131,109,o),
(1147,101,q),
(1179,85,o),
(1179,47,q),
(1179,12,o),
(1163,-8,q)
);
}
);
width = 1524;
}
);
unicode = 84;
},
{
category = Letter;
glyphname = U;
layers = (
{
layerId = "3ab791a5-0594-4336-bd7a-6e9e95a35031";
name = Fore;
shapes = (
{
closed = 1;
nodes = (
(1440,1416,o),
(1437,1258,q),
(1437,658,l),
(1437,328,o),
(1274,154,q),
(1114,-19,o),
(817,-19,q),
(565,-19,o),
(404,108,q),
(200,267,o),
(200,636,q),
(200,1324,l),
(199,1367,o),
(190.5,1384,q),
(182,1401,o),
(152,1407,q),
(122,1413,o),
(98.5,1418.5,q),
(75,1424,o),
(59,1432,q),
(27,1448,o),
(27,1486,q),
(27,1521,o),
(43,1541,q),
(66,1533,o),
(142,1533,q),
(530,1533,l),
(644,1533,o),
(644,1456,q),
(644,1422,o),
(629,1405,q),
(592,1415,o),
(559.5,1415,q),
(527,1415,o),
(507.5,1407.5,q),
(488,1400,o),
(472,1381,q),
(436,1338,o),
(436,1248,q),
(436,706,l),
(436,397,o),
(560,262,q),
(656,159,o),
(826,159,q),
(1256,159,o),
(1256,695,q),
(1256,1297,l),
(1256,1376,o),
(1212,1396,q),
(1198,1403,o),
(1173.5,1408,q),
(1149,1413,o),
(1125.5,1418.5,q),
(1102,1424,o),
(1086,1432,q),
(1054,1448,o),
(1054,1486,q),
(1054,1523,o),
(1070,1541,q),
(1093,1533,o),
(1169,1533,q),
(1501,1533,l),
(1552,1533,o),
(1583.5,1517,q),
(1615,1501,o),
(1615,1457,q),
(1615,1423,o),
(1600,1406,q),
(1560,1416,o),
(1516,1416,q)
);
}
);
width = 1633;
}
);
unicode = 85;
},
{
category = Letter;
glyphname = V;
layers = (
{
layerId = "3ab791a5-0594-4336-bd7a-6e9e95a35031";
name = Fore;
shapes = (
{
closed = 1;
nodes = (
(1524,1415,o),
(1487,1415,q),
(1450,1415,o),
(1431.5,1399.5,q),
(1413,1384,o),
(1397,1356,q),
(1381,1328,o),
(1366,1289,q),
(953,168,l),
(886,-19,o),
(730,-19,q),
(681,-19,o),
(670,9,q),
(177,1264,l),
(169,1284,o),
(162,1307.5,q),
(155,1331,o),
(146,1353,q),
(124,1404,o),
(85,1416,q),
(62,1424,o),
(44.5,1429.5,q),
(27,1435,o),
(16,1442,q),
(-7,1457,o),
(-7,1480,q),
(-7,1516,o),
(9,1541,q),
(32,1533,o),
(88,1533,q),
(502,1533,l),
(569,1533,o),
(593,1524,q),
(639,1506,o),
(639,1456,q),
(639,1422,o),
(624,1405,q),
(602,1415,o),
(537,1415,q),
(419,1415,o),
(419,1317,q),
(419,1305,o),
(426,1282,q),
(438,1247,l),
(443,1234,o),
(447,1224,q),
(806,236,l),
(1177,1297,l),
(1183,1319,o),
(1183,1336.5,q),
(1183,1354,o),
(1175,1366.5,q),
(1167,1379,o),
(1154,1388,q),
(1140,1398,o),
(1104,1405.5,q),
(1068,1413,o),
(1044.5,1419,q),
(1021,1425,o),
(1005,1434,q),
(973,1452,o),
(971,1494,q),
(971,1522,o),
(981,1541,q),
(1004,1533,o),
(1080,1533,q),
(1427,1533,l),
(1561,1533,o),
(1561,1456,q),
(1561,1423,o),
(1545,1405,q)
);
}
);
width = 1553;
}
);
unicode = 86;
},
{
category = Letter;
glyphname = W;
layers = (
{
layerId = "3ab791a5-0594-4336-bd7a-6e9e95a35031";
name = Fore;
shapes = (
{
closed = 1;
nodes = (
(2306,1415,o),
(2278.5,1415,q),
(2251,1415,o),
(2231.5,1395.5,q),
(2212,1376,o),
(2194,1346,q),
(2166,1296,o),
(2139,1204,q),
(2018,818,l),
(1802,168,l),
(1772,80,o),
(1698,27,q),
(1632,-19,o),
(1577,-19,q),
(1535,-19,o),
(1517,-13,q),
(1197,814,l),
(1166,914,l),
(901,230,o),
(878.5,175.5,q),
(856,121,o),
(828,86,q),
(800,51,o),
(768,28,q),
(704,-19,o),
(649,-19,q),
(600,-19,o),
(589,-13,q),
(182,1264,l),
(174,1286,o),
(167,1310.5,q),
(160,1335,o),
(151,1356,q),
(130,1406,o),
(106,1412.5,q),
(82,1419,o),
(64,1423.5,q),
(46,1428,o),
(32,1435,q),
(1,1450,o),
(1,1476,q),
(1,1520,o),
(16,1541,q),
(40,1533,o),
(115,1533,q),
(533,1533,l),
(647,1533,o),
(647,1456,q),
(647,1423,o),
(631,1405,q),
(595,1415,o),
(548,1415,q),
(427,1415,o),
(427,1317,q),
(427,1285,o),
(437,1249,q),
(731,233,l),
(810,433,o),
(851,545,q),
(1096,1245,l),
(1109,1287,o),
(1160,1312,q),
(1204,1335,o),
(1263,1333,q),
(1651,233,l),
(1777,625,o),
(1811,745,q),
(1919,1130,l),
(1961,1288,o),
(1961,1323,q),
(1961,1358,o),
(1938.5,1379,q),
(1916,1400,o),
(1884.5,1406.5,q),
(1853,1413,o),
(1829.5,1418.5,q),
(1806,1424,o),
(1790,1432,q),
(1758,1448,o),
(1758,1486,q),
(1758,1520,o),
(1773,1541,q),
(1796,1533,o),
(1872,1533,q),
(2246,1533,l),
(2360,1533,o),
(2360,1456,q),
(2360,1423,o),
(2344,1405,q)
);
}
);
width = 2310;
}
);
unicode = 87;
},
{
category = Letter;
glyphname = X;
layers = (
{
layerId = "3ab791a5-0594-4336-bd7a-6e9e95a35031";
name = Fore;
shapes = (
{
closed = 1;
nodes = (
(0,0,o),
(0,83,q),
(0,114,o),
(16,130,q),
(38,121,o),
(77,121,q),
(116,121,o),
(143,129.5,q),
(170,138,o),
(197,156,q),
(249,192,o),
(313,276,q),
(681,735,l),
(253,1282,l),
(238,1298,o),
(222,1317,q),
(206,1336,o),
(190,1353,q),
(150,1394,o),
(122.5,1402,q),
(95,1410,o),
(72.5,1415.5,q),
(50,1421,o),
(34,1430,q),
(1,1447,o),
(1,1490,q),
(1,1518,o),
(16,1540,q),
(41,1533,o),
(115,1533,q),
(546,1533,l),
(644,1533,o),
(670,1498,q),
(681,1483,o),
(681,1464,q),
(681,1421,o),
(665,1405,q),
(616,1416,o),
(568,1416,q),
(490,1416,o),
(490,1374,q),
(490,1352,o),
(528,1301,q),
(827,886,l),
(1100,1277,l),
(1130,1322,o),
(1130,1342,q),
(1130,1362,o),
(1121.5,1373.5,q),
(1113,1385,o),
(1100,1392,q),
(1087,1399,o),
(1071,1402.5,q),
(1055,1406,o),
(1034.5,1410.5,q),
(1014,1415,o),
(995,1420,q),
(976,1425,o),
(963,1433,q),
(937,1449,o),
(937,1476,q),
(937,1518,o),
(953,1539,q),
(973,1533,o),
(1051,1533,q),
(1439,1533,l),
(1538,1533,o),
(1564,1498,q),
(1575,1483,o),
(1575,1464,q),
(1575,1420,o),
(1562,1405,q),
(1539,1414,o),
(1502.5,1414,q),
(1466,1414,o),
(1436.5,1396.5,q),
(1407,1379,o),
(1376,1351,q),
(1315,1296,o),
(1260,1221,q),
(919,767,l),
(1334,252,l),
(1366,216,l),
(1429,143,o),
(1465,132.5,q),
(1501,122,o),
(1524.5,117,q),
(1548,112,o),
(1564,104,q),
(1600,85,o),
(1600,44,q),
(1600,18,o),
(1585,-6,q),
(1565,0,o),
(1486,0,q),
(1050,0,l),
(959,0,o),
(936,39,q),
(926,55,o),
(926,73,q),
(926,112,o),
(942,130,q),
(963,126,l),
(999,118,o),
(1032.5,118.5,q),
(1066,119,o),
(1082,123,q),
(1098,127,o),
(1098,144,q),
(1098,174,o),
(1055,233,q),
(771,613,l),
(492,229,l),
(466,197,o),
(466,173.5,q),
(466,150,o),
(489.5,140,q),
(513,130,o),
(540,124,q),
(588,114,l),
(637,105,o),
(650.5,86.5,q),
(664,68,o),
(664,50,q),
(664,18,o),
(649,-6,q),
(629,0,o),
(550,0,q),
(125,0,l)
);
}
);
width = 1583;
}
);
unicode = 88;
},
{
category = Letter;
glyphname = Y;
layers = (
{
layerId = "3ab791a5-0594-4336-bd7a-6e9e95a35031";
name = Fore;
shapes = (
{
closed = 1;
nodes = (
(400,0,o),
(400,75,q),
(400,109,o),
(415,128,q),
(453,118,o),
(490.5,118,q),
(528,118,o),
(552.5,123,q),
(577,128,o),
(596,144,q),
(635,180,o),
(637,274,q),
(637,526,l),
(155,1326,l),
(115,1391,o),
(88,1404.5,q),
(61,1418,o),
(45.5,1423,q),
(30,1428,o),
(18,1436,q),
(-10,1452,o),
(-10,1480,q),
(-10,1521,o),
(6,1541,q),
(29,1533,o),
(105,1533,q),
(466,1533,l),
(564,1533,o),
(590,1501,q),
(603,1486,o),
(603,1455.5,q),
(603,1425,o),
(584,1404,q),
(550,1414,o),
(508,1414,q),
(425,1414,o),
(425,1350,q),
(425,1304,o),
(466,1238,q),
(787,684,l),
(910,889,o),
(966,991,q),
(1060,1167,l),
(1125,1293,o),
(1130,1314.5,q),
(1135,1336,o),
(1135,1349,q),
(1135,1362,o),
(1127.5,1372,q),
(1120,1382,o),
(1108,1388.5,q),
(1096,1395,o),
(1081,1398.5,q),
(1066,1402,o),
(1045,1407,q),
(1024,1412,o),
(1000,1417,q),
(976,1422,o),
(958,1430,q),
(918,1447,o),
(918,1486.5,q),
(918,1526,o),
(933,1541,q),
(956,1533,o),
(1032,1533,q),
(1378,1533,l),
(1469,1533,o),
(1494,1500,q),
(1505,1485,o),
(1505,1464,q),
(1505,1424,o),
(1487,1404,q),
(1453,1414,o),
(1429,1414,q),
(1405,1414,o),
(1386,1399,q),
(1367,1384,o),
(1349.5,1358,q),
(1332,1332,o),
(1314,1298,q),
(1258,1188,o),
(1226,1131,q),
(908,591,o),
(898,572,q),
(873,530,l),
(873,236,l),
(873,150,o),
(968,134,q),
(1082,116,o),
(1103,103,q),
(1139,83,o),
(1139,46,q),
(1139,12,o),
(1123,-8,q),
(1100,0,o),
(1024,0,q),
(514,0,l)
);
}
);
width = 1488;
}
);
unicode = 89;
},
{
category = Letter;
glyphname = Z;
layers = (
{
layerId = "3ab791a5-0594-4336-bd7a-6e9e95a35031";
name = Fore;
shapes = (
{
closed = 1;
nodes = (
(92,133,o),
(603,834,q),
(787,1094,o),
(852,1194,q),
(976,1391,l),
(560,1376,l),
(489,1373,o),
(445,1365.5,q),
(401,1358,o),
(376,1336,q),
(333,1299,o),
(321,1164,q),
(321,1144,o),
(274,1133,q),
(262,1130,o),
(243,1130,q),
(224,1130,o),
(213.5,1148,q),
(203,1166,o),
(194.5,1197.5,q),
(186,1229,o),
(181,1263,q),
(171,1331,o),
(171,1380.5,q),
(171,1430,o),
(175,1459.5,q),
(179,1489,o),
(190,1505,q),
(209,1533,o),
(271,1533,q),
(1185,1533,l),
(1222,1533,o),
(1262,1487,q),
(1301,1442,o),
(1289,1416,q),
(397,146,l),
(915,166,l),
(1051,172,o),
(1100,230,q),
(1142,280,o),
(1155,426,q),
(1156,436,o),
(1176.5,445,q),
(1197,454,o),
(1223.5,454,q),
(1250,454,o),
(1260.5,435,q),
(1271,416,o),
(1279.5,380,q),
(1288,344,o),
(1294,305,q),
(1306,227,o),
(1306,170.5,q),
(1306,114,o),
(1291,81,q),
(1276,48,o),
(1246,30,q),
(1196,0,o),
(1071,0,q),
(188,0,l),
(148,0,o),
(112,56,q),
(76,110,o),
(92,133,q)
);
}
);
width = 1413;
}
);
unicode = 90;
},
{
category = Letter;
glyphname = bracketleft;
layers = (
{
layerId = "3ab791a5-0594-4336-bd7a-6e9e95a35031";
name = Fore;
shapes = (
{
closed = 1;
nodes = (
(721,-285,o),
(721,-319.5,q),
(721,-354,o),
(706.5,-381,q),
(692,-408,o),
(665,-408,q),
(190,-408,l),
(157,-408,o),
(148,-374,q),
(145,-366,o),
(145,-360,q),
(145,1883,l),
(145,1910,o),
(161.5,1920.5,q),
(178,1931,o),
(190,1931,q),
(665,1931,l),
(692,1931,o),
(706.5,1904,q),
(721,1877,o),
(721,1842.5,q),
(721,1808,o),
(710,1782,q),
(353,1782,l),
(353,-259,l),
(710,-259,l)
);
}
);
width = 867;
}
);
unicode = 91;
},
{
category = Letter;
glyphname = asciicircum;
layers = (
{
layerId = "3ab791a5-0594-4336-bd7a-6e9e95a35031";
name = Fore;
shapes = (
{
closed = 1;
nodes = (
(268,380,o),
(268,447,q),
(268,457,o),
(278,482,q),
(705,1465,l),
(736,1534,o),
(827,1534,q),
(873,1534,o),
(911,1515.5,q),
(949,1497,o),
(963,1465,q),
(1383,471,o),
(1388,459.5,q),
(1393,448,o),
(1393,438,q),
(1393,381,o),
(1248,381,q),
(1220,381,o),
(1194,430,q),
(837,1309,l),
(462,437,l),
(428,380,o),
(396,380,q)
);
}
);
width = 1656;
}
);
unicode = 94;
},
{
category = Letter;
glyphname = underscore;
layers = (
{
layerId = "3ab791a5-0594-4336-bd7a-6e9e95a35031";
name = Fore;
shapes = (
{
closed = 1;
nodes = (
(-112,-304,o),
(-112,-267.5,q),
(-112,-231,o),
(-97.5,-203,q),
(-83,-175,o),
(-56,-175,q),
(1480,-175,l),
(1493,-197,o),
(1493,-236,q),
(1493,-298,o),
(1460,-322,q),
(1449,-330,o),
(1434,-330,q),
(-101,-330,l)
);
}
);
width = 1380;
}
);
unicode = 95;
},
{
category = Letter;
glyphname = grave;
layers = (
{
layerId = "3ab791a5-0594-4336-bd7a-6e9e95a35031";
name = Fore;
shapes = (
{
closed = 1;
nodes = (
(0,1578,o),
(0,1600.5,q),
(0,1623,o),
(16.5,1652.5,q),
(33,1682,o),
(58,1708,q),
(120,1769,o),
(175,1769,q),
(205,1769,o),
(227,1747,q),
(546,1428,l),
(553,1421,o),
(553,1411,q),
(553,1401,o),
(547,1390.5,q),
(541,1380,o),
(530,1370,q),
(505,1347,o),
(476,1347,q),
(20,1568,l)
);
}
);
width = 582;
}
);
unicode = 96;
},
{
category = Letter;
glyphname = a;
layers = (
{
layerId = "3ab791a5-0594-4336-bd7a-6e9e95a35031";
name = Fore;
shapes = (
{
closed = 1;
nodes = (
(669,-19,o),
(462,-19,q),
(302,-19,o),
(206,73,q),
(109,166,o),
(109,314,q),
(109,498,o),
(273,590,q),
(421,674,o),
(690,674,q),
(815,674,l),
(816,712,o),
(816,748,q),
(816,823,l),
(816,957,o),
(777,1012,q),
(733,1074,o),
(627,1074,q),
(384,1074,o),
(377,900,q),
(376,873,o),
(378,855,q),
(358,839,o),
(310.5,839,q),
(263,839,o),
(241.5,850,q),
(220,861,o),
(204,880,q),
(170,919,o),
(170,979.5,q),
(170,1040,o),
(205.5,1085.5,q),
(241,1131,o),
(302,1160,q),
(421,1219,o),
(583,1219,q),
(745,1219,o),
(826.5,1187.5,q),
(908,1156,o),
(956,1104,q),
(1041,1012,o),
(1041,857,q),
(1031,377,l),
(1031,246,o),
(1043.5,211,q),
(1056,176,o),
(1073.5,164,q),
(1091,152,o),
(1116.5,152,q),
(1142,152,o),
(1158,160,q),
(1186,173,l),
(1200,178,o),
(1210.5,161.5,q),
(1221,145,o),
(1221,132.5,q),
(1221,120,o),
(1210.5,100,q),
(1200,80,o),
(1171.5,57.5,q),
(1143,35,o),
(1107,18,q),
(908,-76,o),
(836,62,q),
(821,89,o),
(815,127,q)
);
},
{
closed = 1;
nodes = (
(812,402,o),
(814,544,q),
(606,536,o),
(531.5,517.5,q),
(457,499,o),
(424,482,q),
(391,465,o),
(372,442,q),
(341,404,o),
(341,327.5,q),
(341,251,o),
(395,205.5,q),
(449,160,o),
(550,160,q),
(693,160,o),
(812,258,q)
);
}
);
width = 1247;
}
);
unicode = 97;
},
{
category = Letter;
glyphname = b;
layers = (
{
layerId = "3ab791a5-0594-4336-bd7a-6e9e95a35031";
name = Fore;
shapes = (
{
closed = 1;
nodes = (
(565,1219,o),
(750,1219,q),
(954,1219,o),
(1082,1078,q),
(1222,926,o),
(1222,654,q),
(1222,348,o),
(1030,158,q),
(849,-19,o),
(602,-19,q),
(441,-19,o),
(281,54,q),
(229,77,o),
(192,107,q),
(192,1475,l),
(192,1544,o),
(178,1564,q),
(157,1596,o),
(104,1596,q),
(80,1596,o),
(59,1591.5,q),
(38,1587,o),
(30,1591.5,q),
(22,1596,o),
(16,1604,q),
(-5,1636,o),
(66,1688,q),
(176,1769,o),
(283,1769,q),
(397,1769,o),
(411,1646,q),
(415,1609,o),
(415,1568,q),
(415,1079,l)
);
},
{
closed = 1;
nodes = (
(415,219,l),
(509,141,o),
(640,141,q),
(795,141,o),
(892,256,q),
(995,378,o),
(995,591,q),
(995,815,o),
(904,928,q),
(823,1031,o),
(677.5,1031,q),
(532,1031,o),
(415,920,q)
);
}
);
width = 1328;
}
);
unicode = 98;
},
{
category = Letter;
glyphname = c;
layers = (
{
layerId = "3ab791a5-0594-4336-bd7a-6e9e95a35031";
name = Fore;
shapes = (
{
closed = 1;
nodes = (
(827,890,l),
(827,909,o),
(818,954.5,q),
(809,1000,o),
(760.5,1029,q),
(712,1058,o),
(637.5,1058,q),
(563,1058,o),
(505.5,1020.5,q),
(448,983,o),
(412,920,q),
(344,800,o),
(344,599,q),
(344,409,o),
(436,290,q),
(530,168,o),
(684,168,q),
(824,168,o),
(952,245,q),
(983,264,o),
(1000,278,q),
(1010,278,o),
(1023,262,q),
(1048,233,o),
(1048,215.5,q),
(1048,198,o),
(1034,175.5,q),
(1020,153,o),
(993.5,127.5,q),
(967,102,o),
(930,76,q),
(893,50,o),
(847,29,q),
(742,-19,o),
(632,-19,q),
(522,-19,o),
(426.5,18.5,q),
(331,56,o),
(262,129,q),
(114,284,o),
(114,555,q),
(114,863,o),
(302,1050,q),
(473,1219,o),
(697,1219,q),
(844,1219,o),
(942,1156,q),
(1045,1090,o),
(1045,982,q),
(1045,923,o),
(1019,893,q),
(974,840,o),
(914.5,840,q),
(855,840,o),
(826,854,q)
);
}
);
width = 1134;
}
);
unicode = 99;
},
{
category = Letter;
glyphname = d;
layers = (
{
layerId = "3ab791a5-0594-4336-bd7a-6e9e95a35031";
name = Fore;
shapes = (
{
closed = 1;
nodes = (
(764,-20,o),
(578,-20,q),
(373,-20,o),
(244,120,q),
(104,274,o),
(104,545,q),
(104,850,o),
(298,1041,q),
(479,1219,o),
(726,1219,q),
(825,1219,o),
(916,1186,q),
(916,1475,l),
(916,1545,o),
(902,1564,q),
(879,1596,o),
(827,1596,q),
(805,1596,o),
(783.5,1591.5,q),
(762,1587,o),
(753.5,1591.5,q),
(745,1596,o),
(740,1604,q),
(720,1637,o),
(790,1688,q),
(900,1769,o),
(1007,1769,q),
(1120,1769,o),
(1136,1646,q),
(1140,1609,o),
(1140,1568,q),
(1140,407,l),
(1140,253,o),
(1152,215,q),
(1164,177,o),
(1180.5,165.5,q),
(1197,154,o),
(1222,154,q),
(1247,154,o),
(1263,162,q),
(1293,175,l),
(1306,178,o),
(1316,163,q),
(1337,132,o),
(1322,107,q),
(1307,82,o),
(1277,59,q),
(1247,36,o),
(1210,19,q),
(1048,-54,o),
(968,16,q),
(929,50,o),
(919,125,q)
);
},
{
closed = 1;
nodes = (
(818,1058,o),
(688,1058,q),
(532,1058,o),
(435,943,q),
(331,820,o),
(331,608,q),
(331,271,o),
(523,192,q),
(583,168,o),
(639.5,168,q),
(696,168,o),
(734,177,q),
(772,186,o),
(805,201,q),
(871,231,o),
(916,274,q),
(916,983,l)
);
}
);
width = 1378;
}
);
unicode = 100;
},
{
category = Letter;
glyphname = e;
layers = (
{
layerId = "3ab791a5-0594-4336-bd7a-6e9e95a35031";
name = Fore;
shapes = (
{
closed = 1;
nodes = (
(108,659,o),
(133,753,q),
(158,847,o),
(200.5,921.5,q),
(243,996,o),
(300.5,1052,q),
(358,1108,o),
(424,1145,q),
(554,1219,o),
(680,1219,q),
(806,1219,o),
(882,1174.5,q),
(958,1130,o),
(1006,1056,q),
(1095,915,o),
(1095,681,q),
(1095,594,o),
(1022,592,q),
(324,577,l),
(330,360,o),
(436,256,q),
(526,168,o),
(669,168,q),
(882,168,o),
(1015,257,q),
(1024,257,o),
(1037,242,q),
(1062,212,o),
(1062,190,q),
(1062,142,o),
(942,67,q),
(804,-19,o),
(620,-19,q),
(380,-19,o),
(243,134,q),
(108,284,o),
(108,538,q)
);
},
{
closed = 1;
nodes = (
(618,720,o),
(857,743,q),
(868,1061,o),
(637,1061,q),
(508,1061,o),
(426,961,q),
(351,869,o),
(330,706,q)
);
}
);
width = 1209;
}
);
unicode = 101;
},
{
category = Letter;
glyphname = f;
layers = (
{
layerId = "3ab791a5-0594-4336-bd7a-6e9e95a35031";
name = Fore;
shapes = (
{
closed = 1;
nodes = (
(111,0,o),
(111,70,q),
(111,107,o),
(126,126,q),
(150,118,o),
(171,118,q),
(263,118,o),
(261,236,q),
(261,1027,l),
(242,1027,l),
(134,1027,o),
(102,1024,q),
(85,1063,o),
(85,1097,q),
(85,1131,o),
(111,1152.5,q),
(137,1174,o),
(178,1174,q),
(261,1174,l),
(261,1210,l),
(261,1584,o),
(519,1718,q),
(617,1769,o),
(725,1769,q),
(833,1769,o),
(881,1720,q),
(929,1671,o),
(929,1590,q),
(929,1499,o),
(865,1449,q),
(846,1436,o),
(808,1436,q),
(770,1436,o),
(770,1455,q),
(770,1602,o),
(660,1602,q),
(587,1602,o),
(551,1568,q),
(482,1501,o),
(482,1365,q),
(482,1344,o),
(484,1320,q),
(484,1174,l),
(801,1174,l),
(814,1151,o),
(814,1115,q),
(814,1079,o),
(806.5,1062,q),
(799,1045,o),
(778,1031,q),
(732,999,o),
(658.5,999,q),
(585,999,o),
(484,1011,q),
(484,208,l),
(484,131,o),
(582,120,q),
(668,111,o),
(686,98,q),
(711,79,o),
(711,50,q),
(711,15,o),
(695,-5,q),
(675,0,o),
(631,0,q),
(264,0,l)
);
}
);
width = 861;
}
);
unicode = 102;
},
{
category = Letter;
glyphname = g;
layers = (
{
layerId = "3ab791a5-0594-4336-bd7a-6e9e95a35031";
name = Fore;
shapes = (
{
closed = 1;
nodes = (
(455,361,o),
(455,325,q),
(455,289,o),
(476,270.5,q),
(497,252,o),
(531,242,q),
(583,228,o),
(646,228,q),
(732,228,l),
(1058,228,o),
(1161,72,q),
(1199,14,o),
(1199,-69.5,q),
(1199,-153,o),
(1171,-216,q),
(1143,-279,o),
(1096,-327.5,q),
(1049,-376,o),
(987,-411,q),
(925,-446,o),
(856,-468,q),
(721,-513,o),
(604,-513,q),
(487,-513,o),
(399.5,-494.5,q),
(312,-476,o),
(244,-437,q),
(97,-352,o),
(97,-193,q),
(97,-58,o),
(232,49,q),
(273,81,o),
(319,106,q),
(265,151,o),
(265,227,q),
(265,346,o),
(383,427,q),
(210,493,o),
(156,663,q),
(139,719,o),
(139,788,q),
(139,857,o),
(160.5,918,q),
(182,979,o),
(219.5,1027,q),
(257,1075,o),
(307,1111,q),
(357,1147,o),
(414,1171,q),
(526,1219,o),
(649,1219,q),
(852,1219,o),
(973,1117,q),
(986,1167,o),
(986,1220,q),
(986,1273,o),
(963,1306,q),
(1002,1352,o),
(1079,1352,q),
(1123,1352,o),
(1149,1328,q),
(1199,1285,o),
(1199,1242.5,q),
(1199,1200,o),
(1186,1168.5,q),
(1173,1137,o),
(1152,1109,q),
(1115,1057,o),
(1056,1015,q),
(1096,940,o),
(1096,841.5,q),
(1096,743,o),
(1052.5,658.5,q),
(1009,574,o),
(936,515,q),
(786,394,o),
(566,394,q),
(536,394,o),
(493,399,q)
);
},
{
closed = 1;
nodes = (
(572,543,o),
(624.5,543,q),
(677,543,o),
(723.5,558,q),
(770,573,o),
(804,602,q),
(877,664,o),
(877,778,q),
(877,904,o),
(812,988,q),
(738,1081,o),
(604,1081,q),
(435,1081,o),
(385,943,q),
(368,896,o),
(368,827,q),
(368,758,o),
(388.5,703,q),
(409,648,o),
(444.5,612.5,q),
(480,577,o),
(526,560,q)
);
},
{
closed = 1;
nodes = (
(314,-42,o),
(314,-155,q),
(314,-253,o),
(428,-304,q),
(519,-346,o),
(652,-346,q),
(773,-346,o),
(876,-306,q),
(1011,-253,o),
(1011,-133,q),
(1011,28,o),
(750,28,q),
(661,27,l),
(525,27,o),
(445,47,q)
);
}
);
width = 1249;
}
);
unicode = 103;
},
{
category = Letter;
glyphname = h;
layers = (
{
layerId = "3ab791a5-0594-4336-bd7a-6e9e95a35031";
name = Fore;
shapes = (
{
closed = 1;
nodes = (
(610,0,o),
(566,0,q),
(247,0,l),
(151,0,o),
(124,34,q),
(113,47,o),
(113,64,q),
(113,106,o),
(129,126,q),
(153,118,o),
(184,118,q),
(215,118,o),
(230,143,q),
(245,168,o),
(244,236,q),
(244,1475,l),
(244,1544,o),
(230,1564,q),
(209,1596,o),
(156,1596,q),
(136,1596,l),
(127,1596,o),
(115.5,1593.5,q),
(104,1591,o),
(96,1595.5,q),
(88,1600,o),
(82,1608,q),
(61,1639,o),
(130,1692,q),
(231,1769,o),
(336,1769,q),
(450,1769,o),
(464,1646,q),
(468,1609,o),
(468,1568,q),
(468,1023,l),
(619,1150,o),
(791,1200,q),
(854,1219,o),
(918.5,1219,q),
(983,1219,o),
(1041.5,1202,q),
(1100,1185,o),
(1142,1147,q),
(1234,1065,o),
(1234,897,q),
(1234,226,l),
(1234,143,o),
(1290,124,q),
(1306,118,o),
(1328,114,q),
(1350,110,o),
(1367.5,104.5,q),
(1385,99,o),
(1395,92,q),
(1412,79,o),
(1412,50,q),
(1412,14,o),
(1397,-5,q),
(1376,0,o),
(1333,0,q),
(1014,0,l),
(918,0,o),
(891,34,q),
(880,47,o),
(880,64,q),
(880,107,o),
(895,126,q),
(920,118,o),
(949,118,q),
(978,118,o),
(993.5,139,q),
(1009,160,o),
(1011,216,q),
(1011,826,l),
(1011,996,o),
(910,1016,q),
(879,1022,o),
(832.5,1022,q),
(786,1022,o),
(730.5,1008,q),
(675,994,o),
(626,972,q),
(529,928,o),
(468,867,q),
(468,226,l),
(468,143,o),
(524,124,q),
(540,118,o),
(562,114,q),
(584,110,o),
(601.5,104.5,q),
(619,99,o),
(629,92,q),
(646,79,o),
(646,50,q),
(646,15,o),
(630,-5,q)
);
}
);
width = 1461;
}
);
unicode = 104;
},
{
category = Letter;
glyphname = i;
layers = (
{
layerId = "3ab791a5-0594-4336-bd7a-6e9e95a35031";
name = Fore;
shapes = (
{
closed = 1;
nodes = (
(300,1405,o),
(271.5,1415.5,q),
(243,1426,o),
(222,1446,q),
(178,1488,o),
(178,1559,q),
(178,1627,o),
(230,1674,q),
(280,1721,o),
(350,1721,q),
(420,1721,o),
(462,1679,q),
(504,1637,o),
(504,1565,q),
(504,1497,o),
(454,1450,q),
(405,1405,o),
(334,1405,q)
);
},
{
closed = 1;
nodes = (
(119,0,o),
(119,70,q),
(119,106,o),
(135,126,q),
(159,118,o),
(179,118,q),
(272,118,o),
(270,236,q),
(270,906,l),
(270,976,o),
(250.5,1003.5,q),
(231,1031,o),
(181,1031,q),
(144,1031,o),
(114,1022,q),
(96,1020,o),
(88,1050,q),
(81,1077,o),
(96,1097.5,q),
(111,1118,o),
(142.5,1140.5,q),
(174,1163,o),
(212,1180,q),
(294,1219,o),
(349,1219,q),
(404,1219,o),
(430.5,1203,q),
(457,1187,o),
(471,1160,q),
(493,1116,o),
(493,1018,q),
(493,219,l),
(496,140,o),
(550,123,q),
(565,118,o),
(587,114,q),
(609,110,o),
(626.5,104.5,q),
(644,99,o),
(654,92,q),
(671,79,o),
(671,50,q),
(671,14,o),
(656,-5,q),
(635,0,o),
(592,0,q),
(273,0,l)
);
}
);
width = 717;
}
);
unicode = 105;
},
{
category = Letter;
glyphname = j;
layers = (
{
layerId = "3ab791a5-0594-4336-bd7a-6e9e95a35031";
name = Fore;
shapes = (
{
closed = 1;
nodes = (
(178,1487,o),
(178,1559,q),
(178,1627,o),
(230,1674,q),
(280,1721,o),
(349.5,1721,q),
(419,1721,o),
(461,1679,q),
(503,1637,o),
(503,1565,q),
(503,1497,o),
(453,1450,q),
(404,1405,o),
(334.5,1405,q),
(265,1405,o),
(221.5,1446,q)
);
},
{
closed = 1;
nodes = (
(14,-282,o),
(37.5,-307,q),
(61,-332,o),
(104.5,-332,q),
(148,-332,o),
(177.5,-323,q),
(207,-314,o),
(228,-290,q),
(270,-239,o),
(270,-108,q),
(270,906,l),
(270,976,o),
(250.5,1003.5,q),
(231,1031,o),
(181,1031,q),
(155,1031,o),
(134,1022,q),
(115,1020,o),
(107,1050,q),
(100,1076,o),
(115,1096.5,q),
(130,1117,o),
(159,1140,q),
(188,1163,o),
(222,1180,q),
(298,1219,o),
(351,1219,q),
(404,1219,o),
(430.5,1203,q),
(457,1187,o),
(471,1160,q),
(493,1116,o),
(493,1018,q),
(493,37,l),
(493,-225,o),
(368,-376,q),
(254,-514,o),
(86,-514,q),
(-72,-514,o),
(-122,-424,q),
(-136,-397,o),
(-136,-352.5,q),
(-136,-308,o),
(-101.5,-277.5,q),
(-67,-247,o),
(-36,-247,q),
(-5,-247,o),
(10,-250,q)
);
}
);
width = 717;
}
);
unicode = 106;
},
{
category = Letter;
glyphname = k;
layers = (
{
layerId = "3ab791a5-0594-4336-bd7a-6e9e95a35031";
name = Fore;
shapes = (
{
closed = 1;
nodes = (
(591,0,o),
(547,0,q),
(247,0,l),
(151,0,o),
(124,34,q),
(113,47,o),
(113,64,q),
(113,106,o),
(129,126,q),
(153,118,o),
(184,118,q),
(215,118,o),
(230,143,q),
(245,168,o),
(244,236,q),
(244,1475,l),
(244,1544,o),
(230,1564,q),
(209,1596,o),
(156,1596,q),
(140,1596,o),
(123.5,1592.5,q),
(107,1589,o),
(98.5,1593.5,q),
(90,1598,o),
(85,1606,q),
(72,1626,o),
(87.5,1646.5,q),
(103,1667,o),
(132,1690,q),
(161,1713,o),
(196,1730,q),
(271,1769,o),
(325.5,1769,q),
(380,1769,o),
(406.5,1753,q),
(433,1737,o),
(446,1710,q),
(468,1666,o),
(468,1568,q),
(468,226,l),
(468,143,o),
(518,124,q),
(532,118,o),
(551.5,114,q),
(571,110,o),
(587,104.5,q),
(603,99,o),
(612,92,q),
(627,79,o),
(627,50,q),
(627,15,o),
(611,-5,q)
);
},
{
closed = 1;
nodes = (
(1190,1219,o),
(1190,1123,q),
(1190,1002,o),
(947,789,q),
(853,706,o),
(758,647,q),
(822,588,o),
(889,494,q),
(994,346,l),
(1126,157,o),
(1193,157,q),
(1248,157,o),
(1265.5,168,q),
(1283,179,o),
(1291,180,q),
(1299,181,o),
(1312,173,q),
(1325,165,o),
(1325,146,q),
(1325,127,o),
(1309.5,98.5,q),
(1294,70,o),
(1266,44,q),
(1198,-19,o),
(1119,-19,q),
(1040,-19,o),
(986,18.5,q),
(932,56,o),
(885,115.5,q),
(838,175,o),
(796,248,q),
(713,390,l),
(612,564,o),
(540,616,q),
(498,645,o),
(512,653,q),
(541,669,l),
(702,784,l),
(805,861,o),
(844,905,q),
(920,990,o),
(920,1047,q),
(920,1087,o),
(840,1093,q),
(830,1109,o),
(830,1127,q),
(830,1145,o),
(849.5,1162.5,q),
(869,1180,o),
(899,1192,q),
(963,1219,o),
(1034,1219,q)
);
}
);
width = 1325;
}
);
unicode = 107;
},
{
category = Letter;
glyphname = l;
layers = (
{
layerId = "3ab791a5-0594-4336-bd7a-6e9e95a35031";
name = Fore;
shapes = (
{
closed = 1;
nodes = (
(110,0,o),
(110,70,q),
(110,107,o),
(125,126,q),
(149,118,o),
(170,118,q),
(257,118,o),
(260,223,q),
(260,1475,l),
(260,1545,o),
(246,1564,q),
(223,1596,o),
(172,1596,q),
(149,1596,o),
(127.5,1591.5,q),
(106,1587,o),
(97.5,1591.5,q),
(89,1596,o),
(84,1604,q),
(64,1637,o),
(134,1688,q),
(244,1769,o),
(351,1769,q),
(465,1769,o),
(479,1646,q),
(483,1609,o),
(483,1568,q),
(483,219,l),
(486,141,o),
(540,123,q),
(556,118,o),
(577.5,114,q),
(599,110,o),
(617,104.5,q),
(635,99,o),
(645,92,q),
(662,79,o),
(662,50,q),
(662,15,o),
(646,-5,q),
(626,0,o),
(582,0,q),
(263,0,l)
);
}
);
width = 715;
}
);
unicode = 108;
},
{
category = Letter;
glyphname = m;
layers = (
{
layerId = "3ab791a5-0594-4336-bd7a-6e9e95a35031";
name = Fore;
shapes = (
{
closed = 1;
nodes = (
(626,0,o),
(582,0,q),
(263,0,l),
(167,0,o),
(140,34,q),
(129,47,o),
(129,64,q),
(129,106,o),
(145,126,q),
(169,118,o),
(199.5,118,q),
(230,118,o),
(245.5,143,q),
(261,168,o),
(260,236,q),
(260,890,l),
(260,984,o),
(225,1007,q),
(211,1016,o),
(188,1016,q),
(165,1016,o),
(151.5,1009,q),
(138,1002,o),
(129.5,999,q),
(121,996,o),
(115,999.5,q),
(109,1003,o),
(103,1010,q),
(88,1026,o),
(88,1043.5,q),
(88,1061,o),
(100.5,1080.5,q),
(113,1100,o),
(141,1125.5,q),
(169,1151,o),
(205,1172,q),
(286,1219,o),
(367,1219,q),
(456,1219,o),
(474,1106,q),
(480,1072,o),
(482,1036,q),
(632,1155,o),
(796,1202,q),
(856,1219,o),
(912,1219,q),
(1150,1219,o),
(1213,1031,q),
(1369,1155,o),
(1530,1202,q),
(1591,1219,o),
(1654,1219,q),
(1717,1219,o),
(1775.5,1202,q),
(1834,1185,o),
(1876,1147,q),
(1968,1065,o),
(1968,897,q),
(1968,226,l),
(1968,144,o),
(2024,124,q),
(2040,118,o),
(2062,114,q),
(2084,110,o),
(2102,104.5,q),
(2120,99,o),
(2130,92,q),
(2147,79,o),
(2147,50,q),
(2147,15,o),
(2131,-5,q),
(2111,0,o),
(2067,0,q),
(1748,0,l),
(1652,0,o),
(1625,34,q),
(1614,47,o),
(1614,64,q),
(1614,106,o),
(1630,126,q),
(1654,118,o),
(1683,118,q),
(1712,118,o),
(1727.5,137.5,q),
(1743,157,o),
(1745,210,q),
(1745,826,l),
(1745,996,o),
(1644,1016,q),
(1613,1022,o),
(1570.5,1022,q),
(1528,1022,o),
(1478.5,1011.5,q),
(1429,1001,o),
(1384,983,q),
(1297,948,o),
(1232,894,q),
(1232,226,l),
(1232,143,o),
(1288,124,q),
(1304,118,o),
(1326,114,q),
(1348,110,o),
(1365.5,104.5,q),
(1383,99,o),
(1393,92,q),
(1410,79,o),
(1410,50,q),
(1410,14,o),
(1395,-5,q),
(1375,0,o),
(1331,0,q),
(1012,0,l),
(916,0,o),
(889,34,q),
(878,47,o),
(878,64,q),
(878,107,o),
(893,126,q),
(918,118,o),
(947,118,q),
(976,118,o),
(991.5,139,q),
(1007,160,o),
(1009,216,q),
(1009,826,l),
(1009,996,o),
(908,1016,q),
(877,1022,o),
(833,1022,q),
(789,1022,o),
(737,1010,q),
(685,998,o),
(638,978,q),
(548,941,o),
(483,884,q),
(483,226,l),
(483,144,o),
(540,124,q),
(555,118,o),
(577,114,q),
(599,110,o),
(617,104.5,q),
(635,99,o),
(645,92,q),
(662,79,o),
(662,50,q),
(662,15,o),
(646,-5,q)
);
}
);
width = 2190;
}
);
unicode = 109;
},
{
category = Letter;
glyphname = n;
layers = (
{
layerId = "3ab791a5-0594-4336-bd7a-6e9e95a35031";
name = Fore;
shapes = (
{
closed = 1;
nodes = (
(626,0,o),
(582,0,q),
(263,0,l),
(167,0,o),
(140,34,q),
(129,47,o),
(129,64,q),
(129,106,o),
(145,126,q),
(169,118,o),
(199.5,118,q),
(230,118,o),
(245.5,143,q),
(261,168,o),
(260,236,q),
(260,890,l),
(260,984,o),
(225,1007,q),
(211,1016,o),
(188,1016,q),
(165,1016,o),
(151.5,1009,q),
(138,1002,o),
(129.5,999,q),
(121,996,o),
(115,999.5,q),
(109,1003,o),
(103,1010,q),
(88,1026,o),
(88,1043.5,q),
(88,1061,o),
(100.5,1080.5,q),
(113,1100,o),
(141,1125.5,q),
(169,1151,o),
(205,1172,q),
(286,1219,o),
(367,1219,q),
(460,1219,o),
(477,1096,q),
(482,1060,o),
(483,1022,q),
(632,1147,o),
(807,1200,q),
(870,1219,o),
(934.5,1219,q),
(999,1219,o),
(1057.5,1202,q),
(1116,1185,o),
(1159,1147,q),
(1250,1067,o),
(1250,897,q),
(1250,219,l),
(1253,141,o),
(1308,123,q),
(1323,118,o),
(1345,114,q),
(1367,110,o),
(1384.5,104.5,q),
(1402,99,o),
(1412,92,q),
(1429,79,o),
(1429,50,q),
(1429,15,o),
(1413,-5,q),
(1393,0,o),
(1349,0,q),
(1030,0,l),
(934,0,o),
(907,34,q),
(896,47,o),
(896,64,q),
(896,106,o),
(912,126,q),
(936,118,o),
(956.5,118,q),
(977,118,o),
(991,123.5,q),
(1005,129,o),
(1013,142,q),
(1027,166,o),
(1027,236,q),
(1027,826,l),
(1027,996,o),
(926,1016,q),
(895,1022,o),
(848.5,1022,q),
(802,1022,o),
(746,1008,q),
(690,994,o),
(641,972,q),
(547,930,o),
(483,866,q),
(483,219,l),
(486,141,o),
(540,123,q),
(556,118,o),
(577.5,114,q),
(599,110,o),
(617,104.5,q),
(635,99,o),
(645,92,q),
(662,79,o),
(662,50,q),
(662,15,o),
(646,-5,q)
);
}
);
width = 1472;
}
);
unicode = 110;
},
{
category = Letter;
glyphname = o;
layers = (
{
layerId = "3ab791a5-0594-4336-bd7a-6e9e95a35031";
name = Fore;
shapes = (
{
closed = 1;
nodes = (
(99,674,o),
(123,771,q),
(147,868,o),
(189,942,q),
(231,1016,o),
(288,1068.5,q),
(345,1121,o),
(410,1154,q),
(537,1219,o),
(689,1219,q),
(884,1219,o),
(1020,1077,q),
(1171,921,o),
(1171,665,q),
(1171,329,o),
(988,142,q),
(829,-19,o),
(607,-19,q),
(375,-19,o),
(235,144,q),
(99,301,o),
(99,552,q)
);
},
{
closed = 1;
nodes = (
(733,144,o),
(786,175.5,q),
(839,207,o),
(876,262,q),
(950,376,o),
(950,558,q),
(950,758,o),
(872,898,q),
(784,1059,o),
(619,1059,q),
(486,1059,o),
(406,957,q),
(321,849,o),
(321,655,q),
(321,412,o),
(428,271,q),
(524,144,o),
(666,144,q)
);
}
);
width = 1270;
}
);
unicode = 111;
},
{
category = Letter;
glyphname = p;
layers = (
{
layerId = "3ab791a5-0594-4336-bd7a-6e9e95a35031";
name = Fore;
shapes = (
{
closed = 1;
nodes = (
(633,-391,o),
(633,-417,q),
(633,-443,o),
(610,-461.5,q),
(587,-480,o),
(554,-492,q),
(491,-514,o),
(433,-514,q),
(375,-514,o),
(337,-506,q),
(299,-498,o),
(274,-478,q),
(226,-438,o),
(226,-343,q),
(226,890,l),
(226,984,o),
(191,1007,q),
(177,1016,o),
(154,1016,q),
(131,1016,o),
(117.5,1009,q),
(104,1002,o),
(95.5,999,q),
(87,996,o),
(81,999.5,q),
(75,1003,o),
(69,1010,q),
(54,1028,o),
(54,1044.5,q),
(54,1061,o),
(66.5,1080.5,q),
(79,1100,o),
(107,1125.5,q),
(135,1151,o),
(171,1172,q),
(252,1219,o),
(333,1219,q),
(431,1219,o),
(446,1072,q),
(603,1219,o),
(788,1219,q),
(992,1219,o),
(1122,1078,q),
(1263,926,o),
(1263,654,q),
(1263,451,o),
(1171,291,q),
(1087,145,o),
(940,62,q),
(799,-19,o),
(640,-19,q),
(551,-19,o),
(449,9,q),
(449,-130,l),
(449,-292,o),
(467.5,-329.5,q),
(486,-367,o),
(505.5,-374,q),
(525,-381,o),
(550.5,-381,q),
(576,-381,o),
(620,-374,q)
);
},
{
closed = 1;
nodes = (
(449,222,l),
(544,141,o),
(678,141,q),
(834,141,o),
(932,256,q),
(1036,379,o),
(1036,591,q),
(1036,814,o),
(944,928,q),
(862,1031,o),
(716,1031,q),
(570,1031,o),
(449,916,q)
);
}
);
width = 1369;
}
);
unicode = 112;
},
{
category = Letter;
glyphname = q;
layers = (
{
layerId = "3ab791a5-0594-4336-bd7a-6e9e95a35031";
name = Fore;
shapes = (
{
closed = 1;
nodes = (
(772,-20,o),
(581,-20,q),
(376,-20,o),
(248,120,q),
(107,274,o),
(107,545,q),
(107,849,o),
(300,1040,q),
(388,1127,o),
(499.5,1172.5,q),
(611,1218,o),
(731.5,1218,q),
(852,1218,o),
(966,1178,q),
(1007,1221,o),
(1065,1221,q),
(1111,1221,o),
(1130,1184,q),
(1152,1143,o),
(1152,1042,q),
(1152,-130,l),
(1152,-253,o),
(1163,-286,q),
(1174,-319,o),
(1190,-330.5,q),
(1206,-342,o),
(1227,-342,q),
(1258,-342,o),
(1277.5,-335,q),
(1297,-328,o),
(1303,-328.5,q),
(1309,-329,o),
(1314,-333,q),
(1329,-344,o),
(1329,-362,q),
(1329,-380,o),
(1318,-401,q),
(1307,-422,o),
(1281.5,-443.5,q),
(1256,-465,o),
(1223,-480,q),
(1152,-514,o),
(1083,-514,q),
(1014,-514,o),
(971.5,-468,q),
(929,-422,o),
(929,-323,q),
(929,132,l)
);
},
{
closed = 1;
nodes = (
(830,1058,o),
(691,1058,q),
(535,1058,o),
(438,943,q),
(334,820,o),
(334,608,q),
(334,384,o),
(425,270,q),
(507,168,o),
(656,168,q),
(805,168,o),
(929,292,q),
(929,968,l)
);
}
);
width = 1354;
}
);
unicode = 113;
},
{
category = Letter;
glyphname = r;
layers = (
{
layerId = "3ab791a5-0594-4336-bd7a-6e9e95a35031";
name = Fore;
shapes = (
{
closed = 1;
nodes = (
(640,0,o),
(597,0,q),
(258,0,l),
(162,0,o),
(135,34,q),
(124,47,o),
(124,64,q),
(124,106,o),
(140,126,q),
(164,118,o),
(184.5,118,q),
(205,118,o),
(219,123.5,q),
(233,129,o),
(241,142,q),
(255,166,o),
(255,236,q),
(255,890,l),
(255,984,o),
(220,1007,q),
(206,1016,o),
(183,1016,q),
(160,1016,o),
(146.5,1009,q),
(133,1002,o),
(124.5,999,q),
(116,996,o),
(110,999.5,q),
(104,1003,o),
(98,1010,q),
(83,1028,o),
(83,1044.5,q),
(83,1061,o),
(95.5,1080.5,q),
(108,1100,o),
(136,1125.5,q),
(164,1151,o),
(200,1172,q),
(281,1219,o),
(362,1219,q),
(454,1219,o),
(471,1099,q),
(476,1064,o),
(477,1026,q),
(623,1155,o),
(778,1203,q),
(830,1219,o),
(872.5,1219,q),
(915,1219,o),
(942.5,1207,q),
(970,1195,o),
(986,1174,q),
(1016,1133,o),
(1016,1069,q),
(1016,1005,o),
(1010,967,q),
(1004,929,o),
(995,900,q),
(977,841,o),
(961,825,q),
(933,796,o),
(886,796,q),
(838,796,o),
(838,824,q),
(838,931,o),
(829,961,q),
(812,1016,o),
(765,1016,q),
(718,1016,o),
(680,1005.5,q),
(642,995,o),
(606,977,q),
(533,941,o),
(478,884,q),
(478,219,l),
(481,140,o),
(547,123,q),
(566,118,o),
(590,114,q),
(614,110,o),
(631.5,104.5,q),
(649,99,o),
(659,92,q),
(676,79,o),
(676,50,q),
(676,14,o),
(661,-5,q)
);
}
);
width = 1052;
}
);
unicode = 114;
},
{
category = Letter;
glyphname = s;
layers = (
{
layerId = "3ab791a5-0594-4336-bd7a-6e9e95a35031";
name = Fore;
shapes = (
{
closed = 1;
nodes = (
(794,1018,o),
(666,1068,q),
(625,1084,o),
(577.5,1084,q),
(530,1084,o),
(489.5,1076,q),
(449,1068,o),
(418,1051,q),
(348,1013,o),
(348,942,q),
(348,874,o),
(406,824,q),
(470,771,o),
(644,693.5,q),
(818,616,o),
(912.5,524.5,q),
(1007,433,o),
(1007,314,q),
(1007,180,o),
(897,88,q),
(768,-19,o),
(540,-19,q),
(261,-19,o),
(154,100,q),
(117,142,o),
(117,207,q),
(117,364,o),
(194,390,q),
(213,396,o),
(230,396,q),
(277,396,o),
(281,367,q),
(303,117,o),
(561,117,q),
(716,117,o),
(768,204,q),
(785,232,o),
(785,272,q),
(785,312,o),
(759.5,345,q),
(734,378,o),
(689,406.5,q),
(644,435,o),
(582,462,q),
(449,522,l),
(143,662,o),
(143,894,q),
(143,1044,o),
(276,1134,q),
(402,1219,o),
(601,1219,q),
(871,1219,o),
(937,1102,q),
(954,1072,o),
(954,1036,q),
(954,1000,o),
(950,971.5,q),
(946,943,o),
(940,920,q),
(930,876,o),
(917,858,q),
(891,839,o),
(842.5,839,q),
(794,839,o),
(794,864,q)
);
}
);
width = 1114;
}
);
unicode = 115;
},
{
category = Letter;
glyphname = t;
layers = (
{
layerId = "3ab791a5-0594-4336-bd7a-6e9e95a35031";
name = Fore;
shapes = (
{
closed = 1;
nodes = (
(451,419,l),
(451,254,o),
(468,220.5,q),
(485,187,o),
(508,180.5,q),
(531,174,o),
(567,174,q),
(603,174,o),
(632.5,179.5,q),
(662,185,o),
(688,194,q),
(714,203,o),
(738,214,q),
(787,235,l),
(804,241,o),
(825,200,q),
(831,189,o),
(831,174.5,q),
(831,160,o),
(819,137,q),
(807,114,o),
(772.5,84.5,q),
(738,55,o),
(692,32,q),
(592,-19,o),
(512.5,-19,q),
(433,-19,o),
(383,-10,q),
(333,-1,o),
(298,26,q),
(226,82,o),
(226,231,q),
(226,1018,l),
(127,1018,l),
(96,1018,o),
(82,1038,q),
(58,1069,o),
(58,1090,q),
(58,1125,o),
(75,1129,q),
(234,1156,o),
(300,1365,q),
(319,1428,o),
(330,1514,q),
(378,1522,o),
(402.5,1522,q),
(427,1522,o),
(445,1497,q),
(463,1472,o),
(462.5,1439,q),
(462,1406,o),
(461,1377,q),
(460,1348,o),
(459,1314,q),
(455,1174,l),
(801,1174,l),
(814,1151,o),
(814,1125,q),
(814,1094,l),
(814,1052,o),
(769,1025.5,q),
(724,999,o),
(669.5,999,q),
(615,999,o),
(591.5,1000.5,q),
(568,1002,o),
(546,1004,q),
(502,1010,l),
(479,1012,o),
(453,1014,q),
(453,1003,l),
(452,682,l)
);
}
);
width = 887;
}
);
unicode = 116;
},
{
category = Letter;
glyphname = u;
layers = (
{
layerId = "3ab791a5-0594-4336-bd7a-6e9e95a35031";
name = Fore;
shapes = (
{
closed = 1;
nodes = (
(193,947,o),
(184.5,981.5,q),
(176,1016,o),
(150,1016,q),
(131,1016,o),
(120,1012,q),
(96,1002,l),
(89,1000,o),
(79,1010,q),
(60,1031,o),
(60,1048.5,q),
(60,1066,o),
(71.5,1085.5,q),
(83,1105,o),
(106.5,1130,q),
(130,1155,o),
(160,1174,q),
(228,1219,o),
(283,1219,q),
(338,1219,o),
(361,1200,q),
(384,1181,o),
(396,1150,q),
(416,1100,o),
(416,999,q),
(416,373,l),
(416,204,o),
(518,184,q),
(549,178,o),
(591.5,178,q),
(634,178,o),
(682.5,189,q),
(731,200,o),
(775,218,q),
(860,253,o),
(925,307,q),
(925,890,l),
(925,985,o),
(891,1007,q),
(877,1016,o),
(854,1016,q),
(831,1016,o),
(817.5,1009,q),
(804,1002,o),
(795.5,999,q),
(787,996,o),
(781,999.5,q),
(775,1003,o),
(768,1010,q),
(753,1027,o),
(753,1044,q),
(753,1061,o),
(765.5,1080.5,q),
(778,1100,o),
(806,1125.5,q),
(834,1151,o),
(870,1172,q),
(951,1219,o),
(1032,1219,q),
(1130,1219,o),
(1144,1080,q),
(1148,1041,o),
(1148,999,q),
(1148,407,l),
(1148,253,o),
(1160,215,q),
(1172,177,o),
(1189,165.5,q),
(1206,154,o),
(1231,154,q),
(1256,154,o),
(1272,162,q),
(1302,175,l),
(1315,178,o),
(1325,163,q),
(1346,132,o),
(1331,107,q),
(1316,82,o),
(1284.5,59,q),
(1253,36,o),
(1214,19,q),
(1041,-57,o),
(968,22,q),
(930,63,o),
(925,152,q),
(778,39,o),
(624,-4,q),
(568,-19,o),
(506.5,-19,q),
(445,-19,o),
(386.5,-2,q),
(328,15,o),
(285,53,q),
(193,134,o),
(193,303,q),
(193,890,l)
);
}
);
width = 1370;
}
);
unicode = 117;
},
{
category = Letter;
glyphname = v;
layers = (
{
layerId = "3ab791a5-0594-4336-bd7a-6e9e95a35031";
name = Fore;
shapes = (
{
closed = 1;
nodes = (
(143,921,o),
(133,949.5,q),
(123,978,o),
(112,1002,q),
(87,1058,o),
(67,1058,q),
(54,1058,o),
(38,1055,q),
(22,1052,o),
(12,1066,q),
(2,1080,o),
(2,1101,q),
(2,1122,o),
(21.5,1144,q),
(41,1166,o),
(70,1182,q),
(133,1219,o),
(170,1219,q),
(207,1219,o),
(229,1217,q),
(251,1215,o),
(270,1202,q),
(310,1176,o),
(337,1090,q),
(630,216,l),
(700,357,o),
(734,432,q),
(796,578,l),
(908,854,o),
(908,966,q),
(908,979,l),
(908,1029,o),
(885.5,1058,q),
(863,1087,o),
(806,1093,q),
(796,1109,o),
(796,1126.5,q),
(796,1144,o),
(815.5,1161.5,q),
(835,1179,o),
(865,1192,q),
(927,1219,o),
(1000.5,1219,q),
(1074,1219,o),
(1114.5,1196.5,q),
(1155,1174,o),
(1155,1108,q),
(1155,968,o),
(965,551,q),
(874,360,l),
(780,170,o),
(732,102,q),
(646,-19,o),
(581,-19,q),
(534,-19,o),
(497,18,q),
(484,31,o),
(477,49,q)
);
}
);
width = 1231;
}
);
unicode = 118;
},
{
category = Letter;
glyphname = w;
layers = (
{
layerId = "3ab791a5-0594-4336-bd7a-6e9e95a35031";
name = Fore;
shapes = (
{
closed = 1;
nodes = (
(125,956,l),
(89,1058,o),
(62,1058,q),
(50,1058,o),
(34,1055,q),
(18,1052,o),
(8,1066,q),
(-2,1080,o),
(-2,1101,q),
(-2,1122,o),
(15,1144,q),
(32,1166,o),
(58,1182,q),
(116,1219,o),
(159.5,1219,q),
(203,1219,o),
(224,1217,q),
(245,1215,o),
(264,1203,q),
(302,1178,o),
(328,1090,q),
(585,220,l),
(680,500,o),
(708,590,q),
(807,924,o),
(840,1084,q),
(847,1120,o),
(906,1145,q),
(952,1164,o),
(984,1164,q),
(1016,1164,o),
(1026.5,1159.5,q),
(1037,1155,o),
(1042,1143,q),
(1054,1119,o),
(1060,1085,q),
(1326,213,l),
(1401,396,o),
(1428,470,q),
(1480,616,l),
(1563,855,o),
(1563,989,q),
(1563,1084,o),
(1471,1095,q),
(1461,1111,o),
(1461,1128.5,q),
(1461,1146,o),
(1478,1163.5,q),
(1495,1181,o),
(1522,1194,q),
(1576,1219,o),
(1631.5,1219,q),
(1687,1219,o),
(1717,1213,q),
(1747,1207,o),
(1765,1192,q),
(1799,1162,o),
(1799,1102.5,q),
(1799,1043,o),
(1786,982.5,q),
(1773,922,o),
(1751,850,q),
(1729,778,o),
(1700,699,q),
(1591,409,o),
(1541,301,q),
(1468,149,l),
(1446,105,o),
(1434,85,q),
(1409,46,l),
(1367,-19,o),
(1310,-19,q),
(1248,-19,o),
(1208,14,q),
(1192,28,o),
(1185,49,q),
(937,765,l),
(837,452,o),
(810,373,q),
(728,143,o),
(711,108.5,q),
(694,74,o),
(681,52.5,q),
(668,31,o),
(652,16,q),
(616,-19,o),
(573,-19,q),
(513,-19,o),
(470,16,q),
(454,29,o),
(446,49,q)
);
}
);
width = 1869;
}
);
unicode = 119;
},
{
category = Letter;
glyphname = x;
layers = (
{
layerId = "3ab791a5-0594-4336-bd7a-6e9e95a35031";
name = Fore;
shapes = (
{
closed = 1;
nodes = (
(93,131,o),
(127,186.5,q),
(161,242,o),
(218.5,309.5,q),
(276,377,o),
(354,455,q),
(518,622,l),
(313,922,l),
(239,1033,o),
(175,1033,q),
(148,1033,o),
(128.5,1024.5,q),
(109,1016,o),
(97.5,1016,q),
(86,1016,o),
(79,1021,q),
(72,1026,o),
(67,1034,q),
(47,1064,o),
(72.5,1101,q),
(98,1138,o),
(128,1162,q),
(201,1219,o),
(290,1219,q),
(349,1219,o),
(377,1202,q),
(427,1173,o),
(465,1104,q),
(677,709,l),
(810,845,o),
(878,962,q),
(901,1007,o),
(901,1038,q),
(901,1091,o),
(799,1103,q),
(790,1118,o),
(790,1135,q),
(790,1152,o),
(809.5,1168.5,q),
(829,1185,o),
(858,1196,q),
(916,1219,o),
(988,1219,q),
(1060,1219,o),
(1102.5,1186.5,q),
(1145,1154,o),
(1145,1113.5,q),
(1145,1073,o),
(1127,1033,q),
(1109,993,o),
(1078,948,q),
(1047,903,o),
(1007,855,q),
(967,807,o),
(923,760,q),
(804,637,o),
(750,589,q),
(963,282,l),
(1003,226,o),
(1035.5,191.5,q),
(1068,157,o),
(1100,157,q),
(1132,157,o),
(1152,165,q),
(1196,183,o),
(1208,166,q),
(1229,135,o),
(1207,97.5,q),
(1185,60,o),
(1158,36,q),
(1094,-19,o),
(1019,-19,q),
(870,-19,o),
(807,108,q),
(589,500,l),
(414,313,o),
(368,194,q),
(359,173,o),
(359,150.5,q),
(359,128,o),
(388.5,112.5,q),
(418,97,o),
(461,92,q),
(471,82,o),
(471,62,q),
(471,42,o),
(453,27,q),
(435,12,o),
(407,2,q),
(317,-30,o),
(214,-14,q),
(93,5,o),
(93,94,q)
);
}
);
width = 1247;
}
);
unicode = 120;
},
{
category = Letter;
glyphname = y;
layers = (
{
layerId = "3ab791a5-0594-4336-bd7a-6e9e95a35031";
name = Fore;
shapes = (
{
closed = 1;
nodes = (
(39,1054,l),
(17,1054,o),
(8,1084,q),
(5,1092,o),
(5,1107,q),
(5,1122,o),
(22,1144,q),
(39,1166,o),
(66,1182,q),
(126,1219,o),
(193,1219,q),
(246,1219,o),
(269,1204,q),
(314,1176,o),
(339,1090,q),
(644,205,l),
(738,414,o),
(773,501,q),
(834,656,l),
(919,884,o),
(919,953.5,q),
(919,1023,o),
(895,1055,q),
(871,1087,o),
(812,1093,q),
(801,1105,o),
(801,1125.5,q),
(801,1146,o),
(819.5,1163.5,q),
(838,1181,o),
(868,1194,q),
(929,1219,o),
(993.5,1219,q),
(1058,1219,o),
(1085,1212.5,q),
(1112,1206,o),
(1128,1191,q),
(1159,1163,o),
(1159,1087,q),
(1159,1019,o),
(1052,728,q),
(952,468,o),
(902,351,q),
(718,-59,o),
(625,-223,q),
(532,-387,o),
(449,-450.5,q),
(366,-514,o),
(274,-514,q),
(182,-514,o),
(135,-474.5,q),
(88,-435,o),
(88,-366,q),
(88,-314,o),
(114,-288,q),
(163,-239,o),
(218,-250,q),
(227,-325,o),
(308,-325,q),
(381,-325,o),
(439,-230,q),
(466,-185,o),
(492,-125,q),
(550,4,l),
(570,45,l),
(512,53,o),
(472,102,q),
(456,121,o),
(446,150,q),
(166,885,l),
(142,944,l),
(96,1058,o),
(60,1058,q)
);
}
);
width = 1203;
}
);
unicode = 121;
},
{
category = Letter;
glyphname = z;
layers = (
{
layerId = "3ab791a5-0594-4336-bd7a-6e9e95a35031";
name = Fore;
shapes = (
{
closed = 1;
nodes = (
(941,367,o),
(999,367,q),
(1026,367,o),
(1034,356.5,q),
(1042,346,o),
(1052,322.5,q),
(1062,299,o),
(1070,268,q),
(1088,198,o),
(1088,130,q),
(1088,62,o),
(1053,31,q),
(1018,0,o),
(939,0,q),
(244,0,l),
(180,0,o),
(145,53,q),
(112,86,o),
(112,142,q),
(112,173,o),
(125,186,q),
(515,664,o),
(593,767,q),
(671,870,o),
(712,932,q),
(753,994,o),
(772,1018,q),
(811,1068,l),
(486,1057,l),
(397,1053,o),
(353,1016,q),
(309,979,o),
(310,893,q),
(308,872,o),
(256,872,q),
(229,872,o),
(221,882.5,q),
(213,893,o),
(201.5,910.5,q),
(190,928,o),
(180,952,q),
(157,1006,o),
(157,1072,q),
(157,1138,o),
(189.5,1169,q),
(222,1200,o),
(301,1200,q),
(986,1200,l),
(1032,1200,o),
(1054,1104,q),
(1060,1080,o),
(1060,1063,q),
(1060,1046,o),
(1052,1035,q),
(895,826,l),
(570,410,l),
(490,307,o),
(448.5,247,q),
(407,187,o),
(392,168,q),
(363,131,l),
(763,146,l),
(853,151,o),
(896.5,205.5,q),
(940,260,o),
(939,345,q)
);
}
);
width = 1173;
}
);
unicode = 122;
},
{
category = Letter;
glyphname = braceleft;
layers = (
{
layerId = "3ab791a5-0594-4336-bd7a-6e9e95a35031";
name = Fore;
shapes = (
{
closed = 1;
nodes = (
(320,-98,o),
(320,-26.5,q),
(320,45,o),
(327,104,q),
(334,163,o),
(343,220,q),
(366,364,o),
(366,421.5,q),
(366,479,o),
(352.5,513.5,q),
(339,548,o),
(316.5,574.5,q),
(294,601,o),
(266,621,q),
(238,641,o),
(209,654,q),
(157,679,o),
(105,689,q),
(97,701,o),
(97,738,q),
(97,776,o),
(105,788,q),
(265,820,o),
(336,930,q),
(366,976,o),
(366,1034.5,q),
(366,1093,o),
(359,1147,q),
(352,1201,o),
(343,1258,q),
(320,1402,o),
(320,1488,q),
(320,1574,o),
(346,1640.5,q),
(372,1707,o),
(415.5,1759,q),
(459,1811,o),
(514,1848.5,q),
(569,1886,o),
(628,1910,q),
(741,1958,o),
(844,1958,q),
(891,1958,o),
(914,1920,q),
(933,1889,o),
(928,1859,q),
(764,1859,o),
(664,1763,q),
(556,1661,o),
(556,1479,q),
(556,1398,o),
(573,1295,q),
(605,1101,o),
(605,1044,q),
(605,987,o),
(576.5,934,q),
(548,881,o),
(504,843,q),
(428,776,o),
(313,741,q),
(313,735,l),
(503,677,o),
(576,541,q),
(605,488,o),
(605,436,q),
(605,384,o),
(597.5,334,q),
(590,284,o),
(580,227,q),
(556,80,o),
(556,-8,q),
(556,-96,o),
(584.5,-167,q),
(613,-238,o),
(664,-286,q),
(766,-383,o),
(928,-383,q),
(933,-412,o),
(919,-435,q),
(891,-482,o),
(845,-482,q),
(799,-482,o),
(742.5,-470.5,q),
(686,-459,o),
(627.5,-434.5,q),
(569,-410,o),
(514,-372.5,q),
(459,-335,o),
(415.5,-283,q),
(372,-231,o),
(346,-164.5,q)
);
}
);
width = 1026;
}
);
unicode = 123;
},
{
category = Letter;
glyphname = bar;
layers = (
{
layerId = "3ab791a5-0594-4336-bd7a-6e9e95a35031";
name = Fore;
shapes = (
{
closed = 1;
nodes = (
(340,1873,o),
(374.5,1873,q),
(409,1873,o),
(430,1869.5,q),
(451,1866,o),
(468,1858,q),
(506,1842,o),
(506,1814,q),
(506,-210,l),
(476,-221,o),
(446,-221,q),
(416,-221,o),
(394.5,-217.5,q),
(373,-214,o),
(356,-206,q),
(318,-190,o),
(318,-165,q),
(318,1860,l)
);
}
);
width = 825;
}
);
unicode = 124;
},
{
category = Letter;
glyphname = asciitilde;
layers = (
{
layerId = "3ab791a5-0594-4336-bd7a-6e9e95a35031";
name = Fore;
shapes = (
{
closed = 1;
nodes = (
(264,1029,o),
(183,902,q),
(122,919,o),
(122,977,q),
(122,1038,o),
(212,1130,q),
(312,1231,o),
(426,1231,q),
(493,1231,o),
(542,1204.5,q),
(591,1178,o),
(619.5,1159.5,q),
(648,1141,o),
(678,1125,q),
(749,1088,o),
(820,1088,q),
(921,1088,o),
(1009,1217,q),
(1047,1217,o),
(1065,1168,q),
(1070,1155,o),
(1070,1133,q),
(1070,1111,o),
(1044,1068,q),
(1018,1025,o),
(976,985,q),
(874,889,o),
(766,889,q),
(699,889,o),
(649.5,915,q),
(600,941,o),
(572,959,q),
(544,977,o),
(514,992,q),
(443,1029,o),
(378,1029,q)
);
}
);
width = 1192;
}
);
unicode = 126;
},
{
category = Letter;
glyphname = cent;
layers = (
{
layerId = "3ab791a5-0594-4336-bd7a-6e9e95a35031";
name = Fore;
shapes = (
{
closed = 1;
nodes = (
(866,886,l),
(866,977,o),
(814,1015,q),
(778,1041,o),
(727,1052,q),
(680,169,l),
(686,168,o),
(692,168,q),
(703,168,l),
(842,168,o),
(970,244,q),
(1002,262,o),
(1019,276,q),
(1039,276,o),
(1061,234,q),
(1067,222,o),
(1067,206,q),
(1067,190,o),
(1037,153,q),
(1007,116,o),
(954,79,q),
(823,-13,o),
(670,-18,q),
(663,-159,l),
(641,-167,o),
(621,-167,q),
(601,-167,o),
(583.5,-161.5,q),
(566,-156,o),
(552,-146,q),
(523,-124,o),
(523,-95,q),
(527,-7,l),
(338,30,o),
(228,173,q),
(114,322,o),
(114,555,q),
(114,819,o),
(259,999,q),
(388,1159,o),
(591,1205,q),
(600,1368,l),
(618,1377,o),
(638.5,1377,q),
(659,1377,o),
(676.5,1371.5,q),
(694,1366,o),
(708,1356,q),
(740,1335,o),
(740,1302,q),
(735,1219,l),
(875,1215,o),
(967,1152,q),
(1064,1087,o),
(1064,982,q),
(1064,922,o),
(1038,892,q),
(993,840,o),
(940.5,840,q),
(888,840,o),
(865,854,q)
);
},
{
closed = 1;
nodes = (
(461,1015,o),
(399,886,q),
(344,772,o),
(344,618,q),
(344,315,o),
(539,208,q),
(583,1047,l)
);
}
);
width = 1164;
}
);
unicode = 162;
},
{
category = Letter;
glyphname = sterling;
layers = (
{
layerId = "3ab791a5-0594-4336-bd7a-6e9e95a35031";
name = Fore;
shapes = (
{
closed = 1;
nodes = (
(1286,182,o),
(1364,294,q),
(1437,287,o),
(1456,253,q),
(1460,233,o),
(1460,203,q),
(1460,173,o),
(1445,132,q),
(1430,91,o),
(1394,58,q),
(1313,-19,o),
(1155,-19,q),
(1009,-19,o),
(812,46,q),
(739,71,o),
(669,91.5,q),
(599,112,o),
(542,112,q),
(485,112,o),
(456,108.5,q),
(427,105,o),
(402.5,97.5,q),
(378,90,o),
(355.5,79,q),
(333,68,o),
(306,54,q),
(248,20,l),
(215,2,o),
(172,-19,q),
(153,-8,o),
(138.5,17.5,q),
(124,43,o),
(124,65.5,q),
(124,88,o),
(128,100,q),
(169,140,l),
(249,217,o),
(367,248,q),
(485,393,o),
(485,608,q),
(485,634,o),
(482,663,q),
(252,663,l),
(244,685,o),
(244,706,q),
(244,727,o),
(249.5,746,q),
(255,765,o),
(265,780,q),
(287,812,o),
(316,812,q),
(457,812,l),
(429,949,o),
(429,1032,q),
(429,1115,o),
(453,1188,q),
(477,1261,o),
(517.5,1319,q),
(558,1377,o),
(612,1421,q),
(666,1465,o),
(726,1494,q),
(844,1552,o),
(968,1552,q),
(1197,1552,o),
(1284,1436,q),
(1316,1395,o),
(1316,1346.5,q),
(1316,1298,o),
(1304,1266,q),
(1292,1234,o),
(1274,1208,q),
(1239,1159,o),
(1195,1135,q),
(1158,1132,o),
(1135,1155,q),
(1136,1163,o),
(1136,1170,q),
(1136,1183,l),
(1136,1281,o),
(1074,1336,q),
(1015,1386,o),
(915,1386,q),
(796,1386,o),
(733,1323,q),
(654,1244,o),
(654,1062,q),
(654,1012,o),
(669,949.5,q),
(684,887,o),
(695,812,q),
(1047,812,l),
(1056,794,o),
(1056,773,q),
(1056,752,o),
(1050.5,733,q),
(1045,714,o),
(1036,698,q),
(1014,663,o),
(981,663,q),
(706,663,l),
(702,417,o),
(563,274,q),
(577,275,o),
(592,275,q),
(625,275,l),
(704,275,o),
(824,243,q),
(944,211,o),
(1009,196.5,q),
(1074,182,o),
(1135,182,q)
);
}
);
width = 1650;
}
);
unicode = 163;
},
{
category = Letter;
glyphname = currency;
layers = (
{
layerId = "3ab791a5-0594-4336-bd7a-6e9e95a35031";
name = Fore;
shapes = (
{
closed = 1;
nodes = (
(806,225,o),
(660.5,225,q),
(515,225,o),
(392,308,q),
(174,82,l),
(89,116,o),
(46,212,q),
(272,428,l),
(187,548,o),
(187,700,q),
(187,852,o),
(274,974,q),
(49,1195,l),
(93,1271,o),
(176,1323,q),
(396,1092,l),
(516,1174,o),
(661,1174,q),
(804,1174,o),
(927,1092,q),
(1148,1323,l),
(1209,1301,o),
(1257,1231,q),
(1270,1212,o),
(1277,1195,q),
(1049,973,l),
(1136,853,o),
(1136,699.5,q),
(1136,546,o),
(1048,424,q),
(1275,203,l),
(1232,128,o),
(1148,75,q),
(927,306,l)
);
},
{
closed = 1;
nodes = (
(722,395,o),
(776.5,419,q),
(831,443,o),
(872,484,q),
(959,574,o),
(959,699,q),
(959,824,o),
(871.5,913.5,q),
(784,1003,o),
(661,1003,q),
(537,1003,o),
(451,914,q),
(364,823,o),
(364,699,q),
(364,575,o),
(451,484,q),
(537,395,o),
(660,395,q)
);
}
);
width = 1320;
}
);
unicode = 164;
},
{
category = Letter;
glyphname = yen;
layers = (
{
layerId = "3ab791a5-0594-4336-bd7a-6e9e95a35031";
name = Fore;
shapes = (
{
closed = 1;
nodes = (
(753,122,o),
(753,226,q),
(753,356,l),
(378,353,l),
(370,375,o),
(370,396,q),
(370,417,o),
(375.5,436,q),
(381,455,o),
(391,470,q),
(413,502,o),
(442,502,q),
(753,499,l),
(753,674,l),
(386,671,l),
(378,693,o),
(378,714,q),
(378,735,o),
(383.5,754,q),
(389,773,o),
(399,788,q),
(421,821,o),
(450,821,q),
(715,818,l),
(303,1309,l),
(236,1388,o),
(195,1403,q),
(154,1418,o),
(132,1434,q),
(110,1450,o),
(110,1478,q),
(110,1520,o),
(126,1540,q),
(149,1532,o),
(225,1532,q),
(605,1532,l),
(672,1532,o),
(696,1523,q),
(743,1505,o),
(743,1455,q),
(743,1425,o),
(724,1404,q),
(688,1414,o),
(659.5,1414,q),
(631,1414,o),
(617.5,1410,q),
(604,1406,o),
(592,1397,q),
(562,1376,o),
(562,1347,q),
(562,1304,o),
(616,1238,q),
(890,889,l),
(1001,1012,o),
(1054,1076,q),
(1228,1293,o),
(1231.5,1310.5,q),
(1235,1328,o),
(1235,1349,q),
(1235,1388,o),
(1158,1406,q),
(1104,1418,l),
(1056,1428,o),
(1045,1448.5,q),
(1034,1469,o),
(1034,1496.5,q),
(1034,1524,o),
(1050,1540,q),
(1073,1532,o),
(1139,1532,q),
(1485,1532,l),
(1554,1532,o),
(1578,1523,q),
(1628,1505,o),
(1628,1454,q),
(1628,1425,o),
(1609,1404,q),
(1578,1413,o),
(1555,1413,q),
(1532,1413,o),
(1503.5,1387.5,q),
(1475,1362,o),
(1444,1325,q),
(1383,1248,l),
(1352,1207,o),
(1324,1174,q),
(1024,817,l),
(1358,821,l),
(1367,803,o),
(1367,781.5,q),
(1367,760,o),
(1361.5,741,q),
(1356,722,o),
(1346,706,q),
(1325,671,o),
(1292,671,q),
(986,674,l),
(986,499,l),
(1350,502,l),
(1359,484,o),
(1359,463,q),
(1359,442,o),
(1353.5,423,q),
(1348,404,o),
(1338,388,q),
(1317,353,o),
(1284,353,q),
(986,356,l),
(986,226,l),
(986,163,o),
(1044,142,q),
(1070,132,o),
(1099,127.5,q),
(1128,123,o),
(1154,116,q),
(1212,98,o),
(1212,50,q),
(1212,15,o),
(1197,-8,q),
(1174,0,o),
(1098,0,q),
(678,0,l),
(580,0,o),
(555,37,q),
(544,53,o),
(544,72,q),
(544,112,o),
(560,132,q),
(594,122,o),
(643,122,q)
);
}
);
width = 1647;
}
);
unicode = 165;
},
{
category = Letter;
glyphname = brokenbar;
layers = (
{
layerId = "3ab791a5-0594-4336-bd7a-6e9e95a35031";
name = Fore;
shapes = (
{
closed = 1;
nodes = (
(340,1873,o),
(374.5,1873,q),
(409,1873,o),
(430,1869.5,q),
(451,1866,o),
(468,1858,q),
(506,1842,o),
(506,1814,q),
(506,953,l),
(477,941,o),
(446,941,q),
(415,941,o),
(394,944.5,q),
(373,948,o),
(356,956,q),
(318,972,o),
(318,997,q),
(318,1860,l)
);
},
{
closed = 1;
nodes = (
(340,708,o),
(374.5,708,q),
(409,708,o),
(430,704.5,q),
(451,701,o),
(468,694,q),
(506,677,o),
(506,649,q),
(506,-210,l),
(476,-221,o),
(446,-221,q),
(416,-221,o),
(394.5,-217.5,q),
(373,-214,o),
(356,-206,q),
(318,-190,o),
(318,-165,q),
(318,695,l)
);
}
);
width = 825;
}
);
unicode = 166;
},
{
category = Letter;
glyphname = section;
layers = (
{
layerId = "3ab791a5-0594-4336-bd7a-6e9e95a35031";
name = Fore;
shapes = (
{
closed = 1;
nodes = (
(1050,1762,o),
(748,1762,q),
(615,1762,o),
(535,1698,q),
(459,1638,o),
(459,1547,q),
(459,1404,o),
(687,1283,q),
(841,1197,o),
(898.5,1167.5,q),
(956,1138,o),
(1007,1107.5,q),
(1058,1077,o),
(1105,1040,q),
(1152,1003,o),
(1188,958,q),
(1268,862,o),
(1268,739,q),
(1268,523,o),
(1086,416,q),
(1030,384,o),
(965,364,q),
(1101,288,o),
(1158.5,223,q),
(1216,158,o),
(1242,98.5,q),
(1268,39,o),
(1268,-53,q),
(1268,-145,o),
(1222,-222.5,q),
(1176,-300,o),
(1100,-350,q),
(952,-445,o),
(718,-445,q),
(419,-445,o),
(284,-330,q),
(200,-260,o),
(200,-151,q),
(200,-47,o),
(256,37,q),
(271,56,o),
(303,56,q),
(369,56,o),
(377,22,q),
(383,-42,o),
(394,-93,q),
(405,-144,o),
(434.5,-184.5,q),
(464,-225,o),
(509,-254,q),
(602,-314,o),
(744,-314,q),
(940,-314,o),
(1008,-182,q),
(1032,-137,o),
(1032,-76.5,q),
(1032,-16,o),
(998,30.5,q),
(964,77,o),
(908.5,116.5,q),
(853,156,o),
(782,191,q),
(640,263,l),
(469,344,o),
(390,417.5,q),
(311,491,o),
(270.5,564.5,q),
(230,638,o),
(230,718.5,q),
(230,799,o),
(251.5,855,q),
(273,911,o),
(313,956,q),
(392,1043,o),
(533,1084,q),
(230,1263,o),
(230,1506,q),
(230,1690,o),
(386,1794,q),
(533,1891,o),
(775,1891,q),
(1083,1891,o),
(1178,1752,q),
(1213,1701,o),
(1213,1646.5,q),
(1213,1592,o),
(1206.5,1562.5,q),
(1200,1533,o),
(1190,1510,q),
(1172,1464,o),
(1158,1449,q),
(1135,1424,o),
(1092.5,1424,q),
(1050,1424,o),
(1050,1450,q)
);
},
{
closed = 1;
nodes = (
(459,812,o),
(459,762,q),
(459,712,o),
(491.5,667,q),
(524,622,o),
(574.5,585,q),
(625,548,o),
(687,516,q),
(809,450,l),
(814,447,l),
(965,480,o),
(1015,606,q),
(1032,649,o),
(1032,700.5,q),
(1032,752,o),
(1004.5,793,q),
(977,834,o),
(930.5,869.5,q),
(884,905,o),
(824,936,q),
(700,998,l),
(532,977,o),
(476,850,q)
);
}
);
width = 1486;
}
);
unicode = 167;
},
{
category = Letter;
glyphname = dieresis;
layers = (
{
layerId = "3ab791a5-0594-4336-bd7a-6e9e95a35031";
name = Fore;
shapes = (
{
closed = 1;
nodes = (
(735,1401,o),
(706.5,1411.5,q),
(678,1422,o),
(657,1442,q),
(613,1484,o),
(613,1555,q),
(613,1623,o),
(664,1670,q),
(715,1717,o),
(785,1717,q),
(855,1717,o),
(897,1675,q),
(939,1633,o),
(939,1561,q),
(939,1493,o),
(888,1446,q),
(839,1401,o),
(769,1401,q)
);
},
{
closed = 1;
nodes = (
(228,1401,o),
(199.5,1411.5,q),
(171,1422,o),
(150,1442,q),
(106,1484,o),
(106,1555,q),
(106,1623,o),
(158,1670,q),
(208,1717,o),
(278,1717,q),
(348,1717,o),
(390,1675,q),
(432,1633,o),
(432,1561,q),
(432,1493,o),
(382,1446,q),
(332,1401,o),
(262,1401,q)
);
}
);
width = 1052;
}
);
unicode = 168;
},
{
category = Letter;
glyphname = copyright;
layers = (
{
layerId = "3ab791a5-0594-4336-bd7a-6e9e95a35031";
name = Fore;
shapes = (
{
closed = 1;
nodes = (
(194,922,o),
(346,1181,q),
(493,1433,o),
(745,1580,q),
(1006,1733,o),
(1307,1733,q),
(1609,1733,o),
(1868,1580,q),
(2120,1433,o),
(2268,1181,q),
(2420,920,o),
(2420,619,q),
(2420,316,o),
(2268,56,q),
(2119,-196,o),
(1868,-342,q),
(1609,-493,o),
(1307,-493,q),
(1005,-493,o),
(745,-342,q),
(494,-196,o),
(346,56,q),
(194,315,o),
(194,619,q)
);
},
{
closed = 1;
nodes = (
(356,353,o),
(484,126,q),
(608,-96,o),
(822,-224,q),
(1044,-358,o),
(1307,-358,q),
(1570,-358,o),
(1792,-224,q),
(2006,-96,o),
(2130,126,q),
(2257,351,o),
(2257,616,q),
(2257,882,o),
(2130,1109,q),
(2005,1333,o),
(1792,1462,q),
(1569,1597,o),
(1307,1597,q),
(1045,1597,o),
(822,1462,q),
(609,1333,o),
(484,1109,q),
(356,880,o),
(356,616,q)
);
},
{
closed = 1;
nodes = (
(1560,917,l),
(1560,989,o),
(1535.5,1017.5,q),
(1511,1046,o),
(1486,1060,q),
(1433,1089,o),
(1348.5,1089,q),
(1264,1089,o),
(1197.5,1051.5,q),
(1131,1014,o),
(1089,950,q),
(1009,830,o),
(1009,630,q),
(1009,440,o),
(1114,322,q),
(1221,199,o),
(1397,199,q),
(1546,199,o),
(1681,274,q),
(1714,293,o),
(1732,307,q),
(1753,307,o),
(1774,265,q),
(1780,253,o),
(1780,237,q),
(1780,221,o),
(1747.5,182.5,q),
(1715,144,o),
(1657,106,q),
(1514,12,o),
(1369,12,q),
(1224,12,o),
(1119.5,49.5,q),
(1015,87,o),
(940,160,q),
(779,315,o),
(779,586,q),
(779,895,o),
(980,1081,q),
(1162,1250,o),
(1410,1250,q),
(1564,1250,o),
(1668,1188,q),
(1777,1121,o),
(1777,1013,q),
(1777,953,o),
(1751,923,q),
(1706,871,o),
(1647,871,q),
(1588,871,o),
(1559,885,q)
);
}
);
width = 2614;
}
);
unicode = 169;
},
{
category = Letter;
glyphname = ordfeminine;
layers = (
{
layerId = "3ab791a5-0594-4336-bd7a-6e9e95a35031";
name = Fore;
shapes = (
{
closed = 1;
nodes = (
(521,813,o),
(394,813,q),
(266,813,o),
(189,878,q),
(111,945,o),
(111,1051,q),
(111,1303,o),
(486,1303,q),
(630,1303,l),
(630,1398,l),
(630,1560,o),
(479,1560,q),
(422,1560,o),
(384,1538,q),
(346,1516,o),
(337,1483,q),
(329,1463,o),
(332,1435,q),
(302,1423,o),
(259,1423,q),
(216,1423,o),
(188.5,1447,q),
(161,1471,o),
(161,1512.5,q),
(161,1554,o),
(187,1590,q),
(213,1626,o),
(256,1649,q),
(342,1694,o),
(481,1694,q),
(706,1694,o),
(792,1567,q),
(826,1517,o),
(826,1439,q),
(821,1117,l),
(821,1024,o),
(830,1002,q),
(843,966,o),
(886,966,q),
(905,966,o),
(917.5,972,q),
(930,978,o),
(934.5,973.5,q),
(939,969,o),
(943,961,q),
(954,939,o),
(954,925.5,q),
(954,912,o),
(945.5,897.5,q),
(937,883,o),
(917,867,q),
(897,851,o),
(872,839,q),
(818,813,o),
(771,813,q),
(724,813,o),
(683,838.5,q),
(642,864,o),
(630,917,q)
);
},
{
closed = 1;
nodes = (
(302,956,o),
(444,956,q),
(541,956,o),
(627,1024,q),
(627,1111,o),
(629,1195,q),
(519,1188,l),
(357,1178,o),
(318,1132,q),
(302,1114,o),
(302,1086,q)
);
}
);
width = 998;
}
);
unicode = 170;
},
{
category = Letter;
glyphname = logicalnot;
layers = (
{
layerId = "3ab791a5-0594-4336-bd7a-6e9e95a35031";
name = Fore;
shapes = (
{
closed = 1;
nodes = (
(140,691,o),
(140,721,q),
(140,751,o),
(143.5,772.5,q),
(147,794,o),
(154,811,q),
(171,849,o),
(196,849,q),
(1065,849,l),
(1169,849,o),
(1199,842,q),
(1253,828,o),
(1253,787,q),
(1253,311,l),
(1223,300,o),
(1193,300,q),
(1163,300,o),
(1141.5,303.5,q),
(1120,307,o),
(1103,314,q),
(1065,331,o),
(1065,356,q),
(1065,661,l),
(151,661,l)
);
}
);
width = 1393;
}
);
unicode = 172;
},
{
category = Letter;
glyphname = registered;
layers = (
{
layerId = "3ab791a5-0594-4336-bd7a-6e9e95a35031";
name = Fore;
shapes = (
{
closed = 1;
nodes = (
(91,1257,o),
(216,1473,q),
(336,1682,o),
(545,1806,q),
(758,1932,o),
(1011,1932,q),
(1263,1932,o),
(1476,1806,q),
(1684,1682,o),
(1804,1473,q),
(1929,1257,o),
(1929,1005,q),
(1929,754,o),
(1804,538,q),
(1684,329,o),
(1476,207,q),
(1262,81,o),
(1011,81,q),
(759,81,o),
(545,207,q),
(336,330,o),
(216,538,q),
(91,754,o),
(91,1005,q)
);
},
{
closed = 1;
nodes = (
(241,789,o),
(344,606,q),
(499,329,o),
(803,242,q),
(902,213,o),
(1011,213,q),
(1223,213,o),
(1404,322,q),
(1577,425,o),
(1678,606,q),
(1781,789,o),
(1781,1004,q),
(1781,1218,o),
(1678,1403,q),
(1523,1682,o),
(1219,1770,q),
(1120,1798,o),
(1011,1798,q),
(798,1798,o),
(618,1689,q),
(445,1584,o),
(344,1403,q),
(241,1218,o),
(241,1004,q)
);
},
{
closed = 1;
nodes = (
(587,630,o),
(587,695,q),
(587,714,o),
(597,724,q),
(609,718,o),
(640,718,q),
(671,718,o),
(691,731,q),
(711,744,o),
(713,783,q),
(713,1305,l),
(713,1361,o),
(644,1376,q),
(601,1386,o),
(588,1395.5,q),
(575,1405,o),
(575,1420,q),
(575,1455,o),
(584,1468,q),
(600,1465,o),
(622,1465,q),
(745,1465,l),
(973,1471,l),
(1003,1471,l),
(1303,1471,o),
(1365,1341,q),
(1385,1299,o),
(1385,1256,q),
(1385,1213,o),
(1373,1179,q),
(1361,1145,o),
(1336,1114,q),
(1283,1045,o),
(1185,1011,q),
(1214,989,o),
(1252,938,q),
(1312,858,l),
(1392,750,o),
(1449,750,q),
(1471,750,o),
(1498,760,q),
(1529,760,o),
(1529,717,q),
(1529,694,o),
(1494,668,q),
(1427,617,o),
(1372.5,617,q),
(1318,617,o),
(1278.5,643.5,q),
(1239,670,o),
(1206,709.5,q),
(1173,749,o),
(1146,796,q),
(1094,882,l),
(1035,974,o),
(996,974,q),
(888,974,l),
(888,782,l),
(888,750,o),
(906,738.5,q),
(924,727,o),
(957,721,q),
(990,715,o),
(1012,706,q),
(1034,697,o),
(1034,667.5,q),
(1034,638,o),
(1024,625,q),
(1012,630,o),
(965,630,q),
(661,630,l)
);
},
{
closed = 1;
nodes = (
(911,1379,o),
(888,1361,q),
(888,1061,l),
(900,1060,o),
(911,1060,q),
(922,1060,o),
(933,1060,q),
(1060,1060,o),
(1126.5,1101.5,q),
(1193,1143,o),
(1193,1221,q),
(1193,1377,o),
(981,1378,q)
);
}
);
width = 2021;
}
);
unicode = 174;
},
{
category = Letter;
glyphname = macron;
layers = (
{
layerId = "3ab791a5-0594-4336-bd7a-6e9e95a35031";
name = Fore;
shapes = (
{
closed = 1;
nodes = (
(86,1478,o),
(86,1500,q),
(86,1522,o),
(91.5,1542.5,q),
(97,1563,o),
(107,1579,q),
(130,1615,o),
(158,1615,q),
(889,1615,l),
(898,1597,o),
(898,1574.5,q),
(898,1552,o),
(892.5,1531.5,q),
(887,1511,o),
(878,1494,q),
(855,1456,o),
(823,1456,q),
(94,1456,l)
);
}
);
width = 1044;
}
);
unicode = 175;
},
{
category = Letter;
glyphname = degree;
layers = (
{
layerId = "3ab791a5-0594-4336-bd7a-6e9e95a35031";
name = Fore;
shapes = (
{
closed = 1;
nodes = (
(469,1002,o),
(401,1027,q),
(333,1052,o),
(286,1096,q),
(189,1188,o),
(189,1335,q),
(189,1535,o),
(324,1640,q),
(437,1727,o),
(613,1727,q),
(756,1727,o),
(852,1645,q),
(960,1554,o),
(960,1402,q),
(960,1206,o),
(829,1096,q),
(716,1002,o),
(548,1002,q)
);
},
{
closed = 1;
nodes = (
(551,1141,o),
(593.5,1141,q),
(636,1141,o),
(669.5,1156,q),
(703,1171,o),
(726,1198,q),
(771,1253,o),
(771,1342,q),
(771,1507,o),
(660,1568,q),
(621,1590,o),
(572.5,1590,q),
(524,1590,o),
(489.5,1578,q),
(455,1566,o),
(430,1542,q),
(378,1489,o),
(378,1408.5,q),
(378,1328,o),
(396,1281,q),
(414,1234,o),
(444,1203,q),
(474,1172,o),
(512.5,1156.5,q)
);
}
);
width = 1149;
}
);
unicode = 176;
},
{
category = Letter;
glyphname = plusminus;
layers = (
{
layerId = "3ab791a5-0594-4336-bd7a-6e9e95a35031";
name = Fore;
shapes = (
{
closed = 1;
nodes = (
(157,236,o),
(157,267.5,q),
(157,299,o),
(160.5,320,q),
(164,341,o),
(171,358,q),
(186,394,o),
(212,394,q),
(486,394,l),
(486,664,l),
(151,664,l),
(140,694,o),
(140,723.5,q),
(140,753,o),
(143.5,774,q),
(147,795,o),
(154,812,q),
(172,849,o),
(196,849,q),
(486,849,l),
(486,1203,l),
(512,1216,o),
(543.5,1216,q),
(575,1216,o),
(596.5,1212.5,q),
(618,1209,o),
(635,1202,q),
(674,1184,o),
(674,1156,q),
(674,849,l),
(1004,849,l),
(1017,823,o),
(1017,791,q),
(1017,759,o),
(1013.5,738.5,q),
(1010,718,o),
(1002,702,q),
(985,664,o),
(957,664,q),
(674,664,l),
(674,394,l),
(982,394,l),
(995,368,o),
(995,337,q),
(995,306,o),
(991.5,285.5,q),
(988,265,o),
(980,248,q),
(964,210,o),
(935,210,q),
(168,210,l)
);
}
);
width = 1157;
}
);
unicode = 177;
},
{
category = Letter;
glyphname = twosuperior;
layers = (
{
layerId = "3ab791a5-0594-4336-bd7a-6e9e95a35031";
name = Fore;
shapes = (
{
closed = 1;
nodes = (
(806,1143,l),
(862,1143,o),
(869,1131,q),
(876,1119,o),
(880,1096,q),
(884,1073,o),
(886,1047,q),
(890,1011,o),
(890,977,q),
(890,943,o),
(884.5,925.5,q),
(879,908,o),
(867,894,q),
(841,865,o),
(787,865,q),
(200,865,l),
(186,875,o),
(179,900.5,q),
(172,926,o),
(171,937,q),
(167,986,o),
(178,994,q),
(366,1146,l),
(544,1295,o),
(608,1414,q),
(643,1477,o),
(643,1542,q),
(643,1700,o),
(494,1700,q),
(440,1700,o),
(400,1650,q),
(355,1592,o),
(361,1495,q),
(334,1482,o),
(308,1482,q),
(282,1482,o),
(258,1487,q),
(234,1492,o),
(216,1504,q),
(173,1532,o),
(173,1580.5,q),
(173,1629,o),
(196,1671,q),
(219,1713,o),
(262,1746,q),
(358,1818,o),
(509,1818,q),
(678,1818,o),
(769,1736,q),
(852,1662,o),
(852,1550,q),
(852,1352,o),
(564,1124,q),
(480,1058,o),
(387,999,q),
(516,999,l),
(659,999,o),
(702.5,1019.5,q),
(746,1040,o),
(763.5,1068,q),
(781,1096,o),
(784,1141,q)
);
}
);
width = 1057;
}
);
unicode = 178;
},
{
category = Letter;
glyphname = threesuperior;
layers = (
{
layerId = "3ab791a5-0594-4336-bd7a-6e9e95a35031";
name = Fore;
shapes = (
{
closed = 1;
nodes = (
(855,1451,o),
(712,1364,q),
(839,1323,o),
(879,1214,q),
(892,1179,o),
(892,1125.5,q),
(892,1072,o),
(862.5,1019.5,q),
(833,967,o),
(781,931,q),
(676,858,o),
(504,858,q),
(381,858,o),
(286,914,q),
(184,975,o),
(184,1066,q),
(184,1148,o),
(255,1168,q),
(267,1171,o),
(287,1171,q),
(335,1171,o),
(350,1165,q),
(350,1088,o),
(370,1055,q),
(410,986,o),
(506,986,q),
(693,986,o),
(693,1150,q),
(693,1235,o),
(592,1268,q),
(552,1280,o),
(508,1280,q),
(464,1280,o),
(432,1276,q),
(413,1276,o),
(402,1318,q),
(381,1397,o),
(398,1397,q),
(517,1397,o),
(590,1452,q),
(656,1502,o),
(656,1568.5,q),
(656,1635,o),
(619.5,1666.5,q),
(583,1698,o),
(525,1698,q),
(467,1698,o),
(444,1688,q),
(421,1678,o),
(408,1662,q),
(383,1633,o),
(383,1585,q),
(356,1573,o),
(326.5,1573,q),
(297,1573,o),
(279,1580,q),
(261,1587,o),
(247,1600,q),
(215,1630,o),
(215,1665,q),
(215,1700,o),
(236,1727,q),
(257,1754,o),
(298,1774,q),
(385,1817,o),
(528,1817,q),
(752,1817,o),
(829,1690,q),
(855,1647,o),
(855,1588,q)
);
}
);
width = 1057;
}
);
unicode = 179;
},
{
category = Letter;
glyphname = acute;
layers = (
{
layerId = "3ab791a5-0594-4336-bd7a-6e9e95a35031";
name = Fore;
shapes = (
{
closed = 1;
nodes = (
(191,1347,o),
(173,1364,q),
(143,1391,o),
(143,1401,q),
(143,1420,o),
(149,1428,q),
(469,1747,l),
(491,1769,o),
(520.5,1769,q),
(550,1769,o),
(581,1751.5,q),
(612,1734,o),
(638,1708,q),
(695,1649,o),
(695,1602,q),
(695,1578,o),
(675,1568,q),
(219,1347,l)
);
}
);
width = 582;
}
);
unicode = 180;
},
{
category = Letter;
glyphname = mu;
layers = (
{
layerId = "3ab791a5-0594-4336-bd7a-6e9e95a35031";
name = Fore;
shapes = (
{
closed = 1;
nodes = (
(206,-446,o),
(178,-420,q),
(215,301,l),
(215,890,l),
(215,946,o),
(204.5,981,q),
(194,1016,o),
(167,1016,q),
(140,1016,o),
(126.5,1009,q),
(113,1002,o),
(104.5,999,q),
(96,996,o),
(90,999.5,q),
(84,1003,o),
(78,1010,q),
(63,1026,o),
(63,1043.5,q),
(63,1061,o),
(75,1080.5,q),
(87,1100,o),
(112.5,1125.5,q),
(138,1151,o),
(170,1172,q),
(242,1219,o),
(322,1219,q),
(420,1219,o),
(434,1080,q),
(438,1041,o),
(438,999,q),
(438,373,l),
(438,204,o),
(540,184,q),
(570,178,o),
(612.5,178,q),
(655,178,o),
(704.5,189,q),
(754,200,o),
(798,218,q),
(885,253,o),
(951,308,q),
(952,890,l),
(952,984,o),
(917,1007,q),
(903,1016,o),
(880,1016,q),
(857,1016,o),
(843.5,1009,q),
(830,1002,o),
(821.5,999,q),
(813,996,o),
(807,999.5,q),
(801,1003,o),
(795,1010,q),
(780,1026,o),
(780,1044.5,q),
(780,1063,o),
(792,1081.5,q),
(804,1100,o),
(832,1125.5,q),
(860,1151,o),
(896,1172,q),
(977,1219,o),
(1058,1219,q),
(1157,1219,o),
(1171,1080,q),
(1175,1041,o),
(1175,999,q),
(1175,407,l),
(1175,253,o),
(1187,215,q),
(1199,177,o),
(1215.5,165.5,q),
(1232,154,o),
(1257,154,q),
(1282,154,o),
(1298,162,q),
(1328,175,l),
(1341,178,o),
(1351,163,q),
(1372,132,o),
(1357,107,q),
(1342,82,o),
(1312,59,q),
(1282,36,o),
(1244,19,q),
(1076,-57,o),
(997,22,q),
(956,63,o),
(951,152,q),
(805,40,o),
(646,-4,q),
(589,-19,o),
(520,-19,q),
(451,-19,o),
(390,4,q),
(399,-180,o),
(422,-363,q),
(386,-446,o),
(248,-446,q)
);
}
);
width = 1398;
}
);
unicode = 181;
},
{
category = Letter;
glyphname = paragraph;
layers = (
{
layerId = "3ab791a5-0594-4336-bd7a-6e9e95a35031";
name = Fore;
shapes = (
{
closed = 1;
nodes = (
(897,-295,o),
(863,-295,q),
(829,-295,o),
(807,-283,q),
(807,523,l),
(388,536,o),
(263,801,q),
(221,890,o),
(221,1012,q),
(221,1134,o),
(266,1232.5,q),
(311,1331,o),
(395,1398,q),
(567,1537,o),
(873,1537,q),
(998,1537,o),
(1015,1523,q),
(1015,-217,l),
(1015,-274,o),
(922,-290,q)
);
},
{
closed = 1;
nodes = (
(1364,-295,o),
(1330.5,-295,q),
(1297,-295,o),
(1275,-283,q),
(1275,1465,l),
(1275,1516,o),
(1371,1534,q),
(1397,1539,o),
(1428,1539,q),
(1459,1539,o),
(1482,1529,q),
(1482,-217,l),
(1482,-274,o),
(1389,-290,q)
);
}
);
width = 1825;
}
);
unicode = 182;
},
{
category = Letter;
glyphname = periodcentered;
layers = (
{
layerId = "3ab791a5-0594-4336-bd7a-6e9e95a35031";
name = Fore;
shapes = (
{
closed = 1;
nodes = (
(295,656,o),
(265,668.5,q),
(235,681,o),
(212,704,q),
(165,751,o),
(165,823,q),
(165,894,o),
(212.5,941.5,q),
(260,989,o),
(330,989,q),
(444,989,o),
(487,889,q),
(500,859,o),
(500,823,q),
(500,752,o),
(452,704,q),
(404,656,o),
(330,656,q)
);
}
);
width = 664;
}
);
unicode = 183;
},
{
category = Letter;
glyphname = cedilla;
layers = (
{
layerId = "3ab791a5-0594-4336-bd7a-6e9e95a35031";
name = Fore;
shapes = (
{
closed = 1;
nodes = (
(559,-116,o),
(559,-268,q),
(559,-425,o),
(300,-482,q),
(207,-503,o),
(134,-501,q),
(115,-489,o),
(115,-450,q),
(115,-408,o),
(143.5,-404,q),
(172,-400,o),
(207,-393,q),
(242,-386,o),
(272,-374,q),
(345,-345,o),
(345,-296,q),
(345,-229,o),
(207,-224,q),
(196,-224,o),
(189.5,-202.5,q),
(183,-181,o),
(183,-178,q),
(227,15,l),
(349,15,l),
(329,-111,l)
);
}
);
width = 582;
}
);
unicode = 184;
},
{
category = Letter;
glyphname = onesuperior;
layers = (
{
layerId = "3ab791a5-0594-4336-bd7a-6e9e95a35031";
name = Fore;
shapes = (
{
closed = 1;
nodes = (
(796,865,o),
(733,865,q),
(347,865,l),
(305,865,o),
(278,889.5,q),
(251,914,o),
(251,951,q),
(251,972,o),
(265,983,q),
(295,977,o),
(346.5,977,q),
(398,977,o),
(416,984.5,q),
(434,992,o),
(442,1006,q),
(453,1025,o),
(453,1085,q),
(453,1530,l),
(453,1602,o),
(391,1602,q),
(358,1602,l),
(324,1602,o),
(277,1595,q),
(262,1595,o),
(252,1629,q),
(233,1694,o),
(246,1700,q),
(426,1742,o),
(567,1809,q),
(570,1811,o),
(579.5,1811,q),
(589,1811,o),
(601,1805.5,q),
(613,1800,o),
(624,1792,q),
(648,1775,o),
(648,1761,q),
(648,1068,l),
(648,998,o),
(673,988,q),
(683,984,o),
(704.5,981.5,q),
(726,979,o),
(749.5,974.5,q),
(773,970,o),
(790,963,q),
(829,948,o),
(829,918,q),
(829,874,o),
(816,861,q)
);
}
);
width = 1019;
}
);
unicode = 185;
},
{
category = Letter;
glyphname = ordmasculine;
layers = (
{
layerId = "3ab791a5-0594-4336-bd7a-6e9e95a35031";
name = Fore;
shapes = (
{
closed = 1;
nodes = (
(380,813,o),
(310,846,q),
(240,879,o),
(192,936,q),
(93,1052,o),
(93,1232,q),
(93,1470,o),
(230,1592,q),
(346,1694,o),
(528,1694,q),
(701,1694,o),
(805,1571,q),
(904,1453,o),
(904,1275,q),
(904,1037,o),
(766,916,q),
(651,813,o),
(464,813,q)
);
},
{
closed = 1;
nodes = (
(456,947,o),
(501.5,947,q),
(547,947,o),
(582.5,965.5,q),
(618,984,o),
(644,1018,q),
(699,1090,o),
(699,1202.5,q),
(699,1315,o),
(685,1382,q),
(671,1449,o),
(644,1488,q),
(597,1560,o),
(491,1562,q),
(406,1562,o),
(353,1490,q),
(297,1415,o),
(297,1303.5,q),
(297,1192,o),
(311,1124.5,q),
(325,1057,o),
(352,1017.5,q),
(379,978,o),
(417.5,962.5,q)
);
}
);
width = 998;
}
);
unicode = 186;
},
{
category = Letter;
glyphname = onequarter;
layers = (
{
layerId = "3ab791a5-0594-4336-bd7a-6e9e95a35031";
name = Fore;
shapes = (
{
closed = 1;
nodes = (
(1614,-163,o),
(1614,-148,q),
(1614,102,l),
(1217,102,l),
(1191,102,o),
(1170,143,q),
(1148,184,o),
(1160,198,q),
(1211,264,o),
(1267,364,q),
(1358,529,l),
(1468,741,o),
(1507,873,q),
(1540,873,o),
(1586,854,q),
(1671,818,o),
(1678,793,q),
(1695,742,o),
(1576,546,q),
(1504,432,l),
(1435,328,o),
(1356,232,q),
(1614,232,l),
(1614,372,l),
(1614,403,o),
(1706,436,q),
(1759,455,o),
(1779,453,q),
(1799,451,o),
(1799,442,q),
(1799,232,l),
(1991,232,l),
(2013,232,o),
(1997,167,q),
(1981,102,o),
(1958,102,q),
(1799,102,l),
(1799,-129,l),
(1799,-163,o),
(1659,-163,q)
);
},
{
closed = 1;
nodes = (
(725,763,o),
(662,763,q),
(276,763,l),
(234,763,o),
(207,787.5,q),
(180,812,o),
(180,849,q),
(180,870,o),
(194,881,q),
(224,875,o),
(275.5,875,q),
(327,875,o),
(345,882.5,q),
(363,890,o),
(371,904,q),
(382,923,o),
(382,983,q),
(382,1428,l),
(382,1500,o),
(320,1500,q),
(287,1500,l),
(253,1500,o),
(206,1493,q),
(191,1493,o),
(181,1527,q),
(162,1592,o),
(175,1598,q),
(355,1640,o),
(496,1707,q),
(499,1709,o),
(508.5,1709,q),
(518,1709,o),
(530,1703.5,q),
(542,1698,o),
(552,1690,q),
(577,1673,o),
(577,1659,q),
(577,966,l),
(577,896,o),
(602,886,q),
(612,882,o),
(633.5,879.5,q),
(655,877,o),
(678.5,872.5,q),
(702,868,o),
(720,861,q),
(758,846,o),
(758,816,q),
(758,772,o),
(745,759,q)
);
},
{
closed = 1;
nodes = (
(1427,1446,o),
(1463,1419,q),
(1530,1369,o),
(1508,1335,q),
(644,-4,l),
(590,-2,o),
(557,24,q),
(495,70,o),
(514,102,q),
(1379,1441,l)
);
}
);
width = 2182;
}
);
unicode = 188;
},
{
category = Letter;
glyphname = threequarters;
layers = (
{
layerId = "3ab791a5-0594-4336-bd7a-6e9e95a35031";
name = Fore;
shapes = (
{
closed = 1;
nodes = (
(1614,-163,o),
(1614,-148,q),
(1614,102,l),
(1217,102,l),
(1191,102,o),
(1170,143,q),
(1148,184,o),
(1160,198,q),
(1211,264,o),
(1267,364,q),
(1358,529,l),
(1468,741,o),
(1507,873,q),
(1540,873,o),
(1586,854,q),
(1671,818,o),
(1678,793,q),
(1695,742,o),
(1576,546,q),
(1504,432,l),
(1435,328,o),
(1356,232,q),
(1614,232,l),
(1614,372,l),
(1614,403,o),
(1706,436,q),
(1759,455,o),
(1779,453,q),
(1799,451,o),
(1799,442,q),
(1799,232,l),
(1991,232,l),
(2013,232,o),
(1997,167,q),
(1981,102,o),
(1958,102,q),
(1799,102,l),
(1799,-129,l),
(1799,-163,o),
(1659,-163,q)
);
},
{
closed = 1;
nodes = (
(1427,1446,o),
(1463,1419,q),
(1530,1369,o),
(1508,1335,q),
(644,-4,l),
(590,-2,o),
(557,24,q),
(495,70,o),
(514,102,q),
(1379,1441,l)
);
},
{
closed = 1;
nodes = (
(806,1335,o),
(663,1248,q),
(790,1207,o),
(830,1098,q),
(843,1063,o),
(843,1009.5,q),
(843,956,o),
(813.5,903.5,q),
(784,851,o),
(732,815,q),
(627,742,o),
(455,742,q),
(332,742,o),
(238,798,q),
(135,859,o),
(135,950,q),
(135,1032,o),
(206,1052,q),
(218,1055,o),
(238,1055,q),
(286,1055,o),
(301,1049,q),
(301,972,o),
(320,939,q),
(361,870,o),
(457,870,q),
(644,870,o),
(644,1034,q),
(644,1119,o),
(542,1152,q),
(503,1164,o),
(459,1164,q),
(415,1164,o),
(383,1160,q),
(364,1160,o),
(353,1202,q),
(332,1281,o),
(349,1281,q),
(468,1281,o),
(542,1336,q),
(607,1386,o),
(607,1452.5,q),
(607,1519,o),
(570.5,1550.5,q),
(534,1582,o),
(476,1582,q),
(418,1582,o),
(395,1572,q),
(372,1562,o),
(358,1546,q),
(334,1517,o),
(334,1469,q),
(307,1457,o),
(277.5,1457,q),
(248,1457,o),
(230,1464,q),
(212,1471,o),
(198,1484,q),
(166,1514,o),
(166,1549,q),
(166,1584,o),
(187,1611,q),
(208,1638,o),
(248,1658,q),
(336,1701,o),
(479,1701,q),
(703,1701,o),
(780,1574,q),
(806,1531,o),
(806,1472,q)
);
}
);
width = 2182;
}
);
unicode = 190;
},
{
category = Letter;
glyphname = AE;
layers = (
{
layerId = "3ab791a5-0594-4336-bd7a-6e9e95a35031";
name = Fore;
shapes = (
{
closed = 1;
nodes = (
(963,119,o),
(1000,119,q),
(1037,119,o),
(1062.5,124,q),
(1088,129,o),
(1108,145,q),
(1153,181,o),
(1153,270,q),
(1153,589,l),
(649,589,l),
(442,254,l),
(417,214,o),
(417,187,q),
(417,160,o),
(424.5,151.5,q),
(432,143,o),
(446,137,q),
(463,129,o),
(503.5,120,q),
(544,111,o),
(565,105.5,q),
(586,100,o),
(601,92,q),
(633,73,o),
(633,48,q),
(633,14,o),
(618,-5,q),
(600,0,o),
(589,0,q),
(154,0,l),
(88,0,o),
(61,22.5,q),
(34,45,o),
(34,75.5,q),
(34,106,o),
(49,129,q),
(74,122,l),
(87,119,o),
(103.5,119,q),
(120,119,o),
(141.5,130.5,q),
(163,142,o),
(185,165,q),
(221,202,o),
(282,303,q),
(979,1424,l),
(932,1442,o),
(932,1479,q),
(932,1520,o),
(948,1538,q),
(966,1533,o),
(984,1533,q),
(2007,1533,l),
(2099,1533,o),
(2122,1516,q),
(2164,1486,o),
(2164,1384,q),
(2164,1284,o),
(2148,1224.5,q),
(2132,1165,o),
(2124,1152,q),
(2111,1130,o),
(2093,1130,q),
(2075,1130,o),
(2062.5,1133,q),
(2050,1136,o),
(2040,1141,q),
(2014,1153,o),
(2014,1164,q),
(2001,1310,o),
(1969,1347,q),
(1937,1384,o),
(1893.5,1396.5,q),
(1850,1409,o),
(1780,1409,q),
(1554,1409,l),
(1448,1409,o),
(1424.5,1388,q),
(1401,1367,o),
(1395,1339.5,q),
(1389,1312,o),
(1389,1269,q),
(1389,732,l),
(1447,731,l),
(1713,731,o),
(1883,770,q),
(1919,755,o),
(1919,662,q),
(1919,610,o),
(1900,572,q),
(1852,567,o),
(1768.5,567,q),
(1685,567,o),
(1586,577,q),
(1389,598,l),
(1389,254,l),
(1389,179,o),
(1429,153,q),
(1463,131,o),
(1551,131,q),
(1706,135,l),
(1926,143,o),
(1991,194,q),
(2028,224,o),
(2040,272.5,q),
(2052,321,o),
(2052,370.5,q),
(2052,420,o),
(2050,442,q),
(2073,459,o),
(2103,459,q),
(2146,459,o),
(2156,452,q),
(2195,376,o),
(2195,197,q),
(2195,72,o),
(2166,16,q),
(2158,0,o),
(2149,0,q),
(1034,0,l),
(982,0,o),
(947,18,q),
(912,36,o),
(912,62,q),
(912,110,o),
(927,129,q)
);
},
{
closed = 1;
nodes = (
(1153,1283,l),
(1153,1338,o),
(1128,1365,q),
(736,731,l),
(1153,731,l)
);
}
);
width = 2280;
}
);
unicode = 198;
},
{
category = Letter;
glyphname = Ccedilla;
layers = (
{
layerId = "3ab791a5-0594-4336-bd7a-6e9e95a35031";
name = Fore;
shapes = (
{
closed = 1;
nodes = (
(1057,-116,o),
(1057,-268,q),
(1057,-425,o),
(798,-482,q),
(705,-503,o),
(632,-501,q),
(613,-489,o),
(613,-450,q),
(613,-408,o),
(641.5,-404,q),
(670,-400,o),
(705,-393,q),
(740,-386,o),
(770,-374,q),
(843,-345,o),
(843,-296,q),
(843,-229,o),
(705,-224,q),
(694,-224,o),
(687.5,-202.5,q),
(681,-181,o),
(681,-178,q),
(718,-15,l),
(438,17,o),
(278,208,q),
(118,397,o),
(118,693,q),
(118,891,o),
(181,1050,q),
(244,1209,o),
(353,1320.5,q),
(462,1432,o),
(607.5,1492,q),
(753,1552,o),
(890.5,1552,q),
(1028,1552,o),
(1111,1529,q),
(1194,1506,o),
(1249,1466,q),
(1359,1384,o),
(1359,1248,q),
(1359,1144,o),
(1282,1101,q),
(1256,1086,o),
(1226,1086,q),
(1164,1086,o),
(1138,1100,q),
(1142,1128,o),
(1142,1182,q),
(1142,1236,o),
(1121,1280.5,q),
(1100,1325,o),
(1064,1350,q),
(1001,1393,o),
(874.5,1393,q),
(748,1393,o),
(651.5,1347.5,q),
(555,1302,o),
(490,1220,q),
(359,1055,o),
(359,771,q),
(359,502,o),
(492,342,q),
(630,175,o),
(865,175,q),
(1096,175,o),
(1225,276,q),
(1264,306,o),
(1296,341,q),
(1326,332,o),
(1345,288,q),
(1351,273,o),
(1351,254,q),
(1351,235,o),
(1335.5,206.5,q),
(1320,178,o),
(1290,148,q),
(1260,118,o),
(1216.5,88.5,q),
(1173,59,o),
(1116,36,q),
(987,-18,o),
(841,-20,q),
(827,-111,l)
);
}
);
width = 1457;
}
);
unicode = 199;
},
{
category = Letter;
glyphname = Eth;
layers = (
{
layerId = "3ab791a5-0594-4336-bd7a-6e9e95a35031";
name = Fore;
shapes = (
{
closed = 1;
nodes = (
(454,1,l),
(196,1,l),
(144,1,o),
(109,18.5,q),
(74,36,o),
(74,62,q),
(74,110,o),
(89,129,q),
(125,119,o),
(162,119,q),
(199,119,o),
(224.5,124,q),
(250,129,o),
(270,145,q),
(316,181,o),
(316,270,q),
(316,694,l),
(133,694,l),
(122,720,o),
(122,748,q),
(122,776,o),
(125.5,794,q),
(129,812,o),
(136,826,q),
(153,857,o),
(178,857,q),
(316,857,l),
(316,1289,l),
(316,1382,o),
(200,1405,q),
(128,1420,o),
(106.5,1437.5,q),
(85,1455,o),
(85,1476,q),
(85,1522,o),
(101,1538,q),
(119,1533,o),
(134,1533,q),
(437,1533,l),
(460,1533,o),
(498,1535,q),
(583,1540,l),
(708,1546,o),
(839.5,1546,q),
(971,1546,o),
(1095,1514.5,q),
(1219,1483,o),
(1309.5,1429,q),
(1400,1375,o),
(1460.5,1303.5,q),
(1521,1232,o),
(1558,1152,q),
(1624,1005,o),
(1624,822,q),
(1624,490,o),
(1452,270,q),
(1317,97,o),
(1055,26,q),
(919,-10,o),
(739,-10,q)
);
},
{
closed = 1;
nodes = (
(872,835,o),
(872,794,q),
(872,728,o),
(839,702,q),
(828,694,o),
(813,694,q),
(552,694,l),
(552,241,l),
(552,166,o),
(599,144,q),
(639,126,o),
(790.5,126,q),
(942,126,o),
(1060,176,q),
(1178,226,o),
(1248,311,q),
(1374,464,o),
(1374,742,q),
(1374,1219,o),
(1037,1365,q),
(915,1418,o),
(736,1418,q),
(617,1418,o),
(591,1394.5,q),
(565,1371,o),
(558.5,1336.5,q),
(552,1302,o),
(552,1244,q),
(552,857,l),
(859,857,l)
);
}
);
width = 1725;
}
);
unicode = 208;
},
{
category = Letter;
glyphname = multiply;
layers = (
{
layerId = "3ab791a5-0594-4336-bd7a-6e9e95a35031";
name = Fore;
shapes = (
{
closed = 1;
nodes = (
(217,355,o),
(178,412,q),
(139,470,o),
(165,496,q),
(420,752,l),
(170,1004,l),
(159,1017,o),
(159,1033.5,q),
(159,1050,o),
(170.5,1071.5,q),
(182,1093,o),
(198,1112,q),
(235,1155,o),
(271,1165,q),
(550,884,l),
(830,1165,l),
(866,1154,o),
(893,1123,q),
(942,1067,o),
(942,1042,q),
(942,1017,o),
(931,1004,q),
(681,752,l),
(936,496,l),
(961,469,o),
(922,412,q),
(884,355,o),
(834,336,q),
(550,621,l),
(267,336,l)
);
}
);
width = 1101;
}
);
unicode = 215;
},
{
category = Letter;
glyphname = Oslash;
layers = (
{
layerId = "3ab791a5-0594-4336-bd7a-6e9e95a35031";
name = Fore;
shapes = (
{
closed = 1;
nodes = (
(1299,1613,l),
(1317,1639,o),
(1348,1639,q),
(1408,1639,o),
(1441,1594,q),
(1328,1407,l),
(1449,1313,o),
(1519,1164,q),
(1589,1015,o),
(1589,851.5,q),
(1589,688,o),
(1559,575,q),
(1529,462,o),
(1476,368.5,q),
(1423,275,o),
(1350,203,q),
(1277,131,o),
(1192,82,q),
(1018,-19,o),
(832.5,-19,q),
(647,-19,o),
(505,45,q),
(425,-88,l),
(404,-115,o),
(372,-115,q),
(307,-115,o),
(281,-70,q),
(390,111,l),
(186,258,o),
(128,520,q),
(109,609,o),
(109,726,q),
(109,843,o),
(139,958,q),
(169,1073,o),
(222,1166.5,q),
(275,1260,o),
(348,1332,q),
(421,1404,o),
(507,1453,q),
(681,1552,o),
(873,1552,q),
(1065,1552,o),
(1217,1477,q)
);
},
{
closed = 1;
nodes = (
(1003,1397,o),
(861.5,1397,q),
(720,1397,o),
(629,1352,q),
(538,1307,o),
(479,1224,q),
(364,1062,o),
(364,760,q),
(364,454,o),
(498,290,q),
(1118,1314,l)
);
},
{
closed = 1;
nodes = (
(701,139,o),
(833.5,139,q),
(966,139,o),
(1059,180.5,q),
(1152,222,o),
(1214,300,q),
(1336,457,o),
(1336,747,q),
(1336,1044,o),
(1213,1216,q),
(600,201,l)
);
}
);
width = 1697;
}
);
unicode = 216;
},
{
category = Letter;
glyphname = Thorn;
layers = (
{
layerId = "3ab791a5-0594-4336-bd7a-6e9e95a35031";
name = Fore;
shapes = (
{
closed = 1;
nodes = (
(708,0,o),
(632,0,q),
(225,0,l),
(173,0,o),
(142,16.5,q),
(111,33,o),
(111,77,q),
(111,109,o),
(126,128,q),
(164,118,o),
(199,118,q),
(234,118,o),
(254,125.5,q),
(274,133,o),
(288,152,q),
(319,192,o),
(319,285,q),
(319,1297,l),
(319,1352,o),
(298,1371,q),
(269,1399,o),
(231,1407,q),
(169,1420,l),
(120,1430,o),
(107.5,1447.5,q),
(95,1465,o),
(95,1483,q),
(95,1518,o),
(111,1538,q),
(126,1532,o),
(164,1532,q),
(210,1533,l),
(630,1533,l),
(744,1533,o),
(744,1456,q),
(744,1423,o),
(728,1405,q),
(690,1415,o),
(656,1415,q),
(622,1415,o),
(605.5,1408,q),
(589,1401,o),
(578,1384,q),
(557,1351,o),
(555,1266,q),
(555,1233,l),
(782,1234,l),
(1233,1234,o),
(1346,978,q),
(1380,899,o),
(1380,818,q),
(1380,737,o),
(1364,680.5,q),
(1348,624,o),
(1312.5,572,q),
(1277,520,o),
(1220.5,475,q),
(1164,430,o),
(1082,396,q),
(909,325,o),
(646,325,q),
(555,325,l),
(555,236,l),
(555,177,o),
(566,160,q),
(582,134,o),
(617,127,q),
(652,120,o),
(675.5,114.5,q),
(699,109,o),
(715,101,q),
(747,85,o),
(747,47,q),
(747,12,o),
(731,-8,q)
);
},
{
closed = 1;
nodes = (
(1019,454,o),
(1108,636,q),
(1135,692,o),
(1135,745,q),
(1135,798,o),
(1127.5,837.5,q),
(1120,877,o),
(1101.5,915.5,q),
(1083,954,o),
(1053.5,989.5,q),
(1024,1025,o),
(980,1052,q),
(881,1110,o),
(735,1110,q),
(555,1110,l),
(555,454,l),
(654,454,l)
);
}
);
width = 1429;
}
);
unicode = 222;
},
{
category = Letter;
glyphname = germandbls;
layers = (
{
layerId = "3ab791a5-0594-4336-bd7a-6e9e95a35031";
name = Fore;
shapes = (
{
closed = 1;
nodes = (
(396,-19,o),
(308,-19,q),
(220,-19,o),
(187.5,26.5,q),
(155,72,o),
(155,172,q),
(155,1088,l),
(155,1434,o),
(342,1611,q),
(500,1761,o),
(733,1761,q),
(1043,1761,o),
(1146,1559,q),
(1180,1492,o),
(1180,1409.5,q),
(1180,1327,o),
(1153,1269.5,q),
(1126,1212,o),
(1086,1168,q),
(1046,1124,o),
(999,1090,q),
(912,1026,l),
(872,995,o),
(845,965.5,q),
(818,936,o),
(818,904.5,q),
(818,873,o),
(826.5,849,q),
(835,825,o),
(856,802,q),
(895,758,o),
(987.5,702.5,q),
(1080,647,o),
(1135,606,q),
(1190,565,o),
(1224,524,q),
(1289,447,o),
(1289,351,q),
(1289,255,o),
(1248.5,187.5,q),
(1208,120,o),
(1144,74,q),
(1013,-19,o),
(835,-19,q),
(667,-19,o),
(598,44,q),
(567,71,o),
(567,105,q),
(567,139,o),
(575,160.5,q),
(583,182,o),
(596,202,q),
(621,242,o),
(649,258,q),
(769,132,o),
(881,132,q),
(961,132,o),
(1016,174,q),
(1072,218,o),
(1072,283,q),
(1072,342,o),
(1017,392,q),
(973,433,o),
(874.5,493.5,q),
(776,554,o),
(728,597,q),
(680,640,o),
(652,681,q),
(604,753,o),
(604,832,q),
(604,911,o),
(629,961.5,q),
(654,1012,o),
(691,1053.5,q),
(728,1095,o),
(772,1131,q),
(816,1167,o),
(853,1206,q),
(940,1298,o),
(940,1394,q),
(940,1598,o),
(709,1598,q),
(559,1598,o),
(473.5,1466,q),
(388,1334,o),
(388,1109,q),
(388,432,l),
(388,233,o),
(441,94,q),
(454,60,o),
(464,45,q)
);
}
);
width = 1328;
}
);
unicode = 223;
},
{
category = Letter;
glyphname = ae;
layers = (
{
layerId = "3ab791a5-0594-4336-bd7a-6e9e95a35031";
name = Fore;
shapes = (
{
closed = 1;
nodes = (
(730,-19,o),
(462,-19,q),
(302,-19,o),
(206,73,q),
(109,166,o),
(109,314,q),
(109,499,o),
(264,590,q),
(405,674,o),
(670,674,q),
(816,674,l),
(816,828,l),
(816,969,o),
(770,1023,q),
(726,1074,o),
(616,1074,q),
(471,1074,o),
(410,998,q),
(368,945,o),
(378,855,q),
(358,839,o),
(310.5,839,q),
(263,839,o),
(241.5,850,q),
(220,861,o),
(204,880,q),
(170,919,o),
(170,980.5,q),
(170,1042,o),
(205,1087.5,q),
(240,1133,o),
(300,1162,q),
(418,1219,o),
(610,1219,q),
(907,1219,o),
(1000,1043,q),
(1087,1131,o),
(1193.5,1175,q),
(1300,1219,o),
(1407.5,1219,q),
(1515,1219,o),
(1591,1174.5,q),
(1667,1130,o),
(1714,1056,q),
(1803,914,o),
(1803,681,q),
(1803,594,o),
(1730,592,q),
(1034,577,l),
(1033,550,l),
(1044,349,o),
(1150,250,q),
(1239,168,o),
(1377,168,q),
(1590,168,o),
(1723,257,q),
(1732,257,o),
(1745,242,q),
(1770,212,o),
(1770,190,q),
(1770,141,o),
(1650,67,q),
(1513,-19,o),
(1328,-19,q),
(1051,-19,o),
(915,179,q)
);
},
{
closed = 1;
nodes = (
(1326,720,o),
(1565,743,q),
(1576,1061,o),
(1345,1061,q),
(1216,1061,o),
(1134,961,q),
(1059,869,o),
(1038,706,q)
);
},
{
closed = 1;
nodes = (
(817,512,l),
(816,520,o),
(816,528,q),
(816,543,l),
(524,534,o),
(424,484,q),
(374,458,o),
(357.5,422,q),
(341,386,o),
(341,320.5,q),
(341,255,o),
(395,207.5,q),
(449,160,o),
(568.5,160,q),
(688,160,o),
(818,236,q)
);
}
);
width = 1920;
}
);
unicode = 230;
},
{
category = Letter;
glyphname = ccedilla;
layers = (
{
layerId = "3ab791a5-0594-4336-bd7a-6e9e95a35031";
name = Fore;
shapes = (
{
closed = 1;
nodes = (
(885,-115,o),
(885,-267,q),
(885,-424,o),
(626,-482,q),
(533,-502,o),
(460,-500,q),
(441,-488,o),
(441,-449,q),
(441,-407,o),
(469.5,-403,q),
(498,-399,o),
(533,-392,q),
(568,-385,o),
(598,-373,q),
(671,-344,o),
(671,-295,q),
(671,-228,o),
(533,-223,q),
(522,-223,o),
(515.5,-201.5,q),
(509,-180,o),
(509,-177,q),
(546,-13,l),
(351,14,o),
(235,160,q),
(114,313,o),
(114,555,q),
(114,863,o),
(302,1050,q),
(473,1219,o),
(697,1219,q),
(844,1219,o),
(942,1156,q),
(1045,1090,o),
(1045,982,q),
(1045,923,o),
(1019,893,q),
(974,840,o),
(914.5,840,q),
(855,840,o),
(826,854,q),
(827,890,l),
(827,909,o),
(818,954.5,q),
(809,1000,o),
(760.5,1029,q),
(712,1058,o),
(637.5,1058,q),
(563,1058,o),
(505.5,1020.5,q),
(448,983,o),
(412,920,q),
(344,800,o),
(344,599,q),
(344,409,o),
(436,290,q),
(530,168,o),
(684,168,q),
(824,168,o),
(952,245,q),
(983,264,o),
(1000,278,q),
(1010,278,o),
(1023,262,q),
(1048,233,o),
(1048,215.5,q),
(1048,198,o),
(1035,177.5,q),
(1022,157,o),
(998.5,133,q),
(975,109,o),
(941,84,q),
(907,59,o),
(865,38,q),
(770,-10,o),
(669,-17,q),
(655,-110,l)
);
}
);
width = 1134;
}
);
unicode = 231;
},
{
category = Letter;
glyphname = eth;
layers = (
{
layerId = "3ab791a5-0594-4336-bd7a-6e9e95a35031";
name = Fore;
shapes = (
{
closed = 1;
nodes = (
(470,1828,o),
(640,1738,q),
(760,1861,l),
(781,1879,o),
(802.5,1879,q),
(824,1879,o),
(840.5,1873,q),
(857,1867,o),
(872,1856,q),
(903,1835,o),
(917,1801,q),
(771,1655,l),
(1061,1431,o),
(1155,1042,q),
(1189,902,o),
(1189,720.5,q),
(1189,539,o),
(1145,396,q),
(1101,253,o),
(1023,161,q),
(870,-19,o),
(606,-19,q),
(350,-19,o),
(211,162,q),
(89,321,o),
(89,571,q),
(89,886,o),
(270,1062,q),
(425,1212,o),
(624,1212,q),
(804,1212,o),
(913,1094,q),
(848,1380,o),
(654,1537,q),
(525,1414,l),
(502,1394,o),
(478.5,1394,q),
(455,1394,o),
(438,1401,q),
(421,1408,o),
(406,1419,q),
(375,1443,o),
(369,1472,q),
(525,1620,l),
(431,1668,o),
(309,1702,q),
(245,1719,l),
(235,1722,o),
(234.5,1739,q),
(234,1756,o),
(243,1776,q),
(266,1828,o),
(320,1828,q)
);
},
{
closed = 1;
nodes = (
(708,144,o),
(772.5,178.5,q),
(837,213,o),
(877,282,q),
(953,413,o),
(953,694,q),
(953,806,o),
(943,908,q),
(897,976,o),
(847,1004,q),
(759,1052,o),
(673.5,1052,q),
(588,1052,o),
(529,1020,q),
(470,988,o),
(426,928,q),
(331,797,o),
(331,577,q),
(331,386,o),
(411,264,q),
(491,144,o),
(630,144,q)
);
}
);
width = 1288;
}
);
unicode = 240;
},
{
category = Letter;
glyphname = divide;
layers = (
{
layerId = "3ab791a5-0594-4336-bd7a-6e9e95a35031";
name = Fore;
shapes = (
{
closed = 1;
nodes = (
(619,1030,o),
(585.5,1030,q),
(552,1030,o),
(523.5,1042,q),
(495,1054,o),
(474,1075,q),
(429,1120,o),
(429,1188,q),
(429,1256,o),
(474,1301,q),
(519,1346,o),
(569,1346,q),
(619,1346,o),
(648.5,1334,q),
(678,1322,o),
(700,1301,q),
(746,1257,o),
(746,1188,q),
(746,1082,o),
(648,1042,q)
);
},
{
closed = 1;
nodes = (
(1036,828,o),
(1036,794,q),
(1036,760,o),
(1032.5,739.5,q),
(1029,719,o),
(1022,702,q),
(1004,665,o),
(977,665,q),
(151,665,l),
(140,695,o),
(140,724.5,q),
(140,754,o),
(143.5,775,q),
(147,796,o),
(154,812,q),
(172,850,o),
(196,850,q),
(1023,850,l)
);
},
{
closed = 1;
nodes = (
(429,406,o),
(474,452,q),
(518,498,o),
(585,498,q),
(653,498,o),
(700,452,q),
(746,408,o),
(746,339,q),
(746,233,o),
(648,193,q),
(619,181,o),
(585.5,181,q),
(552,181,o),
(523.5,193,q),
(495,205,o),
(474,226,q),
(429,271,o),
(429,339,q)
);
}
);
width = 1177;
}
);
unicode = 247;
},
{
category = Letter;
glyphname = oslash;
layers = (
{
layerId = "3ab791a5-0594-4336-bd7a-6e9e95a35031";
name = Fore;
shapes = (
{
closed = 1;
nodes = (
(458,-19,o),
(343,51,q),
(259,-78,l),
(239,-104,o),
(216,-104,q),
(170,-104,o),
(145,-59,q),
(260,116,l),
(99,277,o),
(99,553,q),
(99,995,o),
(410,1154,q),
(537,1219,o),
(677.5,1219,q),
(818,1219,o),
(935,1147,q),
(1026,1286,l),
(1044,1312,o),
(1066,1312,q),
(1107,1312,o),
(1140,1267,q),
(1017,1080,l),
(1171,922,o),
(1171,665,q),
(1171,329,o),
(988,142,q),
(829,-19,o),
(607,-19,q)
);
},
{
closed = 1;
nodes = (
(737,1059,o),
(619,1059,q),
(486,1059,o),
(406,957,q),
(321,849,o),
(321,655,q),
(321,455,o),
(394,322,q),
(819,971,l)
);
},
{
closed = 1;
nodes = (
(551,144,o),
(666,144,q),
(798,144,o),
(876,262,q),
(950,376,o),
(950,558,q),
(950,742,o),
(884,876,q),
(462,231,l)
);
}
);
width = 1270;
}
);
unicode = 248;
},
{
category = Letter;
glyphname = thorn;
layers = (
{
layerId = "3ab791a5-0594-4336-bd7a-6e9e95a35031";
name = Fore;
shapes = (
{
closed = 1;
nodes = (
(617,-393,o),
(617,-418,q),
(617,-443,o),
(594,-461.5,q),
(571,-480,o),
(538,-492,q),
(473,-514,o),
(389.5,-514,q),
(306,-514,o),
(258,-468.5,q),
(210,-423,o),
(210,-323,q),
(210,1475,l),
(210,1545,o),
(196,1564,q),
(173,1596,o),
(121,1596,q),
(97,1596,o),
(76.5,1591.5,q),
(56,1587,o),
(47.5,1591.5,q),
(39,1596,o),
(34,1604,q),
(13,1637,o),
(83,1688,q),
(193,1769,o),
(301,1769,q),
(415,1769,o),
(429,1646,q),
(433,1609,o),
(433,1568,q),
(433,1076,l),
(591,1219,o),
(771,1219,q),
(976,1219,o),
(1104,1078,q),
(1245,925,o),
(1245,654,q),
(1245,350,o),
(1052,158,q),
(964,72,o),
(852.5,26.5,q),
(741,-19,o),
(640,-19,q),
(539,-19,o),
(433,8,q),
(433,-130,l),
(433,-282,o),
(452,-323,q),
(471,-364,o),
(490.5,-372.5,q),
(510,-381,o),
(534.5,-381,q),
(559,-381,o),
(603,-374,q)
);
},
{
closed = 1;
nodes = (
(433,221,l),
(527,141,o),
(662,141,q),
(817,141,o),
(914,256,q),
(1018,380,o),
(1018,591,q),
(1018,815,o),
(927,928,q),
(845,1031,o),
(699,1031,q),
(553,1031,o),
(433,917,q)
);
}
);
width = 1364;
}
);
unicode = 254;
},
{
category = Letter;
glyphname = Aogonek;
layers = (
{
layerId = "3ab791a5-0594-4336-bd7a-6e9e95a35031";
name = Fore;
shapes = (
{
closed = 1;
nodes = (
(1102,111,o),
(1123,111,q),
(1144,111,o),
(1164.5,115.5,q),
(1185,120,o),
(1201,130,q),
(1237,152,o),
(1237,199,q),
(1237,238,o),
(1213,286,q),
(1119,519,l),
(486,519,l),
(374,235,l),
(358,196,o),
(358,178.5,q),
(358,161,o),
(363.5,152.5,q),
(369,144,o),
(380.5,138,q),
(392,132,o),
(409,128,q),
(450,117,l),
(516,106,o),
(535,97,q),
(574,78,o),
(574,41,q),
(574,14,o),
(559,-5,q),
(540,0,o),
(524,0,q),
(117,0,l),
(-16,0,o),
(-16,73,q),
(-16,107,o),
(-1,128,q),
(36,118,o),
(61.5,118,q),
(87,118,o),
(104.5,126,q),
(122,134,o),
(138,153,q),
(165,186,o),
(201,285,q),
(695,1481,l),
(716,1529,o),
(814,1547,q),
(841,1552,o),
(871,1552,q),
(932,1552,o),
(946,1519,q),
(1046,1269,l),
(1335,587,o),
(1380,473,q),
(1470,237,l),
(1497,160,o),
(1515,142,q),
(1533,124,o),
(1554,117,q),
(1575,110,o),
(1597.5,105.5,q),
(1620,101,o),
(1637,94,q),
(1675,77,o),
(1675,42,q),
(1675,15,o),
(1660,-4,q),
(1641,1,o),
(1626,1,q),
(1444,1,l),
(1321,-126,o),
(1321,-226,q),
(1321,-335,o),
(1449,-335,q),
(1538,-335,o),
(1617,-262,q),
(1660,-279,o),
(1660,-307,q),
(1660,-335,o),
(1633.5,-370,q),
(1607,-405,o),
(1564,-437,q),
(1459,-514,o),
(1350,-514,q),
(1203,-514,o),
(1146,-400,q),
(1127,-362,o),
(1127,-312,q),
(1127,-155,o),
(1304,1,q),
(1149,1,l),
(1098,1,o),
(1069.5,13.5,q),
(1041,26,o),
(1041,52,q),
(1041,97,o),
(1060,118,q)
);
},
{
closed = 1;
nodes = (
(799,1309,l),
(542,661,l),
(1061,661,l)
);
}
);
width = 1658;
}
);
unicode = 260;
},
{
category = Letter;
glyphname = aogonek;
layers = (
{
layerId = "3ab791a5-0594-4336-bd7a-6e9e95a35031";
name = Fore;
shapes = (
{
closed = 1;
nodes = (
(669,-19,o),
(462,-19,q),
(302,-19,o),
(206,73,q),
(109,166,o),
(109,314,q),
(109,498,o),
(273,590,q),
(421,674,o),
(690,674,q),
(815,674,l),
(816,712,o),
(816,748,q),
(816,823,l),
(816,957,o),
(777,1012,q),
(733,1074,o),
(627,1074,q),
(384,1074,o),
(377,900,q),
(376,873,o),
(378,855,q),
(358,839,o),
(310.5,839,q),
(263,839,o),
(241.5,850,q),
(220,861,o),
(204,880,q),
(170,919,o),
(170,979.5,q),
(170,1040,o),
(205.5,1085.5,q),
(241,1131,o),
(302,1160,q),
(421,1219,o),
(583,1219,q),
(745,1219,o),
(826.5,1187.5,q),
(908,1156,o),
(956,1104,q),
(1041,1012,o),
(1041,857,q),
(1031,377,l),
(1031,246,o),
(1043.5,211,q),
(1056,176,o),
(1073.5,164,q),
(1091,152,o),
(1116.5,152,q),
(1142,152,o),
(1158,160,q),
(1186,173,l),
(1200,178,o),
(1210.5,161.5,q),
(1221,145,o),
(1221,137,q),
(1221,87,o),
(1148,41,q),
(1150,40,l),
(895,-112,o),
(895,-232,q),
(895,-335,o),
(1014,-335,q),
(1082,-335,o),
(1150,-287,q),
(1169,-274,o),
(1181,-262,q),
(1224,-278,o),
(1224,-306.5,q),
(1224,-335,o),
(1197.5,-370,q),
(1171,-405,o),
(1128,-437,q),
(1023,-514,o),
(915,-514,q),
(773,-514,o),
(719,-400,q),
(701,-362,o),
(701,-312,q),
(701,-143,o),
(920,-12,q),
(830,16,o),
(815,127,q)
);
},
{
closed = 1;
nodes = (
(812,402,o),
(814,544,q),
(606,536,o),
(531.5,517.5,q),
(457,499,o),
(424,482,q),
(391,465,o),
(372,442,q),
(341,404,o),
(341,327.5,q),
(341,251,o),
(395,205.5,q),
(449,160,o),
(550,160,q),
(693,160,o),
(812,258,q)
);
}
);
width = 1247;
}
);
unicode = 261;
},
{
category = Letter;
glyphname = Dcroat;
layers = (
{
layerId = "3ab791a5-0594-4336-bd7a-6e9e95a35031";
name = Fore;
shapes = (
{
closed = 1;
nodes = (
(454,1,l),
(196,1,l),
(144,1,o),
(109,18.5,q),
(74,36,o),
(74,62,q),
(74,110,o),
(89,129,q),
(125,119,o),
(162,119,q),
(199,119,o),
(224.5,124,q),
(250,129,o),
(270,145,q),
(316,181,o),
(316,270,q),
(316,694,l),
(133,694,l),
(122,720,o),
(122,748,q),
(122,776,o),
(125.5,794,q),
(129,812,o),
(136,826,q),
(153,857,o),
(178,857,q),
(316,857,l),
(316,1289,l),
(316,1382,o),
(200,1405,q),
(128,1420,o),
(106.5,1437.5,q),
(85,1455,o),
(85,1476,q),
(85,1522,o),
(101,1538,q),
(119,1533,o),
(134,1533,q),
(437,1533,l),
(460,1533,o),
(498,1535,q),
(583,1540,l),
(708,1546,o),
(839.5,1546,q),
(971,1546,o),
(1095,1514.5,q),
(1219,1483,o),
(1309.5,1429,q),
(1400,1375,o),
(1460.5,1303.5,q),
(1521,1232,o),
(1558,1152,q),
(1624,1005,o),
(1624,822,q),
(1624,490,o),
(1452,270,q),
(1317,97,o),
(1055,26,q),
(919,-10,o),
(739,-10,q)
);
},
{
closed = 1;
nodes = (
(872,835,o),
(872,794,q),
(872,728,o),
(839,702,q),
(828,694,o),
(813,694,q),
(552,694,l),
(552,241,l),
(552,166,o),
(599,144,q),
(639,126,o),
(790.5,126,q),
(942,126,o),
(1060,176,q),
(1178,226,o),
(1248,311,q),
(1374,464,o),
(1374,742,q),
(1374,1219,o),
(1037,1365,q),
(915,1418,o),
(736,1418,q),
(617,1418,o),
(591,1394.5,q),
(565,1371,o),
(558.5,1336.5,q),
(552,1302,o),
(552,1244,q),
(552,857,l),
(859,857,l)
);
}
);
width = 1725;
}
);
unicode = 272;
},
{
category = Letter;
glyphname = dcroat;
layers = (
{
layerId = "3ab791a5-0594-4336-bd7a-6e9e95a35031";
name = Fore;
shapes = (
{
closed = 1;
nodes = (
(764,-20,o),
(578,-20,q),
(373,-20,o),
(244,120,q),
(104,274,o),
(104,545,q),
(104,850,o),
(298,1041,q),
(479,1219,o),
(726,1219,q),
(825,1219,o),
(916,1186,q),
(916,1300,l),
(704,1300,l),
(696,1322,o),
(696,1341.5,q),
(696,1361,o),
(701.5,1378.5,q),
(707,1396,o),
(717,1410,q),
(739,1439,o),
(768,1439,q),
(916,1439,l),
(916,1475,l),
(916,1545,o),
(902,1564,q),
(879,1596,o),
(827,1596,q),
(805,1596,o),
(783.5,1591.5,q),
(762,1587,o),
(753.5,1591.5,q),
(745,1596,o),
(740,1604,q),
(720,1637,o),
(790,1688,q),
(900,1769,o),
(1007,1769,q),
(1120,1769,o),
(1136,1646,q),
(1140,1609,o),
(1140,1568,q),
(1140,1439,l),
(1289,1439,l),
(1298,1421,o),
(1298,1401,q),
(1298,1381,o),
(1292.5,1363.5,q),
(1287,1346,o),
(1278,1332,q),
(1256,1300,o),
(1223,1300,q),
(1140,1300,l),
(1140,407,l),
(1140,253,o),
(1152,215,q),
(1164,177,o),
(1180.5,165.5,q),
(1197,154,o),
(1222,154,q),
(1247,154,o),
(1263,162,q),
(1293,175,l),
(1306,178,o),
(1316,163,q),
(1337,132,o),
(1322,107,q),
(1307,82,o),
(1277,59,q),
(1247,36,o),
(1210,19,q),
(1048,-54,o),
(968,16,q),
(929,50,o),
(919,125,q)
);
},
{
closed = 1;
nodes = (
(818,1058,o),
(688,1058,q),
(532,1058,o),
(435,943,q),
(331,820,o),
(331,608,q),
(331,271,o),
(523,192,q),
(583,168,o),
(639.5,168,q),
(696,168,o),
(734,177,q),
(772,186,o),
(805,201,q),
(871,231,o),
(916,274,q),
(916,983,l)
);
}
);
width = 1378;
}
);
unicode = 273;
},
{
category = Letter;
glyphname = Eogonek;
layers = (
{
layerId = "3ab791a5-0594-4336-bd7a-6e9e95a35031";
name = Fore;
shapes = (
{
closed = 1;
nodes = (
(806,-155,o),
(982,0,q),
(207,0,l),
(88,0,o),
(88,71,q),
(88,109,o),
(104,129,q),
(138,119,o),
(170,119,q),
(202,119,o),
(225,124,q),
(248,129,o),
(268,145,q),
(316,182,o),
(316,270,q),
(316,1283,l),
(316,1370,o),
(246,1394,q),
(226,1401,o),
(204.5,1406.5,q),
(183,1412,o),
(163.5,1417.5,q),
(144,1423,o),
(129,1430,q),
(95,1448,o),
(95,1479,q),
(95,1520,o),
(111,1538,q),
(129,1533,o),
(147,1533,q),
(147,1533,o),
(1170,1533,q),
(1262,1533,o),
(1285,1516,q),
(1327,1486,o),
(1327,1384,q),
(1327,1286,o),
(1310.5,1224,q),
(1294,1162,o),
(1287,1150,q),
(1277,1132,o),
(1248,1132,q),
(1206,1132,o),
(1190.5,1142.5,q),
(1175,1153,o),
(1174,1158,q),
(1161,1301,o),
(1129,1340.5,q),
(1097,1380,o),
(1053.5,1394.5,q),
(1010,1409,o),
(940,1409,q),
(717,1409,l),
(611,1409,o),
(587.5,1388,q),
(564,1367,o),
(558,1339.5,q),
(552,1312,o),
(552,1269,q),
(552,843,l),
(611,842,l),
(832,842,o),
(1021,881,q),
(1035,874,o),
(1046,841.5,q),
(1057,809,o),
(1057,777,q),
(1057,723,o),
(1039,683,q),
(973,677,o),
(887,677,q),
(801,677,o),
(552,705,q),
(552,254,l),
(552,179,o),
(592,153,q),
(626,131,o),
(714,131,q),
(865,135,l),
(1084,143,o),
(1150,196,q),
(1187,226,o),
(1199,275,q),
(1211,324,o),
(1211,373.5,q),
(1211,423,o),
(1209,445,q),
(1236,468,o),
(1266,468,q),
(1312,468,o),
(1319,455,q),
(1358,377,o),
(1358,197,q),
(1358,72,o),
(1330,16,q),
(1321,0,o),
(1311,0,q),
(1122,0,l),
(1000,-129,o),
(1000,-226,q),
(1000,-335,o),
(1128,-335,q),
(1217,-335,o),
(1296,-262,q),
(1339,-279,o),
(1339,-307,q),
(1339,-335,o),
(1312.5,-370,q),
(1286,-405,o),
(1242,-437,q),
(1138,-514,o),
(1029,-514,q),
(882,-514,o),
(825,-400,q),
(806,-362,o),
(806,-312,q)
);
}
);
width = 1440;
}
);
unicode = 280;
},
{
category = Letter;
glyphname = eogonek;
layers = (
{
layerId = "3ab791a5-0594-4336-bd7a-6e9e95a35031";
name = Fore;
shapes = (
{
closed = 1;
nodes = (
(659,-19,o),
(620,-19,q),
(380,-19,o),
(243,134,q),
(108,284,o),
(108,547,q),
(108,865,o),
(300,1052,q),
(472,1219,o),
(696,1219,q),
(901,1219,o),
(1006,1056,q),
(1095,915,o),
(1095,681,q),
(1095,594,o),
(1022,592,q),
(324,577,l),
(330,360,o),
(436,256,q),
(526,168,o),
(669,168,q),
(882,168,o),
(1015,257,q),
(1024,257,o),
(1037,242,q),
(1062,212,o),
(1062,192.5,q),
(1062,173,o),
(1036,142,q),
(1010,111,o),
(961,79,q),
(807,-39,o),
(754,-154,q),
(737,-193,o),
(737,-226,q),
(737,-335,o),
(856,-335,q),
(944,-335,o),
(1023,-262,q),
(1066,-278,o),
(1066,-306.5,q),
(1066,-335,o),
(1039.5,-370,q),
(1013,-405,o),
(970,-437,q),
(865,-514,o),
(757,-514,q),
(615,-514,o),
(561,-400,q),
(543,-362,o),
(543,-314,q),
(543,-266,o),
(557,-224,q),
(571,-182,o),
(595,-144,q),
(638,-75,o),
(713,-12,q)
);
},
{
closed = 1;
nodes = (
(618,720,o),
(857,743,q),
(868,1061,o),
(637,1061,q),
(508,1061,o),
(426,961,q),
(351,869,o),
(330,706,q)
);
}
);
width = 1209;
}
);
unicode = 281;
},
{
category = Letter;
glyphname = Hbar;
layers = (
{
layerId = "3ab791a5-0594-4336-bd7a-6e9e95a35031";
name = Fore;
shapes = (
{
closed = 1;
nodes = (
(709,0,o),
(633,0,q),
(216,0,l),
(164,0,o),
(133,16.5,q),
(102,33,o),
(102,77,q),
(102,109,o),
(117,128,q),
(157,118,o),
(191,118,q),
(225,118,o),
(245,125.5,q),
(265,133,o),
(280,152,q),
(310,192,o),
(310,285,q),
(310,1014,l),
(138,1014,l),
(130,1036,o),
(130,1056,q),
(130,1076,o),
(135.5,1093,q),
(141,1110,o),
(150,1124,q),
(171,1153,o),
(202,1153,q),
(310,1153,l),
(310,1308,l),
(307,1378,o),
(264,1397,q),
(251,1403,o),
(228,1408,q),
(180,1418,l),
(131,1430,o),
(120,1447.5,q),
(109,1465,o),
(109,1483,q),
(109,1520,o),
(124,1541,q),
(147,1533,o),
(223,1533,q),
(630,1533,l),
(682,1533,o),
(713.5,1516.5,q),
(745,1500,o),
(745,1456,q),
(745,1423,o),
(729,1405,q),
(691,1415,o),
(646,1415,q),
(549,1415,o),
(546,1257,q),
(546,1153,l),
(1346,1153,l),
(1346,1308,l),
(1343,1378,o),
(1300,1397,q),
(1287,1403,o),
(1264,1408,q),
(1216,1418,l),
(1167,1430,o),
(1156,1447.5,q),
(1145,1465,o),
(1145,1483,q),
(1145,1523,o),
(1160,1541,q),
(1183,1533,o),
(1259,1533,q),
(1666,1533,l),
(1718,1533,o),
(1749.5,1516.5,q),
(1781,1500,o),
(1781,1456,q),
(1781,1423,o),
(1765,1405,q),
(1727,1415,o),
(1682,1415,q),
(1585,1415,o),
(1582,1257,q),
(1582,1153,l),
(1761,1153,l),
(1770,1135,o),
(1770,1115,q),
(1770,1095,o),
(1764.5,1077.5,q),
(1759,1060,o),
(1750,1046,q),
(1728,1014,o),
(1695,1014,q),
(1582,1014,l),
(1582,236,l),
(1582,180,o),
(1599,162,q),
(1624,135,o),
(1661,127.5,q),
(1698,120,o),
(1722,114.5,q),
(1746,109,o),
(1762,101,q),
(1794,85,o),
(1794,47,q),
(1794,12,o),
(1778,-8,q),
(1755,0,o),
(1679,0,q),
(1262,0,l),
(1210,0,o),
(1179,16.5,q),
(1148,33,o),
(1148,77,q),
(1148,109,o),
(1163,128,q),
(1201,118,o),
(1234,118,q),
(1267,118,o),
(1285,125,q),
(1303,132,o),
(1316,150,q),
(1344,187,o),
(1346,275,q),
(1346,677,l),
(546,677,l),
(546,236,l),
(546,157,o),
(590,136,q),
(604,130,o),
(628,125,q),
(652,120,o),
(675.5,114.5,q),
(699,109,o),
(715,101,q),
(748,84,o),
(748,47,q),
(748,12,o),
(732,-8,q)
);
},
{
closed = 1;
nodes = (
(1346,1014,l),
(546,1014,l),
(546,815,l),
(1346,815,l)
);
}
);
width = 1892;
}
);
unicode = 294;
},
{
category = Letter;
glyphname = hbar;
layers = (
{
layerId = "3ab791a5-0594-4336-bd7a-6e9e95a35031";
name = Fore;
shapes = (
{
closed = 1;
nodes = (
(610,0,o),
(566,0,q),
(247,0,l),
(151,0,o),
(124,34,q),
(113,47,o),
(113,64,q),
(113,106,o),
(129,126,q),
(153,118,o),
(184,118,q),
(215,118,o),
(230,143,q),
(245,168,o),
(244,236,q),
(244,1282,l),
(48,1282,l),
(40,1304,o),
(40,1323.5,q),
(40,1343,o),
(45.5,1361,q),
(51,1379,o),
(61,1392,q),
(83,1422,o),
(113,1422,q),
(244,1422,l),
(244,1475,l),
(244,1544,o),
(230,1564,q),
(209,1596,o),
(156,1596,q),
(136,1596,l),
(127,1596,o),
(115.5,1593.5,q),
(104,1591,o),
(96,1595.5,q),
(88,1600,o),
(82,1608,q),
(61,1639,o),
(130,1692,q),
(231,1769,o),
(336,1769,q),
(450,1769,o),
(464,1646,q),
(468,1609,o),
(468,1568,q),
(468,1422,l),
(653,1422,l),
(662,1404,o),
(662,1384,q),
(662,1364,o),
(656.5,1346.5,q),
(651,1329,o),
(642,1314,q),
(620,1282,o),
(587,1282,q),
(468,1282,l),
(468,1023,l),
(619,1150,o),
(791,1200,q),
(854,1219,o),
(918.5,1219,q),
(983,1219,o),
(1041.5,1202,q),
(1100,1185,o),
(1142,1147,q),
(1234,1065,o),
(1234,897,q),
(1234,226,l),
(1234,143,o),
(1290,124,q),
(1306,118,o),
(1328,114,q),
(1350,110,o),
(1367.5,104.5,q),
(1385,99,o),
(1395,92,q),
(1412,79,o),
(1412,50,q),
(1412,14,o),
(1397,-5,q),
(1376,0,o),
(1333,0,q),
(1014,0,l),
(918,0,o),
(891,34,q),
(880,47,o),
(880,64,q),
(880,107,o),
(895,126,q),
(920,118,o),
(949,118,q),
(978,118,o),
(993.5,139,q),
(1009,160,o),
(1011,216,q),
(1011,826,l),
(1011,996,o),
(910,1016,q),
(879,1022,o),
(832.5,1022,q),
(786,1022,o),
(730.5,1008,q),
(675,994,o),
(626,972,q),
(529,928,o),
(468,867,q),
(468,226,l),
(468,143,o),
(524,124,q),
(540,118,o),
(562,114,q),
(584,110,o),
(601.5,104.5,q),
(619,99,o),
(629,92,q),
(646,79,o),
(646,50,q),
(646,15,o),
(630,-5,q)
);
}
);
width = 1461;
}
);
unicode = 295;
},
{
category = Letter;
glyphname = Iogonek;
layers = (
{
layerId = "3ab791a5-0594-4336-bd7a-6e9e95a35031";
name = Fore;
shapes = (
{
closed = 1;
nodes = (
(205,-155,o),
(381,0,q),
(217,0,l),
(165,0,o),
(134,16.5,q),
(103,33,o),
(103,77,q),
(103,109,o),
(118,128,q),
(158,118,o),
(191.5,118,q),
(225,118,o),
(244.5,125,q),
(264,132,o),
(278,150,q),
(309,188,o),
(311,275,q),
(311,1297,l),
(311,1376,o),
(267,1396,q),
(253,1403,o),
(229,1408,q),
(205,1413,o),
(181.5,1418.5,q),
(158,1424,o),
(142,1432,q),
(110,1448,o),
(110,1486,q),
(110,1523,o),
(125,1541,q),
(148,1533,o),
(224,1533,q),
(631,1533,l),
(683,1533,o),
(714.5,1516.5,q),
(746,1500,o),
(746,1456,q),
(746,1423,o),
(730,1405,q),
(692,1415,o),
(647,1415,q),
(550,1415,o),
(547,1257,q),
(547,236,l),
(547,157,o),
(591,136,q),
(605,130,o),
(629,125,q),
(653,120,o),
(676.5,114.5,q),
(700,109,o),
(716,101,q),
(749,84,o),
(749,47,q),
(749,12,o),
(733,-8,q),
(710,0,o),
(634,0,q),
(521,0,l),
(399,-129,o),
(399,-226,q),
(399,-335,o),
(527,-335,q),
(616,-335,o),
(695,-262,q),
(738,-279,o),
(738,-307,q),
(738,-335,o),
(711.5,-370,q),
(685,-405,o),
(642,-437,q),
(537,-514,o),
(428,-514,q),
(281,-514,o),
(224,-400,q),
(205,-362,o),
(205,-312,q)
);
}
);
width = 858;
}
);
unicode = 302;
},
{
category = Letter;
glyphname = iogonek;
layers = (
{
layerId = "3ab791a5-0594-4336-bd7a-6e9e95a35031";
name = Fore;
shapes = (
{
closed = 1;
nodes = (
(300,1405,o),
(271.5,1415.5,q),
(243,1426,o),
(222,1446,q),
(178,1488,o),
(178,1559,q),
(178,1627,o),
(230,1674,q),
(280,1721,o),
(350,1721,q),
(420,1721,o),
(462,1679,q),
(504,1637,o),
(504,1565,q),
(504,1497,o),
(454,1450,q),
(405,1405,o),
(334,1405,q)
);
},
{
closed = 1;
nodes = (
(119,0,o),
(119,70,q),
(119,106,o),
(135,126,q),
(159,118,o),
(179,118,q),
(272,118,o),
(270,236,q),
(270,906,l),
(270,976,o),
(250.5,1003.5,q),
(231,1031,o),
(181,1031,q),
(144,1031,o),
(114,1022,q),
(96,1020,o),
(88,1050,q),
(81,1077,o),
(96,1097.5,q),
(111,1118,o),
(142.5,1140.5,q),
(174,1163,o),
(212,1180,q),
(294,1219,o),
(349,1219,q),
(404,1219,o),
(430.5,1203,q),
(457,1187,o),
(471,1160,q),
(493,1116,o),
(493,1018,q),
(493,219,l),
(496,140,o),
(550,123,q),
(565,118,o),
(587,114,q),
(609,110,o),
(626.5,104.5,q),
(644,99,o),
(654,92,q),
(671,79,o),
(671,50,q),
(671,14,o),
(656,-5,q),
(635,0,o),
(592,0,q),
(445,0,l),
(323,-129,o),
(323,-226,q),
(323,-335,o),
(451,-335,q),
(540,-335,o),
(619,-262,q),
(662,-279,o),
(662,-307,q),
(662,-335,o),
(635.5,-370,q),
(609,-405,o),
(566,-437,q),
(461,-514,o),
(352,-514,q),
(205,-514,o),
(148,-400,q),
(129,-362,o),
(129,-312,q),
(129,-155,o),
(305,0,q),
(273,0,l)
);
}
);
width = 717;
}
);
unicode = 303;
},
{
category = Letter;
glyphname = dotlessi;
layers = (
{
layerId = "3ab791a5-0594-4336-bd7a-6e9e95a35031";
name = Fore;
shapes = (
{
closed = 1;
nodes = (
(119,0,o),
(119,70,q),
(119,106,o),
(135,126,q),
(159,118,o),
(189,118,q),
(219,118,o),
(243.5,140,q),
(268,162,o),
(270,223,q),
(270,906,l),
(270,976,o),
(250.5,1003.5,q),
(231,1031,o),
(181,1031,q),
(144,1031,o),
(114,1022,q),
(96,1020,o),
(88,1050,q),
(81,1077,o),
(96,1097.5,q),
(111,1118,o),
(142.5,1140.5,q),
(174,1163,o),
(212,1180,q),
(294,1219,o),
(349,1219,q),
(404,1219,o),
(430.5,1203,q),
(457,1187,o),
(471,1160,q),
(493,1116,o),
(493,1018,q),
(493,219,l),
(496,140,o),
(550,123,q),
(565,118,o),
(587,114,q),
(609,110,o),
(626.5,104.5,q),
(644,99,o),
(654,92,q),
(671,79,o),
(671,50,q),
(671,14,o),
(656,-5,q),
(635,0,o),
(592,0,q),
(273,0,l)
);
}
);
width = 717;
}
);
unicode = 305;
},
{
category = Letter;
glyphname = kgreenlandic;
layers = (
{
layerId = "3ab791a5-0594-4336-bd7a-6e9e95a35031";
name = Fore;
shapes = (
{
closed = 1;
nodes = (
(1190,1219,o),
(1190,1123,q),
(1190,1009,o),
(950,784,q),
(902,739,o),
(853,699,q),
(761,627,l),
(825,569,o),
(891,479,q),
(995,338,l),
(1079,223,o),
(1122,190,q),
(1165,157,o),
(1192.5,157,q),
(1220,157,o),
(1236,160.5,q),
(1252,164,o),
(1262,168,q),
(1272,172,o),
(1277.5,175.5,q),
(1283,179,o),
(1291,180,q),
(1299,181,o),
(1312,173,q),
(1325,165,o),
(1325,146,q),
(1325,127,o),
(1309.5,98.5,q),
(1294,70,o),
(1266,44,q),
(1198,-19,o),
(1119,-19,q),
(1040,-19,o),
(986,17,q),
(932,53,o),
(885,110.5,q),
(838,168,o),
(796,238,q),
(713,376,l),
(612,545,o),
(540,597,q),
(497,627,o),
(512,633,q),
(538,648,l),
(716,779,o),
(769,826.5,q),
(822,874,o),
(852,910,q),
(920,988,o),
(920,1047,q),
(920,1087,o),
(840,1093,q),
(830,1109,o),
(830,1127,q),
(830,1145,o),
(849.5,1162.5,q),
(869,1180,o),
(899,1192,q),
(963,1219,o),
(1034,1219,q)
);
},
{
closed = 1;
nodes = (
(591,0,o),
(547,0,q),
(247,0,l),
(151,0,o),
(124,34,q),
(113,47,o),
(113,64,q),
(113,106,o),
(129,126,q),
(153,118,o),
(184,118,q),
(215,118,o),
(230,143,q),
(245,168,o),
(244,236,q),
(244,925,l),
(244,994,o),
(230,1014,q),
(209,1046,o),
(156,1046,q),
(132,1046,o),
(111.5,1041.5,q),
(91,1037,o),
(82.5,1041.5,q),
(74,1046,o),
(69,1054,q),
(48,1087,o),
(118,1138,q),
(228,1219,o),
(336,1219,q),
(450,1219,o),
(464,1096,q),
(468,1059,o),
(468,1018,q),
(468,219,l),
(471,141,o),
(518,123,q),
(532,118,o),
(551.5,114,q),
(571,110,o),
(587,104.5,q),
(603,99,o),
(612,92,q),
(627,79,o),
(627,50,q),
(627,15,o),
(611,-5,q)
);
}
);
width = 1325;
}
);
unicode = 312;
},
{
category = Letter;
glyphname = lacute;
layers = (
{
layerId = "3ab791a5-0594-4336-bd7a-6e9e95a35031";
name = Fore;
shapes = (
{
closed = 1;
nodes = (
(626,0,o),
(582,0,q),
(263,0,l),
(167,0,o),
(140,34,q),
(129,47,o),
(129,64,q),
(129,106,o),
(145,126,q),
(169,118,o),
(199.5,118,q),
(230,118,o),
(245.5,143,q),
(261,168,o),
(260,236,q),
(260,1301,l),
(260,1371,o),
(246,1390,q),
(224,1421,o),
(172,1421,q),
(149,1421,o),
(127.5,1416.5,q),
(106,1412,o),
(97.5,1416.5,q),
(89,1421,o),
(84,1430,q),
(72,1450,o),
(87,1470.5,q),
(102,1491,o),
(134,1514.5,q),
(166,1538,o),
(204,1556,q),
(285,1595,o),
(340,1595,q),
(395,1595,o),
(421.5,1579,q),
(448,1563,o),
(462,1536,q),
(483,1492,o),
(483,1394,q),
(483,219,l),
(486,141,o),
(540,123,q),
(556,118,o),
(577.5,114,q),
(599,110,o),
(617,104.5,q),
(635,99,o),
(645,92,q),
(662,79,o),
(662,50,q),
(662,15,o),
(646,-5,q)
);
},
{
closed = 1;
nodes = (
(136,1648,o),
(116,1695,q),
(112,1706,o),
(112,1712,q),
(112,1725,o),
(119,1732,q),
(466,1945,l),
(488,1961,o),
(512,1961,q),
(536,1961,o),
(559,1945.5,q),
(582,1930,o),
(600,1906,q),
(639,1856,o),
(639,1807,q),
(639,1770,o),
(610,1760,q),
(166,1648,l)
);
}
);
width = 715;
}
);
unicode = 314;
},
{
category = Letter;
glyphname = Lslash;
layers = (
{
layerId = "3ab791a5-0594-4336-bd7a-6e9e95a35031";
name = Fore;
shapes = (
{
closed = 1;
nodes = (
(1358,86,o),
(1298,0,q),
(207,0,l),
(128,0,o),
(98,40,q),
(88,54,o),
(88,71,q),
(88,109,o),
(104,129,q),
(138,119,o),
(193,119,q),
(316,119,o),
(316,270,q),
(316,565,l),
(177,494,l),
(128,535,o),
(128,593,q),
(128,630,o),
(154,645,q),
(316,727,l),
(316,1297,l),
(316,1366,o),
(258,1390,q),
(241,1398,o),
(216,1405,q),
(166,1418,l),
(118,1430,o),
(106.5,1447.5,q),
(95,1465,o),
(95,1483,q),
(95,1521,o),
(111,1541,q),
(134,1533,o),
(210,1533,q),
(646,1533,l),
(698,1533,o),
(729,1516.5,q),
(760,1500,o),
(760,1456,q),
(760,1422,o),
(745,1405,q),
(707,1415,o),
(672.5,1415,q),
(638,1415,o),
(618.5,1407.5,q),
(599,1400,o),
(584,1382,q),
(554,1344,o),
(552,1257,q),
(552,847,l),
(966,1058,l),
(988,1044,o),
(1002,1017,q),
(1016,990,o),
(1016,968,q),
(1016,923,o),
(986,906,q),
(552,685,l),
(552,246,l),
(554,176,o),
(593,152,q),
(626,131,o),
(714,131,q),
(789,132,l),
(875,133,l),
(1093,133,o),
(1160,230,q),
(1193,278,o),
(1204.5,350.5,q),
(1216,423,o),
(1225,519,q),
(1241,529,o),
(1268,529,q),
(1319,529,o),
(1337,517,q),
(1358,435,o),
(1358,311,q)
);
}
);
width = 1434;
}
);
unicode = 321;
},
{
category = Letter;
glyphname = lslash;
layers = (
{
layerId = "3ab791a5-0594-4336-bd7a-6e9e95a35031";
name = Fore;
shapes = (
{
closed = 1;
nodes = (
(110,0,o),
(110,70,q),
(110,107,o),
(125,126,q),
(149,118,o),
(170,118,q),
(257,118,o),
(260,223,q),
(260,696,l),
(182,642,l),
(161,625,o),
(140,625,q),
(119,625,o),
(103.5,632.5,q),
(88,640,o),
(76,652,q),
(51,676,o),
(44,709,q),
(260,860,l),
(260,1475,l),
(260,1545,o),
(246,1564,q),
(223,1596,o),
(172,1596,q),
(149,1596,o),
(127.5,1591.5,q),
(106,1587,o),
(97.5,1591.5,q),
(89,1596,o),
(84,1604,q),
(64,1637,o),
(134,1688,q),
(244,1769,o),
(351,1769,q),
(465,1769,o),
(479,1646,q),
(483,1609,o),
(483,1568,q),
(483,1017,l),
(598,1098,l),
(616,1113,o),
(643,1113,q),
(670,1113,o),
(697.5,1089.5,q),
(725,1066,o),
(736,1030,q),
(483,852,l),
(483,219,l),
(486,141,o),
(540,123,q),
(556,118,o),
(577.5,114,q),
(599,110,o),
(617,104.5,q),
(635,99,o),
(645,92,q),
(662,79,o),
(662,50,q),
(662,15,o),
(646,-5,q),
(626,0,o),
(582,0,q),
(263,0,l)
);
}
);
width = 715;
}
);
unicode = 322;
},
{
category = Letter;
glyphname = Eng;
layers = (
{
layerId = "3ab791a5-0594-4336-bd7a-6e9e95a35031";
name = Fore;
shapes = (
{
closed = 1;
nodes = (
(81,0,o),
(81,77,q),
(81,112,o),
(97,126,q),
(126,118,o),
(157.5,118,q),
(189,118,o),
(212.5,126,q),
(236,134,o),
(254,149,q),
(290,180,o),
(290,236,q),
(290,1325,l),
(288,1365,o),
(273,1385,q),
(258,1405,o),
(228,1413.5,q),
(198,1422,o),
(178.5,1426,q),
(159,1430,o),
(143,1436,q),
(108,1451,o),
(108,1473,q),
(108,1519,o),
(123,1538,q),
(144,1533,o),
(187,1533,q),
(382,1533,l),
(470,1533,o),
(540,1444,q),
(1381,378,l),
(1381,1311,l),
(1380,1351,o),
(1364.5,1378,q),
(1349,1405,o),
(1312.5,1414,q),
(1276,1423,o),
(1248,1427.5,q),
(1220,1432,o),
(1198,1440,q),
(1151,1456,o),
(1151,1492,q),
(1151,1522,o),
(1167,1538,q),
(1188,1533,o),
(1231,1533,q),
(1634,1533,l),
(1768,1533,o),
(1768,1476,q),
(1768,1428,o),
(1753,1411,q),
(1728,1418,o),
(1695.5,1418,q),
(1663,1418,o),
(1639,1416.5,q),
(1615,1415,o),
(1596,1404,q),
(1554,1381,o),
(1552,1310,q),
(1552,28,l),
(1552,7,o),
(1543,-2,q),
(1532,-245,o),
(1406,-386,q),
(1292,-514,o),
(1127,-514,q),
(1030,-514,o),
(970,-467,q),
(915,-424,o),
(915,-367,q),
(915,-308,o),
(956,-278,q),
(995,-250,o),
(1051,-260,q),
(1061,-341,o),
(1152,-341,q),
(1298,-341,o),
(1352,-151,q),
(1372,-78,o),
(1374,36,q),
(1350,58,o),
(1326,91,q),
(461,1179,l),
(461,222,l),
(466,136,o),
(542,116,q),
(571,110,o),
(599.5,106,q),
(628,102,o),
(650,96,q),
(701,83,o),
(701,50,q),
(701,14,o),
(686,-5,q),
(665,0,o),
(622,0,q),
(215,0,l)
);
}
);
width = 1815;
}
);
unicode = 330;
},
{
category = Letter;
glyphname = eng;
layers = (
{
layerId = "3ab791a5-0594-4336-bd7a-6e9e95a35031";
name = Fore;
shapes = (
{
closed = 1;
nodes = (
(626,0,o),
(582,0,q),
(263,0,l),
(167,0,o),
(140,34,q),
(129,47,o),
(129,64,q),
(129,106,o),
(145,126,q),
(169,118,o),
(199.5,118,q),
(230,118,o),
(245.5,143,q),
(261,168,o),
(260,236,q),
(260,890,l),
(260,984,o),
(225,1007,q),
(211,1016,o),
(188,1016,q),
(165,1016,o),
(151.5,1009,q),
(138,1002,o),
(129.5,999,q),
(121,996,o),
(115,999.5,q),
(109,1003,o),
(103,1010,q),
(88,1026,o),
(88,1043.5,q),
(88,1061,o),
(100.5,1080.5,q),
(113,1100,o),
(141,1125.5,q),
(169,1151,o),
(205,1172,q),
(286,1219,o),
(367,1219,q),
(460,1219,o),
(477,1096,q),
(482,1060,o),
(483,1022,q),
(632,1147,o),
(807,1200,q),
(870,1219,o),
(934.5,1219,q),
(999,1219,o),
(1057.5,1202,q),
(1116,1185,o),
(1159,1147,q),
(1250,1067,o),
(1250,897,q),
(1250,37,l),
(1250,-224,o),
(1122,-376,q),
(1006,-514,o),
(834,-514,q),
(737,-514,o),
(677,-467,q),
(622,-424,o),
(622,-367,q),
(622,-308,o),
(664,-278,q),
(702,-250,o),
(758,-260,q),
(762,-292,o),
(785,-316.5,q),
(808,-341,o),
(853,-341,q),
(898,-341,o),
(929,-331.5,q),
(960,-322,o),
(982,-296,q),
(1027,-239,o),
(1027,-104,q),
(1027,826,l),
(1027,996,o),
(926,1016,q),
(895,1022,o),
(848.5,1022,q),
(802,1022,o),
(746,1008,q),
(690,994,o),
(641,972,q),
(547,930,o),
(483,866,q),
(483,226,l),
(483,144,o),
(540,124,q),
(555,118,o),
(577,114,q),
(599,110,o),
(617,104.5,q),
(635,99,o),
(645,92,q),
(662,79,o),
(662,50,q),
(662,15,o),
(646,-5,q)
);
}
);
width = 1472;
}
);
unicode = 331;
},
{
category = Letter;
glyphname = OE;
layers = (
{
layerId = "3ab791a5-0594-4336-bd7a-6e9e95a35031";
name = Fore;
shapes = (
{
closed = 1;
nodes = (
(905,-19,o),
(784,-19,q),
(663,-19,o),
(534.5,32,q),
(406,83,o),
(312,178,q),
(108,384,o),
(108,713,q),
(108,971,o),
(222,1170,q),
(327,1352,o),
(510,1454,q),
(683,1552,o),
(888,1552,q),
(976,1552,o),
(1065,1533,q),
(1994,1533,l),
(2086,1533,o),
(2109,1516,q),
(2151,1486,o),
(2151,1384,q),
(2151,1286,o),
(2134.5,1224,q),
(2118,1162,o),
(2111,1150,q),
(2101,1132,o),
(2072,1132,q),
(2030,1132,o),
(2014.5,1142.5,q),
(1999,1153,o),
(1998,1158,q),
(1985,1301,o),
(1953,1340.5,q),
(1921,1380,o),
(1877.5,1394.5,q),
(1834,1409,o),
(1764,1409,q),
(1541,1409,l),
(1435,1409,o),
(1411.5,1388,q),
(1388,1367,o),
(1382,1339.5,q),
(1376,1312,o),
(1376,1269,q),
(1376,843,l),
(1435,842,l),
(1656,842,o),
(1845,881,q),
(1859,874,o),
(1870,841.5,q),
(1881,809,o),
(1881,777,q),
(1881,723,o),
(1863,683,q),
(1797,677,o),
(1711,677,q),
(1625,677,o),
(1376,705,q),
(1376,254,l),
(1376,179,o),
(1416,153,q),
(1450,131,o),
(1538,131,q),
(1689,135,l),
(1908,143,o),
(1974,196,q),
(2011,226,o),
(2023,275,q),
(2035,324,o),
(2035,373.5,q),
(2035,423,o),
(2033,445,q),
(2060,468,o),
(2090,468,q),
(2136,468,o),
(2143,455,q),
(2182,377,o),
(2182,197,q),
(2182,72,o),
(2154,16,q),
(2145,0,o),
(2135,0,q),
(1576,0,o),
(1293.5,0,q),
(1011,0,o),
(1005,1,q)
);
},
{
closed = 1;
nodes = (
(360,908,o),
(360,773.5,q),
(360,639,o),
(387.5,527,q),
(415,415,o),
(474,331,q),
(601,148,o),
(845,148,q),
(884,148,l),
(1012,148,o),
(1059.5,169,q),
(1107,190,o),
(1134,213,q),
(1140,237,o),
(1140,270,q),
(1140,1283,l),
(1140,1333,o),
(1119,1360,q),
(1015,1402,o),
(879,1402,q),
(743,1402,o),
(644.5,1356,q),
(546,1310,o),
(483,1226.5,q),
(420,1143,o),
(390,1025.5,q)
);
}
);
width = 2267;
}
);
unicode = 338;
},
{
category = Letter;
glyphname = oe;
layers = (
{
layerId = "3ab791a5-0594-4336-bd7a-6e9e95a35031";
name = Fore;
shapes = (
{
closed = 1;
nodes = (
(1171,-19,o),
(1038,202,q),
(916,37,o),
(723,-6,q),
(664,-19,o),
(576.5,-19,q),
(489,-19,o),
(395,24,q),
(301,67,o),
(235,144,q),
(99,301,o),
(99,553,q),
(99,995,o),
(410,1154,q),
(537,1219,o),
(689,1219,q),
(875,1219,o),
(1010,1087,q),
(1055,1043,o),
(1089,986,q),
(1219,1157,o),
(1420,1204,q),
(1482,1219,o),
(1567,1219,q),
(1652,1219,o),
(1728,1174.5,q),
(1804,1130,o),
(1852,1056,q),
(1941,915,o),
(1941,681,q),
(1941,594,o),
(1868,592,q),
(1170,577,l),
(1176,360,o),
(1282,256,q),
(1372,168,o),
(1515,168,q),
(1728,168,o),
(1861,257,q),
(1870,257,o),
(1883,242,q),
(1908,212,o),
(1908,190,q),
(1908,142,o),
(1788,67,q),
(1650,-19,o),
(1466,-19,q)
);
},
{
closed = 1;
nodes = (
(1464,720,o),
(1703,743,q),
(1714,1061,o),
(1483,1061,q),
(1354,1061,o),
(1272,961,q),
(1197,869,o),
(1176,706,q)
);
},
{
closed = 1;
nodes = (
(733,144,o),
(786,175.5,q),
(839,207,o),
(876,262,q),
(950,376,o),
(950,558,q),
(950,758,o),
(872,898,q),
(784,1059,o),
(619,1059,q),
(486,1059,o),
(406,957,q),
(321,849,o),
(321,655,q),
(321,412,o),
(428,271,q),
(524,144,o),
(666,144,q)
);
}
);
width = 2054;
}
);
unicode = 339;
},
{
category = Letter;
glyphname = Scedilla;
layers = (
{
layerId = "3ab791a5-0594-4336-bd7a-6e9e95a35031";
name = Fore;
shapes = (
{
closed = 1;
nodes = (
(911,-116,o),
(911,-268,q),
(911,-425,o),
(652,-482,q),
(559,-503,o),
(486,-501,q),
(467,-489,o),
(467,-450,q),
(467,-408,o),
(495.5,-404,q),
(524,-400,o),
(559,-393,q),
(594,-386,o),
(624,-374,q),
(697,-345,o),
(697,-296,q),
(697,-229,o),
(559,-224,q),
(548,-224,o),
(541.5,-202.5,q),
(535,-181,o),
(535,-178,q),
(571,-17,l),
(280,-2,o),
(167,132,q),
(126,180,o),
(126,245,q),
(126,366,o),
(182,463,q),
(201,486,o),
(234,486,q),
(298,486,o),
(308,448,q),
(321,275,o),
(414.5,196,q),
(508,117,o),
(676,117,q),
(869,117,o),
(935,243,q),
(958,287,o),
(958,346.5,q),
(958,406,o),
(926,453,q),
(894,500,o),
(841,540,q),
(760,600,o),
(626.5,656,q),
(493,712,o),
(418.5,754,q),
(344,796,o),
(287,852,q),
(163,974,o),
(163,1153,q),
(163,1336,o),
(320,1446,q),
(471,1552,o),
(710,1552,q),
(1013,1552,o),
(1106,1427,q),
(1140,1382,o),
(1140,1309,q),
(1140,1236,o),
(1126.5,1182,q),
(1113,1128,o),
(1100,1112,q),
(1078,1085,o),
(1024.5,1085,q),
(971,1085,o),
(971,1111,q),
(971,1340,o),
(808,1398,q),
(752,1418,o),
(677,1418,q),
(602,1418,o),
(548,1401,q),
(494,1384,o),
(458,1355,q),
(385,1296,o),
(385,1199,q),
(385,1052,o),
(601,948,q),
(726,889,l),
(817,847,o),
(901.5,803.5,q),
(986,760,o),
(1051,704,q),
(1194,582,o),
(1194,402,q),
(1194,224,o),
(1048,108,q),
(910,-1,o),
(696,-16,q),
(681,-111,l)
);
}
);
width = 1322;
}
);
unicode = 350;
},
{
category = Letter;
glyphname = scedilla;
layers = (
{
layerId = "3ab791a5-0594-4336-bd7a-6e9e95a35031";
name = Fore;
shapes = (
{
closed = 1;
nodes = (
(823,-115,o),
(823,-267,q),
(823,-424,o),
(564,-482,q),
(471,-502,o),
(398,-500,q),
(379,-488,o),
(379,-449,q),
(379,-407,o),
(407.5,-403,q),
(436,-399,o),
(471,-392,q),
(506,-385,o),
(536,-373,q),
(609,-344,o),
(609,-295,q),
(609,-228,o),
(471,-223,q),
(460,-223,o),
(453.5,-201.5,q),
(447,-180,o),
(447,-177,q),
(483,-18,l),
(232,-7,o),
(141,107,q),
(109,147,o),
(109,210,q),
(109,364,o),
(186,390,q),
(205,396,o),
(222,396,q),
(269,396,o),
(273,367,q),
(295,117,o),
(553,117,q),
(708,117,o),
(760,204,q),
(777,232,o),
(777,272,q),
(777,312,o),
(751.5,345,q),
(726,378,o),
(681,406.5,q),
(636,435,o),
(574,462,q),
(441,522,l),
(135,662,o),
(135,894,q),
(135,1044,o),
(268,1134,q),
(394,1219,o),
(593,1219,q),
(863,1219,o),
(929,1102,q),
(946,1072,o),
(946,1036,q),
(946,1000,o),
(942,971.5,q),
(938,943,o),
(932,920,q),
(922,876,o),
(909,858,q),
(883,839,o),
(834.5,839,q),
(786,839,o),
(786,864,q),
(786,1018,o),
(658,1068,q),
(617,1084,o),
(569.5,1084,q),
(522,1084,o),
(481.5,1076,q),
(441,1068,o),
(410,1051,q),
(340,1013,o),
(340,942,q),
(340,874,o),
(398,824,q),
(462,771,o),
(636,693.5,q),
(810,616,o),
(904.5,524.5,q),
(999,433,o),
(999,314,q),
(999,194,o),
(906,104,q),
(801,2,o),
(608,-15,q),
(593,-110,l)
);
}
);
width = 1108;
}
);
unicode = 351;
},
{
category = Letter;
glyphname = Tbar;
layers = (
{
layerId = "3ab791a5-0594-4336-bd7a-6e9e95a35031";
name = Fore;
shapes = (
{
closed = 1;
nodes = (
(1140,0,o),
(1064,0,q),
(492,0,l),
(440,0,o),
(408.5,16.5,q),
(377,33,o),
(377,77,q),
(377,108,o),
(393,128,q),
(431,118,o),
(465,118,q),
(499,118,o),
(529,125,q),
(559,132,o),
(586,150,q),
(650,191,o),
(654,275,q),
(654,742,l),
(337,742,l),
(329,760,o),
(329,782.5,q),
(329,805,o),
(334.5,822.5,q),
(340,840,o),
(350,853,q),
(372,882,o),
(401,882,q),
(654,882,l),
(654,1387,l),
(524,1387,l),
(379,1387,o),
(334.5,1373.5,q),
(290,1360,o),
(267.5,1339,q),
(245,1318,o),
(231,1282,q),
(206,1220,o),
(192,1068,q),
(170,1063,o),
(152,1063,q),
(112,1063,o),
(101,1084,q),
(90,1105,o),
(86,1127.5,q),
(82,1150,o),
(80,1177,q),
(76,1231,o),
(76,1292,q),
(76,1459,o),
(102,1504,q),
(128,1552,o),
(206,1552,q),
(221,1552,o),
(250,1549,q),
(279,1546,o),
(334,1542,q),
(483,1533,o),
(691,1533,q),
(860,1533,l),
(1150,1533,o),
(1248,1542.5,q),
(1346,1552,o),
(1370,1552,q),
(1394,1552,o),
(1414,1545,q),
(1434,1538,o),
(1446,1525,q),
(1465,1503,o),
(1465,1470,q),
(1465,1420,o),
(1462,1390,q),
(1459,1360,o),
(1455.5,1319,q),
(1452,1278,o),
(1446,1234,q),
(1432,1130,o),
(1411,1091,q),
(1391,1063,o),
(1362.5,1063,q),
(1334,1063,o),
(1312,1068,q),
(1313,1131,l),
(1313,1220,o),
(1303,1271.5,q),
(1293,1323,o),
(1261,1348.5,q),
(1229,1374,o),
(1169,1380.5,q),
(1109,1387,o),
(1009,1387,q),
(889,1387,l),
(889,882,l),
(1189,882,l),
(1198,864,o),
(1198,843.5,q),
(1198,823,o),
(1192.5,805.5,q),
(1187,788,o),
(1178,774,q),
(1156,742,o),
(1123,742,q),
(889,742,l),
(889,236,l),
(889,164,o),
(1004,136,q),
(1032,130,o),
(1057.5,125,q),
(1083,120,o),
(1107,114.5,q),
(1131,109,o),
(1147,101,q),
(1179,85,o),
(1179,47,q),
(1179,12,o),
(1163,-8,q)
);
}
);
width = 1524;
}
);
unicode = 358;
},
{
category = Letter;
glyphname = tbar;
layers = (
{
layerId = "3ab791a5-0594-4336-bd7a-6e9e95a35031";
name = Fore;
shapes = (
{
closed = 1;
nodes = (
(814,1151,o),
(814,1125,q),
(814,1094,l),
(814,1052,o),
(769,1025.5,q),
(724,999,o),
(669.5,999,q),
(615,999,o),
(591.5,1000.5,q),
(568,1002,o),
(546,1004,q),
(502,1010,l),
(479,1012,o),
(453,1014,q),
(453,862,l),
(453,792,o),
(452,726,q),
(803,726,l),
(812,708,o),
(812,687.5,q),
(812,667,o),
(806.5,649.5,q),
(801,632,o),
(792,618,q),
(770,586,o),
(737,586,q),
(451,586,l),
(451,419,l),
(451,254,o),
(468,220.5,q),
(485,187,o),
(508,180.5,q),
(531,174,o),
(567,174,q),
(603,174,o),
(632.5,179.5,q),
(662,185,o),
(688,194,q),
(714,203,o),
(738,214,q),
(787,235,l),
(804,241,o),
(825,200,q),
(831,189,o),
(831,174.5,q),
(831,160,o),
(819,137,q),
(807,114,o),
(772.5,84.5,q),
(738,55,o),
(692,32,q),
(592,-19,o),
(512.5,-19,q),
(433,-19,o),
(383,-10,q),
(333,-1,o),
(298,26,q),
(226,82,o),
(226,231,q),
(226,586,l),
(68,586,l),
(60,608,o),
(60,627.5,q),
(60,647,o),
(65.5,665,q),
(71,683,o),
(81,696,q),
(103,726,o),
(132,726,q),
(226,726,l),
(226,1018,l),
(127,1018,l),
(96,1018,o),
(82,1038,q),
(58,1069,o),
(58,1090,q),
(58,1125,o),
(75,1129,q),
(234,1156,o),
(300,1365,q),
(319,1428,o),
(330,1514,q),
(378,1522,o),
(402.5,1522,q),
(427,1522,o),
(445,1497,q),
(463,1472,o),
(462.5,1439,q),
(462,1406,o),
(461,1377,q),
(460,1348,o),
(459,1314,q),
(455,1174,l),
(801,1174,l)
);
}
);
width = 889;
}
);
unicode = 359;
},
{
category = Letter;
glyphname = Uogonek;
layers = (
{
layerId = "3ab791a5-0594-4336-bd7a-6e9e95a35031";
name = Fore;
shapes = (
{
closed = 1;
nodes = (
(843,-19,o),
(795,-19,q),
(747,-19,o),
(674.5,-8,q),
(602,3,o),
(533,31.5,q),
(464,60,o),
(403.5,107.5,q),
(343,155,o),
(298,228,q),
(200,385,o),
(200,636,q),
(200,1324,l),
(199,1367,o),
(190.5,1384,q),
(182,1401,o),
(152,1407,q),
(122,1413,o),
(98.5,1418.5,q),
(75,1424,o),
(59,1432,q),
(27,1448,o),
(27,1486,q),
(27,1521,o),
(43,1541,q),
(66,1533,o),
(142,1533,q),
(530,1533,l),
(644,1533,o),
(644,1456,q),
(644,1422,o),
(629,1405,q),
(592,1415,o),
(559.5,1415,q),
(527,1415,o),
(507.5,1407.5,q),
(488,1400,o),
(472,1381,q),
(436,1338,o),
(436,1248,q),
(436,706,l),
(436,397,o),
(560,262,q),
(656,159,o),
(826,159,q),
(1256,159,o),
(1256,695,q),
(1256,1297,l),
(1256,1376,o),
(1212,1396,q),
(1198,1403,o),
(1173.5,1408,q),
(1149,1413,o),
(1125.5,1418.5,q),
(1102,1424,o),
(1086,1432,q),
(1054,1448,o),
(1054,1486,q),
(1054,1523,o),
(1070,1541,q),
(1093,1533,o),
(1169,1533,q),
(1501,1533,l),
(1552,1533,o),
(1583.5,1517,q),
(1615,1501,o),
(1615,1457,q),
(1615,1423,o),
(1600,1406,q),
(1560,1416,o),
(1516,1416,q),
(1440,1416,o),
(1437,1258,q),
(1437,658,l),
(1437,400,o),
(1339.5,239.5,q),
(1242,79,o),
(1059,17,q),
(973,-43,o),
(931,-109,q),
(889,-175,o),
(889,-226,q),
(889,-335,o),
(1018,-335,q),
(1106,-335,o),
(1185,-262,q),
(1228,-278,o),
(1228,-306.5,q),
(1228,-335,o),
(1201.5,-370,q),
(1175,-405,o),
(1132,-437,q),
(1027,-514,o),
(919,-514,q),
(771,-514,o),
(714,-400,q),
(695,-362,o),
(695,-312,q),
(695,-157,o),
(871,-17,q)
);
}
);
width = 1633;
}
);
unicode = 370;
},
{
category = Letter;
glyphname = uogonek;
layers = (
{
layerId = "3ab791a5-0594-4336-bd7a-6e9e95a35031";
name = Fore;
shapes = (
{
closed = 1;
nodes = (
(932,11,o),
(924,152,q),
(777,39,o),
(623,-4,q),
(567,-19,o),
(505.5,-19,q),
(444,-19,o),
(385.5,-2,q),
(327,15,o),
(284,53,q),
(192,134,o),
(192,303,q),
(192,890,l),
(192,947,o),
(183.5,981.5,q),
(175,1016,o),
(149,1016,q),
(130,1016,o),
(118,1012,q),
(95,1002,l),
(88,1000,o),
(78,1010,q),
(59,1031,o),
(59,1048.5,q),
(59,1066,o),
(70.5,1085.5,q),
(82,1105,o),
(105.5,1130,q),
(129,1155,o),
(159,1174,q),
(227,1219,o),
(282,1219,q),
(337,1219,o),
(360,1200,q),
(383,1181,o),
(395,1150,q),
(415,1100,o),
(415,999,q),
(415,373,l),
(415,204,o),
(518,184,q),
(548,178,o),
(590.5,178,q),
(633,178,o),
(681.5,189,q),
(730,200,o),
(774,218,q),
(859,253,o),
(924,307,q),
(924,890,l),
(924,985,o),
(890,1007,q),
(876,1016,o),
(853,1016,q),
(830,1016,o),
(816.5,1009,q),
(803,1002,o),
(794.5,999,q),
(786,996,o),
(780,999.5,q),
(774,1003,o),
(768,1010,q),
(752,1027,o),
(752,1044,q),
(752,1061,o),
(764.5,1080.5,q),
(777,1100,o),
(805,1125.5,q),
(833,1151,o),
(869,1172,q),
(950,1219,o),
(1031,1219,q),
(1129,1219,o),
(1143,1080,q),
(1147,1041,o),
(1147,999,q),
(1147,407,l),
(1147,253,o),
(1159,215,q),
(1171,177,o),
(1188,165.5,q),
(1205,154,o),
(1230,154,q),
(1255,154,o),
(1271,162,q),
(1301,175,l),
(1314,178,o),
(1324,163,q),
(1345,132,o),
(1332,110,q),
(1310,74,o),
(1260,44,q),
(1210,14,o),
(1164.5,-20,q),
(1119,-54,o),
(1084,-89,q),
(1009,-166,o),
(1009,-230,q),
(1009,-335,o),
(1127,-335,q),
(1216,-335,o),
(1295,-262,q),
(1338,-279,o),
(1338,-307,q),
(1338,-335,o),
(1311.5,-370,q),
(1285,-405,o),
(1242,-437,q),
(1137,-514,o),
(1028,-514,q),
(887,-514,o),
(833,-400,q),
(815,-362,o),
(815,-312,q),
(815,-147,o),
(1023,-14,q)
);
}
);
width = 1370;
}
);
unicode = 371;
},
{
category = Letter;
glyphname = florin;
layers = (
{
layerId = "3ab791a5-0594-4336-bd7a-6e9e95a35031";
name = Fore;
shapes = (
{
closed = 1;
nodes = (
(1028,966,o),
(1028,930,q),
(1028,894,o),
(1020.5,877,q),
(1013,860,o),
(992,846,q),
(946,814,o),
(846,814,q),
(809,814,o),
(768,818,q),
(679,828,l),
(606,76,l),
(580,-218,o),
(438,-368,q),
(314,-498,o),
(139,-498,q),
(-22,-498,o),
(-68,-392,q),
(-104,-312,o),
(-56,-242,q),
(-39,-217,o),
(-15,-202,q),
(1,-182,o),
(46.5,-182,q),
(92,-182,o),
(90,-207.5,q),
(88,-233,o),
(92.5,-255.5,q),
(97,-278,o),
(110,-294,q),
(137,-331,o),
(185.5,-331,q),
(234,-331,o),
(264,-321,q),
(294,-311,o),
(316,-284,q),
(363,-230,o),
(374,-92,q),
(457,842,l),
(388,842,l),
(229,842,o),
(199,839,q),
(182,878,o),
(182,912,q),
(182,946,o),
(208,967,q),
(234,988,o),
(275,988,q),
(470,988,l),
(485,1148,l),
(510,1439,o),
(672,1592,q),
(811,1721,o),
(991,1721,q),
(1097,1721,o),
(1148,1672,q),
(1218,1604,o),
(1184,1488,q),
(1165,1423,o),
(1126,1396,q),
(1110,1376,o),
(1064.5,1376,q),
(1019,1376,o),
(1021,1402,q),
(1026,1554,o),
(915,1554,q),
(830,1554,o),
(786,1508,q),
(732,1450,o),
(726,1315,q),
(694,988,l),
(1016,988,l)
);
}
);
width = 1181;
}
);
unicode = 402;
},
{
category = Letter;
glyphname = dotlessj;
layers = (
{
layerId = "3ab791a5-0594-4336-bd7a-6e9e95a35031";
name = Fore;
shapes = (
{
closed = 1;
nodes = (
(4,-292,o),
(27.5,-316.5,q),
(51,-341,o),
(96,-341,q),
(141,-341,o),
(172,-331.5,q),
(203,-322,o),
(224,-296,q),
(270,-239,o),
(270,-104,q),
(270,906,l),
(270,976,o),
(250.5,1003.5,q),
(231,1031,o),
(181,1031,q),
(155,1031,o),
(134,1022,q),
(115,1020,o),
(107,1050,q),
(100,1076,o),
(115,1096.5,q),
(130,1117,o),
(159,1140,q),
(188,1163,o),
(222,1180,q),
(298,1219,o),
(351,1219,q),
(404,1219,o),
(430.5,1203,q),
(457,1187,o),
(471,1160,q),
(493,1116,o),
(493,1018,q),
(493,37,l),
(493,-224,o),
(365,-376,q),
(249,-514,o),
(77,-514,q),
(-21,-514,o),
(-81,-467,q),
(-136,-424,o),
(-136,-367,q),
(-136,-308,o),
(-94,-278,q),
(-56,-250,o),
(0,-260,q)
);
}
);
width = 717;
}
);
unicode = 567;
},
{
category = Letter;
glyphname = circumflex;
layers = (
{
layerId = "3ab791a5-0594-4336-bd7a-6e9e95a35031";
name = Fore;
shapes = (
{
closed = 1;
nodes = (
(184,1351,o),
(156,1351,q),
(128,1351,o),
(110.5,1368,q),
(93,1385,o),
(93,1394,q),
(93,1412,o),
(100,1419,q),
(331,1724,l),
(356,1769,o),
(429,1769,q),
(500,1769,o),
(535,1724,q),
(765,1419,l),
(772,1411,o),
(772,1398,q),
(772,1385,o),
(754.5,1368,q),
(737,1351,o),
(712.5,1351,q),
(688,1351,o),
(669.5,1363,q),
(651,1375,o),
(632,1389,q),
(432,1549,l),
(233,1389,l)
);
}
);
width = 838;
}
);
unicode = 710;
},
{
category = Letter;
glyphname = caron;
layers = (
{
layerId = "3ab791a5-0594-4336-bd7a-6e9e95a35031";
name = Fore;
shapes = (
{
closed = 1;
nodes = (
(304,1704,o),
(304,1716.5,q),
(304,1729,o),
(321.5,1746,q),
(339,1763,o),
(364,1763,q),
(395,1763,o),
(443,1726,q),
(643,1565,l),
(843,1726,l),
(891,1763,o),
(919,1763,q),
(947,1763,o),
(965,1746,q),
(983,1729,o),
(983,1720,q),
(983,1703,o),
(976,1696,q),
(745,1391,l),
(718,1345,o),
(647,1345,q),
(617,1345,o),
(585.5,1358.5,q),
(554,1372,o),
(540,1391,q),
(310,1696,l)
);
}
);
width = 1656;
}
);
unicode = 711;
},
{
category = Letter;
glyphname = breve;
layers = (
{
layerId = "3ab791a5-0594-4336-bd7a-6e9e95a35031";
name = Fore;
shapes = (
{
closed = 1;
nodes = (
(654,1358,o),
(590.5,1380,q),
(527,1402,o),
(478,1438,q),
(375,1512,o),
(350,1618,q),
(347,1649,o),
(422,1695,q),
(495,1739,o),
(547,1739,q),
(581,1602,o),
(680,1552,q),
(716,1533,o),
(757,1533,q),
(798,1533,o),
(832,1543,q),
(866,1553,o),
(898,1576,q),
(968,1625,o),
(1009,1730,q),
(1020,1746,o),
(1053,1729,q),
(1116,1697,o),
(1108,1670,q),
(1071,1535,o),
(970,1448,q),
(865,1358,o),
(726,1358,q)
);
}
);
width = 1656;
}
);
unicode = 728;
},
{
category = Letter;
glyphname = dotaccent;
layers = (
{
layerId = "3ab791a5-0594-4336-bd7a-6e9e95a35031";
name = Fore;
shapes = (
{
closed = 1;
nodes = (
(421,1381,o),
(392.5,1391.5,q),
(364,1402,o),
(343,1422,q),
(299,1465,o),
(299,1536,q),
(299,1603,o),
(350,1651,q),
(400,1697,o),
(470.5,1697,q),
(541,1697,o),
(583,1655,q),
(625,1613,o),
(625,1541,q),
(625,1473,o),
(574,1426,q),
(525,1381,o),
(455,1381,q)
);
}
);
width = 872;
}
);
unicode = 729;
},
{
category = Letter;
glyphname = ring;
layers = (
{
layerId = "3ab791a5-0594-4336-bd7a-6e9e95a35031";
name = Fore;
shapes = (
{
closed = 1;
nodes = (
(355,1478,o),
(355,1599,q),
(355,1706,o),
(441,1780,q),
(526,1854,o),
(656,1854,q),
(877,1854,o),
(937,1705,q),
(956,1658,o),
(956,1601,q),
(956,1488,o),
(868,1414,q),
(783,1341,o),
(645,1341,q),
(507,1341,o),
(431,1409.5,q)
);
},
{
closed = 1;
nodes = (
(528,1452,o),
(660,1452,q),
(786,1452,o),
(786,1601,q),
(786,1676,o),
(750.5,1713,q),
(715,1750,o),
(672.5,1750,q),
(630,1750,o),
(606.5,1741.5,q),
(583,1733,o),
(566,1715,q),
(528,1676,o),
(528,1600,q)
);
}
);
width = 1656;
}
);
unicode = 730;
},
{
category = Letter;
glyphname = ogonek;
layers = (
{
layerId = "3ab791a5-0594-4336-bd7a-6e9e95a35031";
name = Fore;
shapes = (
{
closed = 1;
nodes = (
(1144,-279,o),
(1144,-307,q),
(1144,-335,o),
(1117.5,-370,q),
(1091,-405,o),
(1048,-437,q),
(943,-514,o),
(834,-514,q),
(687,-514,o),
(630,-400,q),
(611,-362,o),
(611,-307,q),
(611,-252,o),
(634.5,-198,q),
(658,-144,o),
(694.5,-97,q),
(731,-50,o),
(775,-11,q),
(819,28,o),
(860.5,57.5,q),
(902,87,o),
(935,107,q),
(983,136,l),
(1031,91,l),
(878,-21,o),
(822,-153,q),
(805,-193,o),
(805,-226,q),
(805,-335,o),
(933,-335,q),
(1022,-335,o),
(1101,-262,q)
);
}
);
width = 1656;
}
);
unicode = 731;
},
{
category = Letter;
glyphname = tilde;
layers = (
{
layerId = "3ab791a5-0594-4336-bd7a-6e9e95a35031";
name = Fore;
shapes = (
{
closed = 1;
nodes = (
(296,1528,o),
(215,1401,q),
(154,1418,o),
(154,1475,q),
(154,1538,o),
(244,1628,q),
(346,1730,o),
(458,1730,q),
(518,1730,o),
(562.5,1703.5,q),
(607,1677,o),
(632.5,1658.5,q),
(658,1640,o),
(685,1624,q),
(747,1587,o),
(813,1587,q),
(916,1587,o),
(1002,1716,q),
(1040,1716,o),
(1058,1667,q),
(1063,1653,o),
(1063,1636,q),
(1063,1619,o),
(1051,1593,q),
(1039,1567,o),
(1018.5,1539,q),
(998,1511,o),
(969,1483.5,q),
(940,1456,o),
(906,1434,q),
(832,1387,o),
(778,1387,q),
(724,1387,o),
(693.5,1397.5,q),
(663,1408,o),
(636.5,1423.5,q),
(610,1439,o),
(584.5,1457.5,q),
(559,1476,o),
(532,1492,q),
(470,1528,o),
(410,1528,q)
);
}
);
width = 1269;
}
);
unicode = 732;
},
{
category = Letter;
glyphname = hungarumlaut;
layers = (
{
layerId = "3ab791a5-0594-4336-bd7a-6e9e95a35031";
name = Fore;
shapes = (
{
closed = 1;
nodes = (
(668,1354,o),
(647,1374.5,q),
(626,1395,o),
(618,1417,q),
(853,1737,l),
(878,1773,o),
(918,1773,q),
(958,1773,o),
(987,1762.5,q),
(1016,1752,o),
(1040,1736,q),
(1094,1698,o),
(1094,1664,q),
(1094,1647,o),
(1078,1637,q),
(699,1347,l)
);
},
{
closed = 1;
nodes = (
(275,1355,o),
(247,1408,q),
(432,1732,l),
(458,1776,o),
(520,1776,q),
(589,1776,o),
(647,1731.5,q),
(705,1687,o),
(668,1656,q),
(336,1347,l)
);
}
);
width = 1164;
}
);
unicode = 733;
},
{
category = Letter;
glyphname = pi;
layers = (
{
layerId = "3ab791a5-0594-4336-bd7a-6e9e95a35031";
name = Fore;
shapes = (
{
closed = 1;
nodes = (
(56,1018,l),
(48,1040,o),
(48,1064.5,q),
(48,1089,o),
(53.5,1113,q),
(59,1137,o),
(69,1156,q),
(91,1200,o),
(120,1200,q),
(1397,1200,l),
(1406,1182,o),
(1406,1156.5,q),
(1406,1131,o),
(1400.5,1107,q),
(1395,1083,o),
(1386,1064,q),
(1363,1018,o),
(1331,1018,q),
(1167,1018,l),
(1167,407,l),
(1167,253,o),
(1179,215,q),
(1191,177,o),
(1207.5,165.5,q),
(1224,154,o),
(1249,154,q),
(1274,154,o),
(1290,162,q),
(1320,175,l),
(1333,178,o),
(1343,163,q),
(1364,132,o),
(1349,107,q),
(1334,82,o),
(1304,59,q),
(1274,36,o),
(1236,19,q),
(1060,-61,o),
(986,27,q),
(944,76,o),
(944,172,q),
(944,1018,l),
(532,1018,l),
(488,52,l),
(488,24,o),
(430,1,q),
(378,-20,o),
(333,-20,q),
(288,-20,o),
(266,-12,q),
(313,1018,l)
);
}
);
width = 1477;
}
);
unicode = 960;
},
{
category = Letter;
glyphname = endash;
layers = (
{
layerId = "3ab791a5-0594-4336-bd7a-6e9e95a35031";
name = Fore;
shapes = (
{
closed = 1;
nodes = (
(140,694,o),
(140,723.5,q),
(140,753,o),
(143.5,774,q),
(147,795,o),
(154,812,q),
(172,849,o),
(196,849,q),
(1227,849,l),
(1240,823,o),
(1240,791,q),
(1240,759,o),
(1236.5,738.5,q),
(1233,718,o),
(1226,702,q),
(1208,664,o),
(1180,664,q),
(151,664,l)
);
}
);
width = 1380;
}
);
unicode = 8211;
},
{
category = Letter;
glyphname = emdash;
layers = (
{
layerId = "3ab791a5-0594-4336-bd7a-6e9e95a35031";
name = Fore;
shapes = (
{
closed = 1;
nodes = (
(1851,827,o),
(1851,793,q),
(1851,759,o),
(1847.5,738.5,q),
(1844,718,o),
(1836,702,q),
(1819,664,o),
(1792,664,q),
(151,664,l),
(140,694,o),
(140,723.5,q),
(140,753,o),
(143.5,774,q),
(147,795,o),
(154,812,q),
(172,849,o),
(196,849,q),
(1838,849,l)
);
}
);
width = 1991;
}
);
unicode = 8212;
},
{
category = Letter;
glyphname = quoteleft;
layers = (
{
layerId = "3ab791a5-0594-4336-bd7a-6e9e95a35031";
name = Fore;
shapes = (
{
closed = 1;
nodes = (
(394,995,o),
(348,995,q),
(302,995,o),
(265,1021,q),
(228,1047,o),
(205,1085,q),
(161,1158,o),
(161,1253.5,q),
(161,1349,o),
(190.5,1431.5,q),
(220,1514,o),
(261.5,1575.5,q),
(303,1637,o),
(346.5,1676,q),
(390,1715,o),
(419,1728,q),
(438,1728,o),
(462,1710,q),
(503,1680,o),
(509,1655,q),
(436,1582,o),
(402,1483,q),
(388,1440,o),
(388,1399,q),
(388,1358,o),
(396.5,1329.5,q),
(405,1301,o),
(422,1279,q),
(458,1231,o),
(513,1227,q),
(536,1192,o),
(536,1157,q),
(536,1122,o),
(522,1093.5,q),
(508,1065,o),
(484,1043,q),
(460,1021,o),
(427,1008,q)
);
}
);
width = 702;
}
);
unicode = 8216;
},
{
category = Letter;
glyphname = dagger;
layers = (
{
layerId = "3ab791a5-0594-4336-bd7a-6e9e95a35031";
name = Fore;
shapes = (
{
closed = 1;
nodes = (
(457,125,o),
(464,236,q),
(481,498,o),
(487,594,q),
(522,1091,o),
(524,1139,q),
(376,1131,o),
(198,1085,q),
(187,1083,o),
(178,1083,q),
(169,1083,o),
(146,1086,q),
(123,1089,o),
(102.5,1120.5,q),
(82,1152,o),
(82,1190.5,q),
(82,1229,o),
(86.5,1254.5,q),
(91,1280,o),
(102,1301,q),
(129,1350,o),
(179,1343,q),
(205,1339,o),
(254,1323,q),
(380,1280,o),
(524,1249,q),
(505,1408,o),
(482,1497,q),
(459,1586,o),
(458,1594.5,q),
(457,1603,o),
(456.5,1612,q),
(456,1621,o),
(455.5,1628.5,q),
(455,1636,o),
(455,1649.5,q),
(455,1663,o),
(465.5,1679.5,q),
(476,1696,o),
(494,1707,q),
(528,1728,o),
(587.5,1728,q),
(647,1728,o),
(680.5,1703,q),
(714,1678,o),
(714,1640,q),
(714,1603,o),
(699,1554,q),
(649,1389,o),
(631,1247,q),
(789,1281,o),
(929,1333,q),
(984,1351,o),
(1008.5,1336.5,q),
(1033,1322,o),
(1046,1302,q),
(1073,1261,o),
(1073,1205.5,q),
(1073,1150,o),
(1047.5,1119,q),
(1022,1088,o),
(999.5,1084.5,q),
(977,1081,o),
(967.5,1081,q),
(958,1081,o),
(914,1092,q),
(735,1137,o),
(631,1141,q),
(632,1114,o),
(636,1059,q),
(674,603,l),
(682,516,o),
(688,432,q),
(700,277,l),
(712,129,o),
(712,82.5,q),
(712,36,o),
(679.5,8.5,q),
(647,-19,o),
(602.5,-19,q),
(558,-19,o),
(535,-13.5,q),
(512,-8,o),
(495,4,q),
(457,29,o),
(457,74,q)
);
}
);
width = 1155;
}
);
unicode = 8224;
},
{
category = Letter;
glyphname = daggerdbl;
layers = (
{
layerId = "3ab791a5-0594-4336-bd7a-6e9e95a35031";
name = Fore;
shapes = (
{
closed = 1;
nodes = (
(179,299,l),
(129,292,o),
(102,341,q),
(82,378,o),
(82,434,q),
(82,490,o),
(102.5,521.5,q),
(123,553,o),
(146,556,q),
(176,561,o),
(206,555,q),
(280,539,l),
(438,505,o),
(524,503,q),
(516,604,o),
(490,714.5,q),
(464,825,o),
(459,840,q),
(492,939,o),
(507.5,1052,q),
(523,1165,o),
(524,1178,q),
(402,1171,o),
(198,1124,q),
(133,1112,o),
(102,1160,q),
(82,1191,o),
(82,1229.5,q),
(82,1268,o),
(86.5,1293.5,q),
(91,1319,o),
(102,1340,q),
(129,1389,o),
(179,1382,q),
(216,1374,l),
(385,1318,o),
(524,1288,q),
(506,1425,o),
(482.5,1505.5,q),
(459,1586,o),
(458,1594.5,q),
(457,1603,o),
(456.5,1612,q),
(456,1621,o),
(455.5,1628.5,q),
(455,1636,o),
(455,1649.5,q),
(455,1663,o),
(465.5,1679.5,q),
(476,1696,o),
(494,1707,q),
(528,1728,o),
(587.5,1728,q),
(647,1728,o),
(680.5,1703,q),
(714,1678,o),
(714,1640,q),
(714,1603,o),
(708,1581,q),
(649,1415,o),
(631,1286,q),
(789,1320,o),
(929,1372,q),
(983,1390,o),
(1008,1375.5,q),
(1033,1361,o),
(1046,1340,q),
(1073,1300,o),
(1073,1244.5,q),
(1073,1189,o),
(1047.5,1158,q),
(1022,1127,o),
(1000,1123,q),
(970,1118,o),
(948,1122,q),
(739,1175,o),
(631,1180,q),
(634,1136,o),
(653,1057,q),
(680,944,l),
(696,882,l),
(704,855,o),
(710,840,q),
(665,705,o),
(648.5,609.5,q),
(632,514,o),
(631,501,q),
(739,506,o),
(948,559,q),
(1008,571,o),
(1040.5,531.5,q),
(1073,492,o),
(1073,452,q),
(1073,412,o),
(1066.5,386.5,q),
(1060,361,o),
(1046,340,q),
(1008,283,o),
(929,309,q),
(850,336,l),
(753,369,o),
(631,395,q),
(649,266,o),
(708,100,q),
(714,78,o),
(714,40.5,q),
(714,3,o),
(680.5,-22,q),
(647,-47,o),
(602.5,-47,q),
(558,-47,o),
(535,-42,q),
(512,-37,o),
(494,-26,q),
(455,-2,o),
(455,42,q),
(455,45,o),
(455.5,52.5,q),
(456,60,o),
(456,69,q),
(458,91,o),
(470,133,q),
(505,254,o),
(524,393,q),
(403,367,o),
(216,307,q)
);
}
);
width = 1155;
}
);
unicode = 8225;
},
{
category = Letter;
glyphname = bullet;
layers = (
{
layerId = "3ab791a5-0594-4336-bd7a-6e9e95a35031";
name = Fore;
shapes = (
{
closed = 1;
nodes = (
(358,265,o),
(310.5,285,q),
(263,305,o),
(228,340,q),
(151,417,o),
(151,527,q),
(151,639,o),
(227.5,715.5,q),
(304,792,o),
(413,792,q),
(525,792,o),
(602,716,q),
(677,640,o),
(677,527,q),
(677,416,o),
(601.5,340.5,q),
(526,265,o),
(414,265,q)
);
}
);
width = 828;
}
);
unicode = 8226;
},
{
category = Letter;
glyphname = ellipsis;
layers = (
{
layerId = "3ab791a5-0594-4336-bd7a-6e9e95a35031";
name = Fore;
shapes = (
{
closed = 1;
nodes = (
(1494,219,o),
(1541.5,266.5,q),
(1589,314,o),
(1659,314,q),
(1732,314,o),
(1780,266,q),
(1828,218,o),
(1828,147,q),
(1828,77,o),
(1780,28,q),
(1732,-19,o),
(1659,-19,q),
(1589,-19,o),
(1541.5,28.5,q),
(1494,76,o),
(1494,147,q)
);
},
{
closed = 1;
nodes = (
(829,219,o),
(876.5,266.5,q),
(924,314,o),
(994,314,q),
(1108,314,o),
(1151,214,q),
(1164,183,o),
(1164,147,q),
(1164,77,o),
(1116,28,q),
(1068,-19,o),
(994,-19,q),
(924,-19,o),
(876.5,28.5,q),
(829,76,o),
(829,147,q)
);
},
{
closed = 1;
nodes = (
(165,219,o),
(212.5,266.5,q),
(260,314,o),
(330,314,q),
(444,314,o),
(487,214,q),
(500,183,o),
(500,147,q),
(500,77,o),
(452,28,q),
(404,-19,o),
(330,-19,q),
(260,-19,o),
(212.5,28.5,q),
(165,76,o),
(165,147,q)
);
}
);
width = 1993;
}
);
unicode = 8230;
},
